<?xml version="1.0" encoding="UTF-8" standalone="no"?>
<svg
   xmlns:dc="http://purl.org/dc/elements/1.1/"
   xmlns:cc="http://creativecommons.org/ns#"
   xmlns:rdf="http://www.w3.org/1999/02/22-rdf-syntax-ns#"
   xmlns:svg="http://www.w3.org/2000/svg"
   xmlns="http://www.w3.org/2000/svg"
   xmlns:sodipodi="http://sodipodi.sourceforge.net/DTD/sodipodi-0.dtd"
   xmlns:inkscape="http://www.inkscape.org/namespaces/inkscape"
   version="1.1"
   viewBox="0 -240 1200 1200"
   id="svg6"
   sodipodi:docname="3d-arial.svg"
   inkscape:version="0.92.1 r15371">
  <metadata
     id="metadata12">
    <rdf:RDF>
      <cc:Work
         rdf:about="">
        <dc:format>image/svg+xml</dc:format>
        <dc:type
           rdf:resource="http://purl.org/dc/dcmitype/StillImage" />
        <dc:title></dc:title>
      </cc:Work>
    </rdf:RDF>
  </metadata>
  <defs
     id="defs10" />
  <sodipodi:namedview
     pagecolor="#ffffff"
     bordercolor="#666666"
     borderopacity="1"
     objecttolerance="10"
     gridtolerance="10"
     guidetolerance="10"
     inkscape:pageopacity="0"
     inkscape:pageshadow="2"
     inkscape:window-width="1920"
     inkscape:window-height="1017"
     id="namedview8"
     showgrid="false"
     inkscape:zoom="0.27812867"
     inkscape:cx="1101.6553"
     inkscape:cy="618.87856"
     inkscape:window-x="-8"
     inkscape:window-y="-8"
     inkscape:window-maximized="1"
     inkscape:current-layer="layer2"
     showguides="false" />
  <g
     inkscape:groupmode="layer"
     id="layer2"
     inkscape:label="glyph">
    <path
       style="font-style:normal;font-variant:normal;font-weight:bold;font-stretch:normal;font-size:medium;line-height:1.25;font-family:Arial;-inkscape-font-specification:'Arial Bold';letter-spacing:0px;word-spacing:0px;display:inline;fill:#000000;fill-opacity:1;stroke:none;stroke-width:25.18031502"
       d="m 232.6249,111.88406 c -39.672,0 -75.5727,7.54118 -107.7044,22.623 -31.8026,14.75415 -56.7215,35.24848 -74.754,61.47798 -17.7051,25.90165 -30.9855,60.65533 -39.839,104.26193 l 127.3788,21.6389 c 3.6064,-31.47538 13.7707,-55.41199 30.4921,-71.80538 16.7211,-16.39339 36.8836,-24.58751 60.4902,-24.58751 23.9344,2e-5 43.1152,7.21279 57.5416,21.63893 14.4261,14.4263 21.6389,33.76957 21.6389,58.03182 0,28.52459 -9.8359,51.47618 -29.5079,68.8531 -19.6724,17.04927 -48.1947,25.08103 -85.5718,24.09731 L 177.5417,510.739 c 24.5902,-6.88533 45.7375,-10.3311 63.4424,-10.3311 26.8853,0 49.6744,10.16413 68.363,30.49203 18.6885,20.32791 28.0299,47.86896 28.0299,82.62299 0,36.7213 -9.8357,65.90416 -29.5079,87.54347 -19.3442,21.63945 -43.2773,32.45653 -71.8018,32.45653 -26.5574,0 -49.1805,-9.01679 -67.8689,-27.04958 -18.6885,-18.0328 -30.1624,-44.09809 -34.4248,-78.19644 L 0,644.50885 c 6.8843,60.65568 31.8032,109.83476 74.754,147.53977 42.9516,37.37699 97.0515,56.06731 162.2974,56.06731 68.8525,2e-5 126.3919,-22.29478 172.6211,-66.88492 46.2297,-44.59013 69.3434,-98.52491 69.3434,-161.80354 0,-43.6066 -12.4588,-80.82104 -37.3769,-111.64075 -24.5902,-30.81953 -57.5398,-50.65722 -98.8513,-59.50978 69.1803,-37.70485 103.7717,-88.19382 103.7717,-151.47245 0,-44.59015 -16.8863,-84.59008 -50.6566,-120 -40.9837,-43.27856 -95.409,-64.92043 -163.2779,-64.92043 z m 362.9486,2.95226 V 835.82035 H 869.508 c 53.7705,0 96.7221,-5.08391 128.853,-15.24787 42.9508,-13.77043 77.0516,-32.95136 102.2975,-57.54162 33.4427,-32.45893 59.1798,-74.91614 77.2123,-127.37512 C 1192.625,592.70483 1200,541.55556 1200,482.21145 c 0,-67.54101 -7.8694,-124.26126 -23.6072,-170.16279 -15.7376,-46.22955 -38.6854,-85.24447 -68.8494,-117.04772 -30.1639,-31.80324 -66.3935,-53.93568 -108.6885,-66.39472 -31.4752,-9.18041 -77.2159,-13.7699 -137.2161,-13.7699 z M 741.1487,236.8045 h 65.4106 c 59.3444,0 99.1785,2.29473 119.5062,6.88493 27.213,5.9016 49.6738,17.21311 67.3787,33.93451 17.7049,16.72125 31.4737,39.99738 41.3098,69.83352 9.8361,29.83599 14.7539,72.6253 14.7539,128.36293 0,55.73763 -4.9178,99.83648 -14.7539,132.29558 -9.8361,32.13107 -22.6234,55.245 -38.3612,69.34331 -15.4098,14.09846 -34.9154,24.09656 -58.522,29.99816 -18.0327,4.59021 -47.3777,6.88493 -88.0337,6.88493 H 741.1487 Z"
       id="path4496"
       inkscape:connector-curvature="0" />
  </g>
</svg>
