<?xml version="1.0" encoding="UTF-8" standalone="no"?>
<svg
   xmlns:dc="http://purl.org/dc/elements/1.1/"
   xmlns:cc="http://creativecommons.org/ns#"
   xmlns:rdf="http://www.w3.org/1999/02/22-rdf-syntax-ns#"
   xmlns:svg="http://www.w3.org/2000/svg"
   xmlns="http://www.w3.org/2000/svg"
   xmlns:sodipodi="http://sodipodi.sourceforge.net/DTD/sodipodi-0.dtd"
   xmlns:inkscape="http://www.inkscape.org/namespaces/inkscape"
   version="1.1"
   viewBox="0 -240 1200 1200"
   id="svg6"
   sodipodi:docname="_grid.svg"
   inkscape:version="0.92.1 r15371">
  <metadata
     id="metadata12">
    <rdf:RDF>
      <cc:Work
         rdf:about="">
        <dc:format>image/svg+xml</dc:format>
        <dc:type
           rdf:resource="http://purl.org/dc/dcmitype/StillImage" />
        <dc:title />
      </cc:Work>
    </rdf:RDF>
  </metadata>
  <defs
     id="defs10" />
  <sodipodi:namedview
     pagecolor="#ffffff"
     bordercolor="#666666"
     borderopacity="1"
     objecttolerance="10"
     gridtolerance="10"
     guidetolerance="10"
     inkscape:pageopacity="0"
     inkscape:pageshadow="2"
     inkscape:window-width="1920"
     inkscape:window-height="1017"
     id="namedview8"
     showgrid="false"
     inkscape:zoom="0.13906433"
     inkscape:cx="-3332.3644"
     inkscape:cy="1737.0167"
     inkscape:window-x="-8"
     inkscape:window-y="-8"
     inkscape:window-maximized="1"
     inkscape:current-layer="layer2" />
  <g
     inkscape:groupmode="layer"
     id="layer1"
     inkscape:label="grid"
     style="display:inline">
    <rect
       id="rect3698"
       width="1200"
       height="1200"
       x="0"
       y="-120"
       style="fill:#f6baff;fill-opacity:1;stroke-width:0.75510824" />
  </g>
  <g
     inkscape:groupmode="layer"
     id="layer2"
     inkscape:label="glyph">
    <path
       style="fill:#000000;fill-opacity:1;stroke-width:0.91238636"
       d="m 5649.414,-160.54871 c -3.7153,-3.77883 -10.196,-4.79363 -21.2878,-1.19605 -25.3396,0 -50.6799,0 -76.0195,0 L 5379.9884,10.373597 c -44.1235,-42.410419 -85.0233,-88.574331 -131.323,-128.453097 -52.2799,-30.67535 -107.9899,7.88129 -141.7418,47.967254 L 4947.4863,89.325138 c 141.4212,141.421212 282.8414,282.841442 424.2626,424.262652 65.6628,-67.10568 134.4105,-131.43262 198.0148,-200.39293 31.6727,-39.33084 24.9797,-99.93978 -16.3201,-129.36599 -34.248,-34.248 -68.4951,-68.49518 -102.7432,-102.743181 l 202.6262,-202.626139 c 0.1979,-14.5049 3.1803,-31.79425 -3.9126,-39.00826 z m -716.4608,405.82539 -170.4845,170.48455 c -23.5702,-23.57023 -47.1405,-47.14047 -70.7107,-70.71068 -65.6628,67.10569 -134.4105,131.43264 -198.0147,200.39302 -31.6727,39.33076 -24.9797,99.93978 16.3201,129.36596 l 102.7445,102.74453 -159.4816,159.48157 v 101.21847 c 21.8889,0.2137 45.6689,4.9973 58.0187,-17.8185 l 172.1722,-172.17221 c 44.124,42.4105 85.0229,88.57693 131.323,128.45592 52.2799,30.67549 107.9927,-7.88134 141.7445,-47.9673 L 5116.0207,769.316 c -23.5697,-23.56976 -47.1396,-47.13951 -70.7093,-70.70926 l 170.486,-170.48594 c -23.5704,-23.57033 -47.1404,-47.14035 -70.7107,-70.71068 l -170.4859,170.48594 c -47.1408,-47.141 -94.2806,-94.28319 -141.4214,-141.42415 56.8282,-56.82819 113.6563,-113.65638 170.4845,-170.48456 -23.5703,-23.57033 -47.1403,-47.14034 -70.7107,-70.71067 z"
       id="rect4507-6"
       inkscape:connector-curvature="0" />
    <path
       style="fill:#000000;fill-opacity:1;stroke-width:0.91238636"
       d="M 3337.8652 120.99609 L 3039.457 419.4043 L 2921.4395 301.38672 C 2888.8867 268.83386 2831.0903 274.21825 2791.8477 313.46094 L 2606.9531 498.35352 L 2677.6641 569.06445 L 2648.4512 598.27734 L 2577.7402 527.56641 L 2392.8477 712.45898 C 2353.605 751.70171 2348.2206 809.49986 2380.7734 842.05273 L 2498.791 960.07031 L 2194.5918 1264.2695 L 2194.5918 1320.9961 L 2279.2871 1320.9961 L 2569.502 1030.7812 L 2687.5195 1148.7988 C 2720.0723 1181.3517 2777.8686 1175.9673 2817.1113 1136.7246 L 3002.0059 951.83008 L 2931.2949 881.11914 L 2960.5078 851.9082 L 3031.2168 922.61719 L 3216.1113 737.72461 C 3255.354 698.48193 3260.7383 640.68567 3228.1855 608.13281 L 3110.168 490.11523 L 3394.5918 205.69141 L 3394.5918 120.99609 L 3337.8652 120.99609 z M 2748.375 639.77539 L 2889.7969 781.19727 L 2860.584 810.4082 L 2719.1621 668.98828 L 2748.375 639.77539 z "
       transform="translate(0,-240)"
       id="rect4507-6-2" />
    <path
       style="fill:currentColor;stroke-width:0.83400315"
       d="m 7697.71,-120 c -11.3333,0 -21.1667,4 -29.5,12 -8.3333,8 -12.5,17.3333 -12.5,28 V 90 h -167 c -11.3333,0 -21,3.66667 -29,11 -8,7.33333 -12,16.83333 -12,28.5 0,11.66667 4,21.5 12,29.5 8,8 17.6667,12 29,12 h 167 v 169 c 0,11.33333 4.1667,20.83333 12.5,28.5 8.3333,7.66667 18.1667,11.5 29.5,11.5 11.3333,0 21,-3.83333 29,-11.5 8,-7.66667 12,-17.16667 12,-28.5 V 171 h 169 c 10.6667,0 20,-4 28,-12 8,-8 12,-17.83333 12,-29.5 0,-11.66667 -4,-21.16667 -12,-28.5 -8,-7.33333 -17.3333,-11 -28,-11 h -169 V -80 c 0,-10.6667 -4,-20 -12,-28 -8,-8 -17.6667,-12 -29,-12 z M 7151.3682,181.7793 6747.71,602.11523 7282.3057,871.5 7686.7979,450.32812 Z M 7623.4131,600.44727 7285.6416,955.7344 6831.9444,729.71875 6754.3819,799.7754 7304.8233,1080 7718.4893,652.99023 Z"
       id="path4959"
       inkscape:connector-curvature="0" />
    <circle
       style="fill:#000000;fill-opacity:1;stroke-width:1.25168204"
       id="path5023"
       cx="-1697.0563"
       cy="-45.133179"
       r="531.0437" />
    <rect
       style="fill:#000000;fill-opacity:1;stroke-width:0.93455046"
       id="rect5025"
       width="381.35596"
       height="293.57565"
       x="-1887.7343"
       y="304.06781"
       rx="72.571449"
       ry="50.582283" />
    <rect
       style="fill:#000000;fill-opacity:1;stroke-width:0.52172309"
       id="rect5025-9"
       width="381.35596"
       height="91.494431"
       x="-1887.7343"
       y="663.3089"
       rx="72.571449"
       ry="15.764241" />
    <rect
       style="fill:#000000;fill-opacity:1;stroke-width:0.57997733"
       id="rect5025-9-4"
       width="381.35596"
       height="113.06718"
       x="-1887.7343"
       y="824.96765"
       rx="72.571449"
       ry="19.481167" />
    <rect
       style="fill:#000000;fill-opacity:1;stroke-width:0.47724319"
       id="rect5025-9-4-8"
       width="244.72855"
       height="119.29985"
       x="-1819.4205"
       y="897.35596"
       rx="46.571465"
       ry="20.555038" />
  </g>
</svg>
