<?xml version="1.0" encoding="UTF-8" standalone="no"?>
<svg
   xmlns:dc="http://purl.org/dc/elements/1.1/"
   xmlns:cc="http://creativecommons.org/ns#"
   xmlns:rdf="http://www.w3.org/1999/02/22-rdf-syntax-ns#"
   xmlns:svg="http://www.w3.org/2000/svg"
   xmlns="http://www.w3.org/2000/svg"
   xmlns:sodipodi="http://sodipodi.sourceforge.net/DTD/sodipodi-0.dtd"
   xmlns:inkscape="http://www.inkscape.org/namespaces/inkscape"
   version="1.1"
   viewBox="0 -240 1200 1200"
   id="svg6"
   sodipodi:docname="add-dashboard.svg"
   inkscape:version="0.92.1 r15371">
  <metadata
     id="metadata12">
    <rdf:RDF>
      <cc:Work
         rdf:about="">
        <dc:format>image/svg+xml</dc:format>
        <dc:type
           rdf:resource="http://purl.org/dc/dcmitype/StillImage" />
        <dc:title></dc:title>
      </cc:Work>
    </rdf:RDF>
  </metadata>
  <defs
     id="defs10" />
  <sodipodi:namedview
     pagecolor="#ffffff"
     bordercolor="#666666"
     borderopacity="1"
     objecttolerance="10"
     gridtolerance="10"
     guidetolerance="10"
     inkscape:pageopacity="0"
     inkscape:pageshadow="2"
     inkscape:window-width="1920"
     inkscape:window-height="1017"
     id="namedview8"
     showgrid="false"
     inkscape:zoom="0.13906433"
     inkscape:cx="1584.789"
     inkscape:cy="500.11934"
     inkscape:window-x="-8"
     inkscape:window-y="-8"
     inkscape:window-maximized="1"
     inkscape:current-layer="layer2"
     showguides="false" />
  <g
     inkscape:groupmode="layer"
     id="layer2"
     inkscape:label="glyph">
    <path
       style="fill:currentColor;stroke-width:0.83400315"
       d="M 950 120 C 938.6667 120 928.8333 124 920.5 132 C 912.1667 140 908 149.3333 908 160 L 908 330 L 741 330 C 729.6667 330 720 333.66667 712 341 C 704 348.33333 700 357.83333 700 369.5 C 700 381.16667 704 391 712 399 C 720 407 729.6667 411 741 411 L 908 411 L 908 580 C 908 591.33333 912.1667 600.83333 920.5 608.5 C 928.8333 616.16667 938.6667 620 950 620 C 961.3333 620 971 616.16667 979 608.5 C 987 600.83333 991 591.33333 991 580 L 991 411 L 1160 411 C 1170.6667 411 1180 407 1188 399 C 1196 391 1200 381.16667 1200 369.5 C 1200 357.83333 1196 348.33333 1188 341 C 1180 333.66667 1170.6667 330 1160 330 L 991 330 L 991 160 C 991 149.3333 987 140 979 132 C 971 124 961.3333 120 950 120 z M 401.00391 520 C 291.65941 520 197.48995 559.27471 118.49414 637.82422 C 39.498321 716.37373 -1.5177715e-015 810.54318 0 920.33398 C 1.4210855e-014 983.26286 15.174762 1042.3985 45.523438 1097.7402 C 78.103636 1165.1321 126.30353 1219.0235 190.125 1259.4141 C 253.94649 1299.8045 324.3524 1320 401.33984 1320 C 478.3273 1320 548.73126 1299.8045 612.55273 1259.4141 C 676.37422 1219.0235 724.12883 1165.1321 755.81641 1097.7402 C 785.71878 1042.3985 800.66992 983.26286 800.66992 920.33398 C 800.66992 810.54318 761.39522 716.37373 682.8457 637.82422 C 604.2962 559.27471 510.3484 520 401.00391 520 z M 400.33398 572.88672 C 495.39674 572.88672 576.96011 606.91715 645.02148 674.97852 C 713.08285 743.03988 747.11328 824.82492 747.11328 920.33398 C 747.11328 981.92394 731.046 1041.0596 698.91211 1097.7402 L 102.42773 1097.7402 C 69.847538 1041.0596 53.556641 981.92394 53.556641 920.33398 C 53.556641 824.82492 87.587075 743.03988 155.64844 674.97852 C 223.70981 606.91715 305.27122 572.88672 400.33398 572.88672 z M 312.63672 625.10547 C 303.71064 625.10547 295.7888 628.67555 288.87109 635.81641 C 281.95338 642.95727 278.49414 651.21356 278.49414 660.58594 C 278.49414 670.85093 281.95338 679.33083 288.87109 686.02539 C 295.7888 692.71996 303.71064 696.06641 312.63672 696.06641 C 335.84453 696.06641 347.44727 684.24006 347.44727 660.58594 C 347.44727 636.93183 335.84453 625.10547 312.63672 625.10547 z M 486.69531 625.10547 C 477.32292 625.10547 469.17747 628.67555 462.25977 635.81641 C 455.34205 642.95727 451.88281 651.21356 451.88281 660.58594 C 451.88281 670.85093 455.34205 679.33083 462.25977 686.02539 C 469.17747 692.71996 477.32292 696.06641 486.69531 696.06641 C 496.9603 696.06641 505.55104 692.71996 512.46875 686.02539 C 519.38646 679.33083 522.8457 670.85093 522.8457 660.58594 C 522.8457 636.93183 510.79573 625.10547 486.69531 625.10547 z M 581.75781 666.61133 L 467.28125 835.31445 L 360.83594 992.63672 C 359.49702 993.97564 358.04644 995.31344 356.48438 996.65234 C 354.92231 997.99126 354.14258 999.55463 354.14258 1001.3398 C 347.89432 1013.3901 347.11264 1026.4434 351.79883 1040.502 C 356.48502 1054.5605 365.29937 1065.6072 378.24219 1073.6406 C 389.84609 1078.9963 402.67775 1079.4416 416.73633 1074.9785 C 430.79491 1070.5155 440.72539 1062.0356 446.52734 1049.5391 C 450.09778 1043.2908 451.88281 1038.8282 451.88281 1036.1504 L 513.47266 857.40625 L 581.75781 666.61133 z M 176.73633 732.88672 C 152.63591 732.88672 140.58594 745.38393 140.58594 770.37695 C 140.58594 779.74933 143.82156 787.782 150.29297 794.47656 C 156.76438 801.17112 165.57873 804.51953 176.73633 804.51953 C 186.55502 804.51953 194.70047 801.17112 201.17188 794.47656 C 207.64328 787.782 210.87891 779.74933 210.87891 770.37695 C 210.87891 759.21935 207.64328 750.18139 201.17188 743.26367 C 194.70047 736.34596 186.55502 732.88672 176.73633 732.88672 z M 626.61133 732.88672 C 602.95721 732.88672 591.12891 744.37862 591.12891 767.36328 C 591.12891 790.34794 602.84443 801.8418 626.27539 801.8418 C 649.70636 801.8418 661.42188 790.46073 661.42188 767.69922 C 661.42187 758.32684 658.07542 750.18139 651.38086 743.26367 C 644.68629 736.34596 636.43001 732.88672 626.61133 732.88672 z M 666.10938 880.83594 C 657.6296 880.83594 649.70776 884.18435 642.34375 890.87891 C 634.97974 897.57347 631.29688 905.82975 631.29688 915.64844 C 631.29688 938.40995 642.90157 949.79102 666.10938 949.79102 C 690.6561 949.79102 702.92969 938.40995 702.92969 915.64844 C 702.92969 905.82975 699.69406 897.57347 693.22266 890.87891 C 686.75125 884.18435 677.71328 880.83594 666.10938 880.83594 z M 130.54297 886.19336 C 121.61689 886.19336 113.4734 889.53981 106.10938 896.23438 C 98.745363 902.92893 95.0625 910.85077 95.0625 920 C 95.0625 929.14923 98.745363 937.29469 106.10938 944.43555 C 113.4734 951.57641 121.61689 955.14648 130.54297 955.14648 C 152.85817 955.14648 164.01758 943.65458 164.01758 920.66992 C 164.01758 897.68526 152.85817 886.19336 130.54297 886.19336 z "
       transform="translate(0,-240)"
       id="path4959" />
  </g>
</svg>
