<?xml version="1.0" encoding="UTF-8" standalone="no"?>
<svg
   xmlns:dc="http://purl.org/dc/elements/1.1/"
   xmlns:cc="http://creativecommons.org/ns#"
   xmlns:rdf="http://www.w3.org/1999/02/22-rdf-syntax-ns#"
   xmlns:svg="http://www.w3.org/2000/svg"
   xmlns="http://www.w3.org/2000/svg"
   xmlns:sodipodi="http://sodipodi.sourceforge.net/DTD/sodipodi-0.dtd"
   xmlns:inkscape="http://www.inkscape.org/namespaces/inkscape"
   version="1.1"
   viewBox="0 -240 1200 1200"
   id="svg6"
   sodipodi:docname="add-row-before-1.svg"
   inkscape:version="0.92.1 r15371">
  <metadata
     id="metadata12">
    <rdf:RDF>
      <cc:Work
         rdf:about="">
        <dc:format>image/svg+xml</dc:format>
        <dc:type
           rdf:resource="http://purl.org/dc/dcmitype/StillImage" />
        <dc:title></dc:title>
      </cc:Work>
    </rdf:RDF>
  </metadata>
  <defs
     id="defs10" />
  <sodipodi:namedview
     pagecolor="#ffffff"
     bordercolor="#666666"
     borderopacity="1"
     objecttolerance="10"
     gridtolerance="10"
     guidetolerance="10"
     inkscape:pageopacity="0"
     inkscape:pageshadow="2"
     inkscape:window-width="1920"
     inkscape:window-height="1017"
     id="namedview8"
     showgrid="false"
     inkscape:zoom="0.19666667"
     inkscape:cx="-729.69553"
     inkscape:cy="899.41557"
     inkscape:window-x="-8"
     inkscape:window-y="-8"
     inkscape:window-maximized="1"
     inkscape:current-layer="layer2"
     showguides="false" />
  <g
     inkscape:groupmode="layer"
     id="layer2"
     inkscape:label="glyph">
    <path
       style="fill:currentColor"
       d="M 52 120 C 38 120 26 125.6667 16 137 C 6 148.3333 1 160.3333 1 173 L 1 234 C 1 268.6667 18 286 52 286 L 1146 286 C 1181.3333 286 1199 268.6667 1199 234 L 1199 173 C 1199 160.3333 1193.3333 148.3333 1182 137 C 1170.6667 125.6667 1158.6667 120 1146 120 L 52 120 z M 600.5918 387.01758 C 585.3844 387.01758 572.35071 392.25132 561.48828 402.71875 C 550.62586 413.18618 545.19336 425.9237 545.19336 440.93359 L 545.19336 666.08203 L 320.63867 666.08203 C 306.81377 666.08203 294.46985 671.11897 283.60742 681.19141 C 272.745 691.26383 267.31445 704.00331 267.31445 719.4082 C 267.31445 734.8131 272.745 747.84679 283.60742 758.51172 C 294.46985 769.17665 306.81377 774.50977 320.63867 774.50977 L 545.19336 774.50977 L 545.19336 999.06641 C 545.19336 1014.4713 550.62586 1027.3082 561.48828 1037.5781 C 572.35071 1047.8481 585.3844 1052.9824 600.5918 1052.9824 C 615.79919 1052.9824 628.83484 1047.8481 639.69727 1037.5781 C 650.55969 1027.3082 655.99023 1014.4713 655.99023 999.06641 L 655.99023 774.50977 L 878.76953 774.50977 C 894.17442 774.50977 907.01132 769.17665 917.28125 758.51172 C 927.55118 747.84679 932.68555 734.8131 932.68555 719.4082 C 932.68555 704.00331 927.55118 691.26383 917.28125 681.19141 C 907.01132 671.11897 894.17442 666.08203 878.76953 666.08203 L 655.99023 666.08203 L 655.99023 440.93359 C 655.99023 425.9237 650.55969 413.18618 639.69727 402.71875 C 628.83484 392.25132 615.79919 387.01758 600.5918 387.01758 z "
       transform="translate(0,-240)"
       id="path4490" />
  </g>
</svg>
