<?xml version="1.0" encoding="UTF-8" standalone="no"?>
<svg
   xmlns:dc="http://purl.org/dc/elements/1.1/"
   xmlns:cc="http://creativecommons.org/ns#"
   xmlns:rdf="http://www.w3.org/1999/02/22-rdf-syntax-ns#"
   xmlns:svg="http://www.w3.org/2000/svg"
   xmlns="http://www.w3.org/2000/svg"
   xmlns:sodipodi="http://sodipodi.sourceforge.net/DTD/sodipodi-0.dtd"
   xmlns:inkscape="http://www.inkscape.org/namespaces/inkscape"
   version="1.1"
   viewBox="0 -240 1200 1200"
   id="svg6"
   sodipodi:docname="add-row-after.svg"
   inkscape:version="0.92.1 r15371">
  <metadata
     id="metadata12">
    <rdf:RDF>
      <cc:Work
         rdf:about="">
        <dc:format>image/svg+xml</dc:format>
        <dc:type
           rdf:resource="http://purl.org/dc/dcmitype/StillImage" />
        <dc:title></dc:title>
      </cc:Work>
    </rdf:RDF>
  </metadata>
  <defs
     id="defs10" />
  <sodipodi:namedview
     pagecolor="#ffffff"
     bordercolor="#666666"
     borderopacity="1"
     objecttolerance="10"
     gridtolerance="10"
     guidetolerance="10"
     inkscape:pageopacity="0"
     inkscape:pageshadow="2"
     inkscape:window-width="1920"
     inkscape:window-height="1017"
     id="namedview8"
     showgrid="false"
     inkscape:zoom="0.19666667"
     inkscape:cx="-729.69553"
     inkscape:cy="899.41557"
     inkscape:window-x="-8"
     inkscape:window-y="-8"
     inkscape:window-maximized="1"
     inkscape:current-layer="layer2"
     showguides="false" />
  <g
     inkscape:groupmode="layer"
     id="layer1"
     inkscape:label="grid"
     style="display:inline" />
  <g
     inkscape:groupmode="layer"
     id="layer2"
     inkscape:label="glyph">
    <path
       style="fill:currentColor"
       d="M 510.99609 377.55859 L 510.99609 755.10547 L 403.21289 634.39062 C 371.59666 597.4366 337.9273 596.20489 302.20508 630.69531 C 288.24466 640.13912 281.26367 657.17843 281.26367 681.81445 C 281.26367 701.93387 287.21759 718.35733 299.125 731.08594 L 597.2207 1062.4414 L 892.85352 731.08594 C 928.16514 697.41671 927.34466 663.95394 890.39062 630.69531 C 854.2578 596.20489 820.17722 597.4366 788.15039 634.39062 L 680.98438 755.10547 L 680.98438 377.55859 L 510.99609 377.55859 z M 54 1154 C 18.666667 1154 1 1171.3333 1 1206 L 1 1267 C 1 1279.6667 6.6666667 1291.6667 18 1303 C 29.333333 1314.3333 41.333333 1320 54 1320 L 1148 1320 C 1162 1320 1174 1314.3333 1184 1303 C 1194 1291.6667 1199 1279.6667 1199 1267 L 1199 1206 C 1199 1171.3333 1182 1154 1148 1154 L 54 1154 z "
       transform="translate(0,-240)"
       id="path4490" />
  </g>
</svg>
