<?xml version="1.0" encoding="UTF-8" standalone="no"?>
<svg
   xmlns:dc="http://purl.org/dc/elements/1.1/"
   xmlns:cc="http://creativecommons.org/ns#"
   xmlns:rdf="http://www.w3.org/1999/02/22-rdf-syntax-ns#"
   xmlns:svg="http://www.w3.org/2000/svg"
   xmlns="http://www.w3.org/2000/svg"
   xmlns:sodipodi="http://sodipodi.sourceforge.net/DTD/sodipodi-0.dtd"
   xmlns:inkscape="http://www.inkscape.org/namespaces/inkscape"
   version="1.1"
   viewBox="0 -240 1200 1200"
   id="svg6"
   sodipodi:docname="add-layer.svg"
   inkscape:version="0.92.1 r15371">
  <metadata
     id="metadata12">
    <rdf:RDF>
      <cc:Work
         rdf:about="">
        <dc:format>image/svg+xml</dc:format>
        <dc:type
           rdf:resource="http://purl.org/dc/dcmitype/StillImage" />
        <dc:title></dc:title>
      </cc:Work>
    </rdf:RDF>
  </metadata>
  <defs
     id="defs10" />
  <sodipodi:namedview
     pagecolor="#ffffff"
     bordercolor="#666666"
     borderopacity="1"
     objecttolerance="10"
     gridtolerance="10"
     guidetolerance="10"
     inkscape:pageopacity="0"
     inkscape:pageshadow="2"
     inkscape:window-width="1920"
     inkscape:window-height="1017"
     id="namedview8"
     showgrid="false"
     inkscape:zoom="0.098333333"
     inkscape:cx="2422.0983"
     inkscape:cy="1622.6074"
     inkscape:window-x="-8"
     inkscape:window-y="-8"
     inkscape:window-maximized="1"
     inkscape:current-layer="layer2" />
  <g
     inkscape:groupmode="layer"
     id="layer2"
     inkscape:label="glyph">
    <path
       style="fill:currentColor;stroke-width:0.83400315"
       d="m 950,-120 c -11.3333,0 -21.1667,4 -29.5,12 -8.3333,8 -12.5,17.3333 -12.5,28 V 90 H 741 c -11.3333,0 -21,3.66667 -29,11 -8,7.33333 -12,16.83333 -12,28.5 0,11.66667 4,21.5 12,29.5 8,8 17.6667,12 29,12 h 167 v 169 c 0,11.33333 4.1667,20.83333 12.5,28.5 8.3333,7.66667 18.1667,11.5 29.5,11.5 11.3333,0 21,-3.83333 29,-11.5 8,-7.66667 12,-17.16667 12,-28.5 V 171 h 169 c 10.6667,0 20,-4 28,-12 8,-8 12,-17.83333 12,-29.5 0,-11.66667 -4,-21.16667 -12,-28.5 -8,-7.33333 -17.3333,-11 -28,-11 H 991 V -80 c 0,-10.6667 -4,-20 -12,-28 -8,-8 -17.6667,-12 -29,-12 z M 403.6582,181.7793 0,602.11523 534.5957,871.5 939.0879,450.32812 Z M 875.7031,600.44727 537.9316,955.7344 84.2344,729.71875 6.6719,799.7754 557.1133,1080 970.7793,652.99023 Z"
       id="path4959"
       inkscape:connector-curvature="0" />
  </g>
</svg>
