<?xml version="1.0" encoding="UTF-8" standalone="no"?>
<svg
   xmlns:dc="http://purl.org/dc/elements/1.1/"
   xmlns:cc="http://creativecommons.org/ns#"
   xmlns:rdf="http://www.w3.org/1999/02/22-rdf-syntax-ns#"
   xmlns:svg="http://www.w3.org/2000/svg"
   xmlns="http://www.w3.org/2000/svg"
   xmlns:sodipodi="http://sodipodi.sourceforge.net/DTD/sodipodi-0.dtd"
   xmlns:inkscape="http://www.inkscape.org/namespaces/inkscape"
   version="1.1"
   viewBox="0 -240 1200 1200"
   id="svg6"
   sodipodi:docname="add-row-after1.svg"
   inkscape:version="0.92.1 r15371">
  <metadata
     id="metadata12">
    <rdf:RDF>
      <cc:Work
         rdf:about="">
        <dc:format>image/svg+xml</dc:format>
        <dc:type
           rdf:resource="http://purl.org/dc/dcmitype/StillImage" />
        <dc:title></dc:title>
      </cc:Work>
    </rdf:RDF>
  </metadata>
  <defs
     id="defs10" />
  <sodipodi:namedview
     pagecolor="#ffffff"
     bordercolor="#666666"
     borderopacity="1"
     objecttolerance="10"
     gridtolerance="10"
     guidetolerance="10"
     inkscape:pageopacity="0"
     inkscape:pageshadow="2"
     inkscape:window-width="1920"
     inkscape:window-height="1017"
     id="namedview8"
     showgrid="false"
     inkscape:zoom="0.19666667"
     inkscape:cx="-729.69553"
     inkscape:cy="899.41557"
     inkscape:window-x="-8"
     inkscape:window-y="-8"
     inkscape:window-maximized="1"
     inkscape:current-layer="layer2"
     showguides="false" />
  <g
     inkscape:groupmode="layer"
     id="layer2"
     inkscape:label="glyph">
    <path
       inkscape:connector-curvature="0"
       style="fill:currentColor"
       d="m 1148,1080 c 14,0 26,-5.6667 36,-17 10,-11.3333 15,-23.3333 15,-36 v -61 c 0,-34.6667 -17,-52 -51,-52 H 54 C 18.6667,914 1,931.3333 1,966 v 61 c 0,12.6667 5.6667,24.6667 17,36 11.3333,11.3333 23.3333,17 36,17 z M 599.4082,812.98242 c 15.2074,0 28.24109,-5.23374 39.10352,-15.70117 10.86242,-10.46743 16.29492,-23.20495 16.29492,-38.21484 V 533.91797 h 224.55469 c 13.8249,0 26.16882,-5.03694 37.03125,-15.10938 10.86242,-10.07242 16.29297,-22.8119 16.29297,-38.21679 0,-15.4049 -5.43055,-28.43859 -16.29297,-39.10352 -10.86243,-10.66493 -23.20635,-15.99805 -37.03125,-15.99805 H 654.80664 V 200.93359 c 0,-15.40489 -5.4325,-28.24179 -16.29492,-38.51169 -10.86243,-10.27 -23.89612,-15.4043 -39.10352,-15.4043 -15.20739,0 -28.24304,5.1343 -39.10547,15.4043 -10.86242,10.2699 -16.29296,23.1068 -16.29296,38.51169 v 224.55664 h -222.7793 c -15.40489,0 -28.24179,5.33312 -38.51172,15.99805 -10.26993,10.66493 -15.4043,23.69862 -15.4043,39.10352 0,15.40489 5.13437,28.14437 15.4043,38.21679 10.26993,10.07244 23.10683,15.10938 38.51172,15.10938 h 222.7793 v 225.14844 c 0,15.00989 5.43054,27.74741 16.29296,38.21484 10.86243,10.46743 23.89808,15.70117 39.10547,15.70117 z"
       id="path4490" />
  </g>
</svg>
