<?xml version="1.0" standalone="no"?>
<!DOCTYPE svg PUBLIC "-//W3C//DTD SVG 1.1//EN" "http://www.w3.org/Graphics/SVG/1.1/DTD/svg11.dtd" >
<svg xmlns="http://www.w3.org/2000/svg" xmlns:xlink="http://www.w3.org/1999/xlink" version="1.1" viewBox="0 -240 1200 1200">
  <g transform="matrix(1 0 0 -1 0 960)">
   <path fill="currentColor"
d="M878 596q0 -7 70 -170.5t70 -298.5h-836q0 135 69.5 298.5t69.5 170.5q33 146 41 202q0 85 56 147t138 81v65q0 41 43.5 41t43.5 -41v-65q82 -19 136.5 -81t54.5 -147zM702 57v-8q0 -49 -29.5 -78.5t-73 -29.5t-73 29.5t-29.5 78.5v8h205z" />
  </g>

</svg>
