<?xml version="1.0" encoding="UTF-8" standalone="no"?>
<svg
   xmlns:dc="http://purl.org/dc/elements/1.1/"
   xmlns:cc="http://creativecommons.org/ns#"
   xmlns:rdf="http://www.w3.org/1999/02/22-rdf-syntax-ns#"
   xmlns:svg="http://www.w3.org/2000/svg"
   xmlns="http://www.w3.org/2000/svg"
   xmlns:sodipodi="http://sodipodi.sourceforge.net/DTD/sodipodi-0.dtd"
   xmlns:inkscape="http://www.inkscape.org/namespaces/inkscape"
   version="1.1"
   viewBox="0 -240 1200 1200"
   id="svg6"
   sodipodi:docname="bulb-on.svg"
   inkscape:version="0.92.1 r15371">
  <metadata
     id="metadata12">
    <rdf:RDF>
      <cc:Work
         rdf:about="">
        <dc:format>image/svg+xml</dc:format>
        <dc:type
           rdf:resource="http://purl.org/dc/dcmitype/StillImage" />
        <dc:title></dc:title>
      </cc:Work>
    </rdf:RDF>
  </metadata>
  <defs
     id="defs10" />
  <sodipodi:namedview
     pagecolor="#ffffff"
     bordercolor="#666666"
     borderopacity="1"
     objecttolerance="10"
     gridtolerance="10"
     guidetolerance="10"
     inkscape:pageopacity="0"
     inkscape:pageshadow="2"
     inkscape:window-width="1920"
     inkscape:window-height="1017"
     id="namedview8"
     showgrid="false"
     inkscape:zoom="0.098333333"
     inkscape:cx="2422.0983"
     inkscape:cy="1622.6074"
     inkscape:window-x="-8"
     inkscape:window-y="-8"
     inkscape:window-maximized="1"
     inkscape:current-layer="layer2" />
  <g
     inkscape:groupmode="layer"
     id="layer2"
     inkscape:label="glyph">
    <path
       style="fill:#000000;fill-opacity:1;stroke-width:0.82122588"
       d="M 573.85547 120 L 573.85547 268.17383 C 582.55859 267.59321 591.27773 267.28421 600 267.24805 C 608.7269 267.41199 617.44695 267.84979 626.14648 268.55859 L 626.14648 120 L 573.85547 120 z M 218.19336 267.32031 L 181.21875 304.29492 L 286.17773 409.25391 C 297.75906 396.20515 310.1449 383.89274 323.26172 372.38867 L 218.19336 267.32031 z M 981.80664 267.32031 L 876.84766 372.2793 C 889.89653 383.86106 902.20894 396.2459 913.71289 409.36328 L 1018.7812 304.29492 L 981.80664 267.32031 z M 599.99805 337.68555 C 407.57345 337.68594 251.58243 493.6769 251.58203 686.10156 C 251.64103 824.98812 334.18084 950.57485 461.64844 1005.7246 L 461.64844 1075.1973 C 461.64844 1095.5296 485.13329 1111.8984 514.30469 1111.8984 L 685.69336 1111.8984 C 714.86476 1111.8984 738.35156 1095.5296 738.35156 1075.1973 L 738.35156 1005.4258 C 865.72006 950.31962 948.23967 824.87984 948.41797 686.10156 C 948.41757 493.67635 792.42325 337.68515 599.99805 337.68555 z M 599.21484 429.39648 C 614.19494 429.52348 629.17437 430.85818 644.01367 433.18164 C 734.36317 447.46759 812.74009 516.29325 842.90039 601.97656 C 877.75199 697.98592 845.22875 812.74253 768.37695 879.67188 C 743.91505 905.34693 707.60835 913.30912 680.25195 935.12305 C 654.86505 955.11071 645.53128 988.95325 645.48828 1020.0625 C 615.16668 1020.7087 584.85145 1019.4023 554.53125 1019.3047 C 555.67565 991.68886 549.37187 961.66899 529.16797 941.53516 C 494.54147 919.86802 456.91495 902.33173 426.34375 874.7207 C 354.63755 810.88564 326.71734 704.30861 353.36914 612.9082 C 383.41164 509.2041 485.20078 431.45432 592.79688 429.41602 C 594.93657 429.38422 597.07484 429.37828 599.21484 429.39648 z M 33.898438 659.95703 L 33.898438 712.24805 L 182.07227 712.24805 C 181.49159 703.54445 181.18262 694.82443 181.14648 686.10156 C 181.31 677.37517 181.74673 668.65617 182.45508 659.95703 L 33.898438 659.95703 z M 1017.9277 659.95703 C 1018.5083 668.66016 1018.8173 677.37916 1018.8535 686.10156 C 1018.69 694.82843 1018.2532 703.54845 1017.5449 712.24805 L 1166.1016 712.24805 L 1166.1016 659.95703 L 1017.9277 659.95703 z M 286.28711 962.83984 L 181.21875 1067.9082 L 218.19336 1104.8828 L 323.1543 999.92383 C 310.10504 988.34256 297.79163 975.95677 286.28711 962.83984 z M 913.82227 962.94727 C 902.24104 975.99701 889.85519 988.31141 876.73828 999.81641 L 981.80664 1104.8828 L 1018.7812 1067.9082 L 913.82227 962.94727 z M 514.30469 1180.916 C 485.13329 1180.916 461.64844 1187.22 461.64844 1195.0508 L 461.64844 1248.8184 C 461.64844 1256.3705 483.49344 1262.5029 511.21484 1262.9297 L 511.21484 1305.084 C 511.21484 1313.3464 526.28556 1320 545.00586 1320 L 654.99219 1320 C 673.71239 1320 688.78516 1313.3464 688.78516 1305.084 L 688.78516 1262.9297 C 716.50586 1262.5026 738.35156 1256.3704 738.35156 1248.8184 L 738.35156 1195.0508 C 738.35156 1187.22 714.86476 1180.916 685.69336 1180.916 L 514.30469 1180.916 z "
       transform="translate(0,-240)"
       id="path5023" />
  </g>
</svg>
