<?xml version="1.0" encoding="UTF-8" standalone="no"?>
<svg
   xmlns:dc="http://purl.org/dc/elements/1.1/"
   xmlns:cc="http://creativecommons.org/ns#"
   xmlns:rdf="http://www.w3.org/1999/02/22-rdf-syntax-ns#"
   xmlns:svg="http://www.w3.org/2000/svg"
   xmlns="http://www.w3.org/2000/svg"
   xmlns:sodipodi="http://sodipodi.sourceforge.net/DTD/sodipodi-0.dtd"
   xmlns:inkscape="http://www.inkscape.org/namespaces/inkscape"
   version="1.1"
   viewBox="0 -240 1200 1200"
   id="svg6"
   sodipodi:docname="dashboard-save.svg"
   inkscape:version="0.92.1 r15371">
  <metadata
     id="metadata12">
    <rdf:RDF>
      <cc:Work
         rdf:about="">
        <dc:format>image/svg+xml</dc:format>
        <dc:type
           rdf:resource="http://purl.org/dc/dcmitype/StillImage" />
        <dc:title></dc:title>
      </cc:Work>
    </rdf:RDF>
  </metadata>
  <defs
     id="defs10" />
  <sodipodi:namedview
     pagecolor="#ffffff"
     bordercolor="#666666"
     borderopacity="1"
     objecttolerance="10"
     gridtolerance="10"
     guidetolerance="10"
     inkscape:pageopacity="0"
     inkscape:pageshadow="2"
     inkscape:window-width="1920"
     inkscape:window-height="1017"
     id="namedview8"
     showgrid="false"
     inkscape:zoom="0.39333333"
     inkscape:cx="-5.9651367"
     inkscape:cy="506.1758"
     inkscape:window-x="-8"
     inkscape:window-y="-8"
     inkscape:window-maximized="1"
     inkscape:current-layer="layer2" />
  <g
     inkscape:groupmode="layer"
     id="layer2"
     inkscape:label="glyph">
    <path
       style="fill:currentColor;stroke-width:0.5"
       d="M 488.85742 120.50195 C 355.55721 120.50195 240.75572 168.38015 144.45312 264.13867 C 48.150529 359.89719 0 474.69868 0 608.54297 C 0 685.2586 18.498484 757.35017 55.496094 824.81641 C 95.214118 906.97286 153.9755 972.67065 231.7793 1021.9102 C 309.5831 1071.1496 395.41141 1095.7695 489.26562 1095.7695 C 517.08844 1095.7695 544.20099 1093.5889 570.61328 1089.2617 C 570.12048 1001.1159 570.24966 912.9622 570.15039 824.81641 L 124.86719 824.81641 C 85.149164 755.71793 65.289062 683.62636 65.289062 608.54297 C 65.289062 492.10932 106.77547 392.40617 189.74805 309.43359 C 272.72063 226.46101 372.15144 184.97461 488.04102 184.97461 C 603.93058 184.97461 703.36336 226.46101 786.33594 309.43359 C 869.30852 392.40617 910.79492 492.10932 910.79492 608.54297 C 910.79492 644.01994 906.41579 678.82795 897.66992 712.96875 C 919.82557 713.01145 941.98116 713.05656 964.13672 713.07812 C 972.09965 679.24352 976.08398 644.39803 976.08398 608.54297 C 976.08398 474.69868 928.20383 359.89719 832.44531 264.13867 C 736.6868 168.38015 622.15764 120.50195 488.85742 120.50195 z M 381.12891 248.63281 C 370.24725 248.63281 360.59148 252.98609 352.1582 261.69141 C 343.72492 270.39673 339.50781 280.46099 339.50781 291.88672 C 339.50781 304.40062 343.72492 314.73915 352.1582 322.90039 C 360.59148 331.06163 370.24725 335.14258 381.12891 335.14258 C 409.42119 335.14258 423.56836 320.72309 423.56836 291.88672 C 423.56836 263.05035 409.42119 248.63281 381.12891 248.63281 z M 593.32227 248.63281 C 581.89653 248.63281 571.96648 252.98609 563.5332 261.69141 C 555.09992 270.39673 550.88281 280.46099 550.88281 291.88672 C 550.88281 304.40062 555.09992 314.73915 563.5332 322.90039 C 571.96648 331.06163 581.89653 335.14258 593.32227 335.14258 C 605.83616 335.14258 616.30891 331.06163 624.74219 322.90039 C 633.17547 314.73915 637.39258 304.40062 637.39258 291.88672 C 637.39258 263.05035 622.70272 248.63281 593.32227 248.63281 z M 709.21094 299.23242 L 569.6543 504.89648 L 439.89062 696.68555 C 438.25838 698.31779 436.49022 699.94978 434.58594 701.58203 C 432.68165 703.21428 431.72852 705.11859 431.72852 707.29492 C 424.11136 721.98515 423.16019 737.89851 428.87305 755.03711 C 434.58591 772.1757 445.33097 785.64206 461.10938 795.43555 C 475.25552 801.96454 490.89851 802.50919 508.03711 797.06836 C 525.1757 791.62753 537.2824 781.28899 544.35547 766.05469 C 548.70813 758.43753 550.88281 752.99692 550.88281 749.73242 L 625.9668 531.82812 L 709.21094 299.23242 z M 215.45703 380.0293 C 186.07657 380.0293 171.38672 395.2638 171.38672 425.73242 C 171.38672 437.15816 175.3315 446.95205 183.2207 455.11328 C 191.1099 463.27452 201.85496 467.35352 215.45703 467.35352 C 227.42684 467.35352 237.3569 463.27452 245.24609 455.11328 C 253.13529 446.95205 257.07812 437.15816 257.07812 425.73242 C 257.07813 412.13036 253.13529 401.11296 245.24609 392.67969 C 237.3569 384.24641 227.42684 380.0293 215.45703 380.0293 z M 763.89258 380.0293 C 735.0562 380.0293 720.63672 394.03835 720.63672 422.05859 C 720.63672 450.07884 734.92003 464.08984 763.48438 464.08984 C 792.04869 464.08984 806.33008 450.215 806.33008 422.4668 C 806.33008 411.04106 802.24912 401.11296 794.08789 392.67969 C 785.92665 384.24641 775.86239 380.0293 763.89258 380.0293 z M 812.04297 560.39258 C 801.7054 560.39258 792.04767 564.47353 783.07031 572.63477 C 774.09295 580.79601 769.60547 590.86026 769.60547 602.83008 C 769.60547 630.57828 783.75068 644.45312 812.04297 644.45312 C 841.96751 644.45312 856.92969 630.57828 856.92969 602.83008 C 856.92969 590.86026 852.9849 580.79601 845.0957 572.63477 C 837.20651 564.47353 826.18912 560.39258 812.04297 560.39258 z M 159.14453 566.92188 C 148.26288 566.92187 138.33283 571.00282 129.35547 579.16406 C 120.37811 587.3253 115.88867 596.98108 115.88867 608.13477 C 115.88867 619.28846 120.37811 629.21851 129.35547 637.92383 C 138.33283 646.62915 148.26288 650.98242 159.14453 650.98242 C 186.34866 650.98242 199.95117 636.97142 199.95117 608.95117 C 199.95117 580.93092 186.34866 566.92188 159.14453 566.92188 z M 635 743 C 626.33333 743 618.33333 746 611 752 C 603.66667 758 600 766.5 600 777.5 C 600 1003.5 600.83333 1172.8333 602.5 1285.5 L 602.5 1296.5 C 605.83333 1312.1667 616.66667 1320 635 1320 L 900 1320 L 1165.5 1320 C 1174.8333 1320 1182.9167 1317 1189.75 1311 C 1196.5833 1305 1200 1297.1667 1200 1287.5 C 1200 1087.5 1199.3333 938.16667 1198 839.5 C 1198 835.5 1197.5 833 1196.5 832 C 1157.8333 793 1128 763.66667 1107 744 L 1101 743 L 635 743 z M 774.5 779 L 1027.5 779 C 1036.5 779 1044.1667 782.08333 1050.5 788.25 C 1056.8333 794.41667 1060 802.33333 1060 812 L 1060 921 C 1060 930.33333 1056.8333 938 1050.5 944 C 1044.1667 950 1036.5 953 1027.5 953 L 774.5 953 C 764.83333 953 756.83333 950 750.5 944 C 744.16667 938 741 930.33333 741 921 L 741 812 C 741 802.33333 744.16667 794.41667 750.5 788.25 C 756.83333 782.08333 764.83333 779 774.5 779 z M 941.5 805 L 941.5 928 L 1001.5 928 L 1001.5 805 L 941.5 805 z M 686 1011 L 1114.5 1011 L 1114.5 1260.5 L 686 1260.5 L 686 1011 z "
       transform="translate(0,-240)"
       id="path4512" />
  </g>
</svg>
