<?xml version="1.0" encoding="UTF-8" standalone="no"?>
<svg
   xmlns:dc="http://purl.org/dc/elements/1.1/"
   xmlns:cc="http://creativecommons.org/ns#"
   xmlns:rdf="http://www.w3.org/1999/02/22-rdf-syntax-ns#"
   xmlns:svg="http://www.w3.org/2000/svg"
   xmlns="http://www.w3.org/2000/svg"
   xmlns:sodipodi="http://sodipodi.sourceforge.net/DTD/sodipodi-0.dtd"
   xmlns:inkscape="http://www.inkscape.org/namespaces/inkscape"
   version="1.1"
   viewBox="0 -240 1200 1200"
   id="svg6"
   sodipodi:docname="ext-json.svg"
   inkscape:version="0.92.1 r15371">
  <metadata
     id="metadata12">
    <rdf:RDF>
      <cc:Work
         rdf:about="">
        <dc:format>image/svg+xml</dc:format>
        <dc:type
           rdf:resource="http://purl.org/dc/dcmitype/StillImage" />
        <dc:title></dc:title>
      </cc:Work>
    </rdf:RDF>
  </metadata>
  <defs
     id="defs10" />
  <sodipodi:namedview
     pagecolor="#ffffff"
     bordercolor="#666666"
     borderopacity="1"
     objecttolerance="10"
     gridtolerance="10"
     guidetolerance="10"
     inkscape:pageopacity="0"
     inkscape:pageshadow="2"
     inkscape:window-width="1920"
     inkscape:window-height="1017"
     id="namedview8"
     showgrid="false"
     inkscape:zoom="0.017383042"
     inkscape:cx="1653.105"
     inkscape:cy="-9545.7689"
     inkscape:window-x="-8"
     inkscape:window-y="-8"
     inkscape:window-maximized="1"
     inkscape:current-layer="layer1" />
  <g
     inkscape:groupmode="layer"
     id="layer1"
     inkscape:label="grid"
     style="display:inline" />
  <g
     inkscape:groupmode="layer"
     id="layer2"
     inkscape:label="glyph"
     style="display:inline">
    <flowRoot
       xml:space="preserve"
       id="flowRoot4687"
       style="fill:black;fill-opacity:1;stroke:none;font-family:sans-serif;font-style:normal;font-weight:normal;font-size:40px;line-height:1.25;letter-spacing:0px;word-spacing:0px"><flowRegion
         id="flowRegion4689"><rect
           id="rect4691"
           width="920.33899"
           height="132.20338"
           x="1306.7797"
           y="1515.2543" /></flowRegion><flowPara
         id="flowPara4693"></flowPara></flowRoot>    <flowRoot
       xml:space="preserve"
       id="flowRoot4695"
       style="fill:black;fill-opacity:1;stroke:none;font-family:sans-serif;font-style:normal;font-weight:normal;font-size:40px;line-height:1.25;letter-spacing:0px;word-spacing:0px"><flowRegion
         id="flowRegion4697"><rect
           id="rect4699"
           width="177.96609"
           height="45.762711"
           x="1347.4576"
           y="1718.644" /></flowRegion><flowPara
         id="flowPara4701"></flowPara></flowRoot>    <path
       style="display:inline;fill:currentColor"
       d="m 445.5,-69.999998 c -51.3333,0 -96.0001,18.6667 -134,56 -38,37.3333 -57,82.6667 -57,135.999998 v 206 h -232 v 515 h 232 c 0,50 19,93.6667 57,131 37.9999,37.3333 82.6667,56 134,56 h 538 c 54.6667,0 100.6667,-18.6667 138,-56 37.3333,-37.3333 56,-82.3333 56,-135 V 248 l -262,-317.999998 z m 0,94 h 407 V 192 c 0,24 8.1667,44.3333 24.5,61 16.3334,16.6667 36.8334,25 61.5,25 h 143 v 4 557 c 0,26 -9.6667,48.6667 -29,68 -19.3333,19.3333 -42.3333,29 -69,29 h -538 c -26,0 -48.1666,-9.6667 -66.5,-29 -18.3333,-19.3333 -27.5,-40.6667 -27.5,-64 h 654 V 328 h -654 V 122 c 0,-25.999998 9.1667,-48.833298 27.5,-68.499998 18.3334,-19.6667 40.5,-29.5 66.5,-29.5 z M 372.9805,469.6133 c 28.1121,0 49.2479,6.1616 63.4062,18.4863 14.2595,12.3247 21.7461,28.7747 22.459,49.3496 l -45.2246,1.9863 c -1.9353,-11.5095 -6.1122,-19.7606 -12.5293,-24.7519 -6.3149,-5.0925 -15.8384,-7.6387 -28.5703,-7.6387 -13.1393,0 -23.4258,2.6996 -30.8614,8.0977 -4.7873,3.4633 -7.1816,8.0984 -7.1816,13.9043 0,5.2964 2.2409,9.8292 6.7227,13.5976 5.7036,4.7874 19.5574,9.778 41.5586,14.9727 22.0006,5.1947 38.2466,10.5933 48.7382,16.1953 10.5928,5.5003 18.8424,13.0872 24.75,22.7637 6.0098,9.5742 9.0137,21.4412 9.0137,35.5996 0,12.8336 -3.5634,24.8526 -10.6934,36.0566 -7.1299,11.2045 -17.2143,19.5563 -30.2519,25.0567 -13.0376,5.398 -29.2836,8.0976 -48.7383,8.0976 -28.316,0 -50.062,-6.519 -65.2383,-19.5566 -15.1767,-13.1393 -24.2415,-32.2364 -27.1953,-57.293 l 44,-4.2793 c 2.6482,14.769 7.9962,25.6164 16.043,32.543 8.1485,6.9261 19.0991,10.3906 32.8496,10.3906 14.5656,0 25.5143,-3.0564 32.8477,-9.168 7.4355,-6.2131 11.1523,-13.4451 11.1523,-21.6953 0,-5.2964 -1.5786,-9.7781 -4.7363,-13.4453 -3.0555,-3.7684 -8.4522,-7.0269 -16.1934,-9.7773 -5.2964,-1.8331 -17.3675,-5.0937 -36.2109,-9.7793 -24.2416,-6.0093 -41.2512,-13.3926 -51.0293,-22.1524 -13.7505,-12.3246 -20.625,-27.3495 -20.625,-45.0722 0,-11.4079 3.2084,-22.0518 9.625,-31.9317 6.5188,-9.982 15.8377,-17.5709 27.959,-22.7656 12.2224,-5.1947 26.9405,-7.791 44.1543,-7.791 z m 229.7871,0 c 33.0012,0 59.3823,10.2358 79.1425,30.709 19.862,20.4732 29.793,48.9417 29.793,85.4062 0,36.1584 -9.8297,64.4741 -29.4883,84.9473 -19.658,20.3714 -45.9364,30.5586 -78.8359,30.5586 -33.3068,0 -59.7892,-10.1351 -79.4473,-30.4043 -19.6585,-20.3715 -29.4883,-48.3819 -29.4883,-84.0313 0,-22.8157 3.412,-41.9648 10.2364,-57.4472 5.093,-11.4079 12.0196,-21.6438 20.7793,-30.709 8.8613,-9.0648 18.5382,-15.7879 29.0293,-20.168 13.9543,-5.9076 30.047,-8.8613 48.2793,-8.8613 z m -401.5157,3.8203 h 45.0704 v 141.7832 c 0,18.5379 -1.6293,32.7978 -4.8887,42.7793 -4.3801,13.0376 -12.3244,23.5276 -23.834,31.4726 -11.5096,7.8429 -26.6858,11.7657 -45.5293,11.7657 -22.1028,0 -39.1124,-6.1636 -51.0293,-18.4883 -11.9174,-12.4263 -17.9276,-30.6065 -18.0293,-54.543 l 42.627,-4.8886 c 0.511,12.8341 2.395,21.8989 5.6523,27.1953 4.8891,8.0468 12.3246,12.0703 22.3066,12.0703 10.0838,0 17.2145,-2.8525 21.3907,-8.5567 4.1762,-5.8058 6.2636,-17.7742 6.2636,-35.9043 z m 546.0489,0 h 44.0019 l 91.6699,149.5742 V 473.4336 h 42.0157 v 223.9805 h -45.377 L 789.3164,551.3516 v 146.0625 h -42.0156 z m -144.0742,34.834 c -18.6396,0 -33.6644,6.4163 -45.0723,19.25 -11.4079,12.7324 -17.1113,31.9843 -17.1113,57.7539 0,25.3617 5.8568,44.6121 17.5703,57.7519 11.7129,13.0376 26.5844,19.5567 44.6133,19.5567 18.0283,0 32.797,-6.4685 44.3066,-19.4043 11.6118,-13.0376 17.418,-32.5422 17.418,-58.5156 0,-25.6674 -5.6528,-44.817 -16.959,-57.4473 -11.204,-12.6303 -26.1261,-18.9453 -44.7656,-18.9453 z"
       id="path4632-3"
       inkscape:connector-curvature="0" />
  </g>
</svg>
