<?xml version="1.0" encoding="UTF-8" standalone="no"?>
<svg
   xmlns:dc="http://purl.org/dc/elements/1.1/"
   xmlns:cc="http://creativecommons.org/ns#"
   xmlns:rdf="http://www.w3.org/1999/02/22-rdf-syntax-ns#"
   xmlns:svg="http://www.w3.org/2000/svg"
   xmlns="http://www.w3.org/2000/svg"
   xmlns:sodipodi="http://sodipodi.sourceforge.net/DTD/sodipodi-0.dtd"
   xmlns:inkscape="http://www.inkscape.org/namespaces/inkscape"
   version="1.1"
   viewBox="0 -240 1200 1200"
   id="svg6"
   sodipodi:docname="ext-html.svg"
   inkscape:version="0.92.1 r15371">
  <metadata
     id="metadata12">
    <rdf:RDF>
      <cc:Work
         rdf:about="">
        <dc:format>image/svg+xml</dc:format>
        <dc:type
           rdf:resource="http://purl.org/dc/dcmitype/StillImage" />
        <dc:title></dc:title>
      </cc:Work>
    </rdf:RDF>
  </metadata>
  <defs
     id="defs10" />
  <sodipodi:namedview
     pagecolor="#ffffff"
     bordercolor="#666666"
     borderopacity="1"
     objecttolerance="10"
     gridtolerance="10"
     guidetolerance="10"
     inkscape:pageopacity="0"
     inkscape:pageshadow="2"
     inkscape:window-width="1920"
     inkscape:window-height="1017"
     id="namedview8"
     showgrid="false"
     inkscape:zoom="0.024583333"
     inkscape:cx="963.90896"
     inkscape:cy="-8890.1229"
     inkscape:window-x="-8"
     inkscape:window-y="-8"
     inkscape:window-maximized="1"
     inkscape:current-layer="layer1" />
  <g
     inkscape:groupmode="layer"
     id="layer1"
     inkscape:label="grid"
     style="display:inline" />
  <g
     inkscape:groupmode="layer"
     id="layer2"
     inkscape:label="glyph"
     style="display:inline">
    <path
       style="fill:currentColor"
       d="m 445.5,-69.99998 c -51.3334,0 -96,18.6667 -134,56 -38,37.3333 -57,82.66663 -57,135.99996 v 206 h -232 v 515 h 232 c 0,50 19,93.6667 57,131 38,37.33332 82.6666,56.00002 134,56.00002 h 538 c 54.6667,0 100.6667,-18.6667 138,-56.00002 37.3333,-37.3333 56,-82.3333 56,-135 v -591 l -262,-317.99996 z m 0,94 h 407 v 167.99996 c 0,24 8.1666,44.33333 24.5,61 16.3333,16.66667 36.8333,25 61.5,25 h 143 v 4 557 c 0,26 -9.6667,48.6667 -29,68 -19.3333,19.3333 -42.3333,29 -69,29 h -538 c -26,0 -48.1667,-9.6667 -66.5,-29 -18.3334,-19.3333 -27.5,-40.6667 -27.5,-64 h 654 v -515 h -654 v -206 c 0,-26 9.1666,-48.83333 27.5,-68.5 18.3333,-19.66666 40.5,-29.49996 66.5,-29.49996 z M 95.7539,473.50975 h 45.2246 V 561.666 h 88.6133 v -88.15625 h 45.2246 v 223.98046 h -45.2246 v -97.93359 h -88.6133 v 97.93359 H 95.7539 Z m 209.9258,0 h 177.9922 v 37.88867 H 417.3633 V 697.49021 H 372.1406 V 511.39842 h -66.4609 z m 206.1054,0 h 67.6836 l 40.6387,152.7832 40.1836,-152.7832 h 67.8359 v 223.98046 h -42.0156 v -176.3125 l -44.4609,176.3125 h -43.543 l -44.3086,-176.3125 v 176.3125 h -42.0137 z m 262.7871,1.83203 h 45.2247 v 184.41015 h 112.4492 v 37.73828 H 774.5722 Z"
       id="path4632"
       inkscape:connector-curvature="0" />
    <flowRoot
       xml:space="preserve"
       id="flowRoot4687"
       style="fill:black;fill-opacity:1;stroke:none;font-family:sans-serif;font-style:normal;font-weight:normal;font-size:40px;line-height:1.25;letter-spacing:0px;word-spacing:0px"><flowRegion
         id="flowRegion4689"><rect
           id="rect4691"
           width="920.33899"
           height="132.20338"
           x="1306.7797"
           y="1515.2543" /></flowRegion><flowPara
         id="flowPara4693"></flowPara></flowRoot>    <flowRoot
       xml:space="preserve"
       id="flowRoot4695"
       style="fill:black;fill-opacity:1;stroke:none;font-family:sans-serif;font-style:normal;font-weight:normal;font-size:40px;line-height:1.25;letter-spacing:0px;word-spacing:0px"><flowRegion
         id="flowRegion4697"><rect
           id="rect4699"
           width="177.96609"
           height="45.762711"
           x="1347.4576"
           y="1718.644" /></flowRegion><flowPara
         id="flowPara4701"></flowPara></flowRoot>  </g>
</svg>
