<?xml version="1.0" encoding="UTF-8" standalone="no"?>
<svg
   xmlns:dc="http://purl.org/dc/elements/1.1/"
   xmlns:cc="http://creativecommons.org/ns#"
   xmlns:rdf="http://www.w3.org/1999/02/22-rdf-syntax-ns#"
   xmlns:svg="http://www.w3.org/2000/svg"
   xmlns="http://www.w3.org/2000/svg"
   xmlns:sodipodi="http://sodipodi.sourceforge.net/DTD/sodipodi-0.dtd"
   xmlns:inkscape="http://www.inkscape.org/namespaces/inkscape"
   version="1.1"
   viewBox="0 -240 1200 1200"
   id="svg6"
   sodipodi:docname="ext-empty.svg"
   inkscape:version="0.92.1 r15371">
  <metadata
     id="metadata12">
    <rdf:RDF>
      <cc:Work
         rdf:about="">
        <dc:format>image/svg+xml</dc:format>
        <dc:type
           rdf:resource="http://purl.org/dc/dcmitype/StillImage" />
        <dc:title></dc:title>
      </cc:Work>
    </rdf:RDF>
  </metadata>
  <defs
     id="defs10" />
  <sodipodi:namedview
     pagecolor="#ffffff"
     bordercolor="#666666"
     borderopacity="1"
     objecttolerance="10"
     gridtolerance="10"
     guidetolerance="10"
     inkscape:pageopacity="0"
     inkscape:pageshadow="2"
     inkscape:window-width="1920"
     inkscape:window-height="1017"
     id="namedview8"
     showgrid="false"
     inkscape:zoom="0.049166667"
     inkscape:cx="3175.8212"
     inkscape:cy="141.41295"
     inkscape:window-x="-8"
     inkscape:window-y="-8"
     inkscape:window-maximized="1"
     inkscape:current-layer="layer1" />
  <g
     inkscape:groupmode="layer"
     id="layer1"
     inkscape:label="grid"
     style="display:inline" />
  <g
     inkscape:groupmode="layer"
     id="layer2"
     inkscape:label="glyph"
     style="display:inline">
    <flowRoot
       xml:space="preserve"
       id="flowRoot4687"
       style="fill:black;fill-opacity:1;stroke:none;font-family:sans-serif;font-style:normal;font-weight:normal;font-size:40px;line-height:1.25;letter-spacing:0px;word-spacing:0px"><flowRegion
         id="flowRegion4689"><rect
           id="rect4691"
           width="920.33899"
           height="132.20338"
           x="1306.7797"
           y="1515.2543" /></flowRegion><flowPara
         id="flowPara4693"></flowPara></flowRoot>    <flowRoot
       xml:space="preserve"
       id="flowRoot4695"
       style="fill:black;fill-opacity:1;stroke:none;font-family:sans-serif;font-style:normal;font-weight:normal;font-size:40px;line-height:1.25;letter-spacing:0px;word-spacing:0px"><flowRegion
         id="flowRegion4697"><rect
           id="rect4699"
           width="177.96609"
           height="45.762711"
           x="1347.4576"
           y="1718.644" /></flowRegion><flowPara
         id="flowPara4701"></flowPara></flowRoot>    <path
       style="display:inline;fill:currentColor"
       d="m 445.5,-69.999975 c -51.3333,0 -96.0001,18.6667 -134,56 -38,37.3332 -57,82.6666 -57,136.000005 v 205.99995 h -232 v 515.00001 h 232 c 0,50.0001 19,93.6667 57,131 C 349.4999,1011.3333 394.1667,1030 445.5,1030 h 538 c 54.6667,0 100.6667,-18.6667 138,-56.00001 37.3333,-37.3333 56,-82.33321 56,-135 V 247.99998 l -262,-317.999955 z m 0,93.9999 h 407 V 191.99999 c 0,24 8.1667,44.33329 24.5,60.99999 16.3334,16.6667 36.8334,25 61.5,25 h 143 v 4 557.00001 c 0,26 -9.6667,48.6667 -29,68 -19.3333,19.3333 -42.3333,29 -69,29 h -538 c -26,0 -48.1666,-9.6667 -66.5,-29 -18.3333,-19.3333 -27.5,-40.6667 -27.5,-64 h 654 V 327.99998 h -654 V 122.00003 c 0,-26.000005 9.1667,-48.833405 27.5,-68.500105 18.3334,-19.6667 40.5,-29.5 66.5,-29.5 z"
       id="path4632-3-0-3"
       inkscape:connector-curvature="0" />
  </g>
</svg>
