<?xml version="1.0" encoding="UTF-8" standalone="no"?>
<svg
   xmlns:dc="http://purl.org/dc/elements/1.1/"
   xmlns:cc="http://creativecommons.org/ns#"
   xmlns:rdf="http://www.w3.org/1999/02/22-rdf-syntax-ns#"
   xmlns:svg="http://www.w3.org/2000/svg"
   xmlns="http://www.w3.org/2000/svg"
   xmlns:sodipodi="http://sodipodi.sourceforge.net/DTD/sodipodi-0.dtd"
   xmlns:inkscape="http://www.inkscape.org/namespaces/inkscape"
   version="1.1"
   viewBox="0 -240 1200 1200"
   id="svg6"
   sodipodi:docname="ext-txt.svg"
   inkscape:version="0.92.1 r15371">
  <metadata
     id="metadata12">
    <rdf:RDF>
      <cc:Work
         rdf:about="">
        <dc:format>image/svg+xml</dc:format>
        <dc:type
           rdf:resource="http://purl.org/dc/dcmitype/StillImage" />
        <dc:title></dc:title>
      </cc:Work>
    </rdf:RDF>
  </metadata>
  <defs
     id="defs10" />
  <sodipodi:namedview
     pagecolor="#ffffff"
     bordercolor="#666666"
     borderopacity="1"
     objecttolerance="10"
     gridtolerance="10"
     guidetolerance="10"
     inkscape:pageopacity="0"
     inkscape:pageshadow="2"
     inkscape:window-width="1920"
     inkscape:window-height="1017"
     id="namedview8"
     showgrid="false"
     inkscape:zoom="0.034766083"
     inkscape:cx="-4781.1004"
     inkscape:cy="-3918.3918"
     inkscape:window-x="-8"
     inkscape:window-y="-8"
     inkscape:window-maximized="1"
     inkscape:current-layer="layer2" />
  <g
     inkscape:groupmode="layer"
     id="layer2"
     inkscape:label="glyph"
     style="display:inline">
    <flowRoot
       xml:space="preserve"
       id="flowRoot4687"
       style="fill:black;fill-opacity:1;stroke:none;font-family:sans-serif;font-style:normal;font-weight:normal;font-size:40px;line-height:1.25;letter-spacing:0px;word-spacing:0px"><flowRegion
         id="flowRegion4689"><rect
           id="rect4691"
           width="920.33899"
           height="132.20338"
           x="1306.7797"
           y="1515.2543" /></flowRegion><flowPara
         id="flowPara4693"></flowPara></flowRoot>    <flowRoot
       xml:space="preserve"
       id="flowRoot4695"
       style="fill:black;fill-opacity:1;stroke:none;font-family:sans-serif;font-style:normal;font-weight:normal;font-size:40px;line-height:1.25;letter-spacing:0px;word-spacing:0px"><flowRegion
         id="flowRegion4697"><rect
           id="rect4699"
           width="177.96609"
           height="45.762711"
           x="1347.4576"
           y="1718.644" /></flowRegion><flowPara
         id="flowPara4701"></flowPara></flowRoot>    <path
       style="display:inline;fill:currentColor"
       d="m 445.5,-69.99998 c -51.3334,0 -96,18.6666 -134,56 -38,37.33326 -57,82.66656 -57,135.99996 v 206 h -232 v 515 h 232 c 0,50 19,93.6667 57,131 38,37.33332 82.6666,56.00002 134,56.00002 h 538 c 54.6667,0 100.6667,-18.6667 138,-56.00002 37.3333,-37.3333 56,-82.3333 56,-135 v -591 l -262,-317.99996 z m 0,93.99996 h 407 v 168 c 0,24 8.1667,44.3333 24.5,61 16.3333,16.6666 36.8333,25 61.5,25 h 143 v 4 557 c 0,26 -9.6667,48.6667 -29,68 -19.3333,19.3333 -42.3333,29 -69,29 h -538 c -26,0 -48.1667,-9.6667 -66.5,-29 -18.3334,-19.3333 -27.5,-40.6667 -27.5,-64 h 654 v -515 h -654 v -206 c 0,-26 9.1666,-48.8334 27.5,-68.5 18.3333,-19.6667 40.5,-29.5 66.5,-29.5 z m -220.3379,449.5097 h 177.9941 v 37.8907 h -66.3086 v 186.0898 H 291.623 v -186.0898 h -66.4609 z m 191.1328,0 h 52.8633 l 44.918,71.961 44.0019,-71.961 h 52.4063 l -69.67,108.7813 76.545,115.1992 h -54.545 l -49.6543,-77.4609 -49.8066,77.4609 h -54.2383 l 76.543,-116.8789 z m 208.5508,0 h 177.9922 v 37.8907 h -66.3086 v 186.0898 h -45.2227 v -186.0898 h -66.4609 z"
       id="path4632-95"
       inkscape:connector-curvature="0" />
  </g>
</svg>
