<?xml version="1.0" encoding="UTF-8" standalone="no"?>
<svg
   xmlns:dc="http://purl.org/dc/elements/1.1/"
   xmlns:cc="http://creativecommons.org/ns#"
   xmlns:rdf="http://www.w3.org/1999/02/22-rdf-syntax-ns#"
   xmlns:svg="http://www.w3.org/2000/svg"
   xmlns="http://www.w3.org/2000/svg"
   xmlns:sodipodi="http://sodipodi.sourceforge.net/DTD/sodipodi-0.dtd"
   xmlns:inkscape="http://www.inkscape.org/namespaces/inkscape"
   version="1.1"
   viewBox="0 -240 1200 1200"
   id="svg6"
   sodipodi:docname="geofence.svg"
   inkscape:version="0.92.1 r15371">
  <metadata
     id="metadata12">
    <rdf:RDF>
      <cc:Work
         rdf:about="">
        <dc:format>image/svg+xml</dc:format>
        <dc:type
           rdf:resource="http://purl.org/dc/dcmitype/StillImage" />
        <dc:title></dc:title>
      </cc:Work>
    </rdf:RDF>
  </metadata>
  <defs
     id="defs10" />
  <sodipodi:namedview
     pagecolor="#ffffff"
     bordercolor="#666666"
     borderopacity="1"
     objecttolerance="10"
     gridtolerance="10"
     guidetolerance="10"
     inkscape:pageopacity="0"
     inkscape:pageshadow="2"
     inkscape:window-width="1920"
     inkscape:window-height="1017"
     id="namedview8"
     showgrid="false"
     inkscape:zoom="0.098333333"
     inkscape:cx="-1365.8177"
     inkscape:cy="955.31757"
     inkscape:window-x="-8"
     inkscape:window-y="-8"
     inkscape:window-maximized="1"
     inkscape:current-layer="layer2"
     showguides="false" />
  <g
     inkscape:groupmode="layer"
     id="layer2"
     inkscape:label="glyph">
    <path
       style="display:inline;fill:currentColor;stroke-width:0.59303933"
       d="m 558.75545,-120 c -132.0676,0.068 -259.0483,21.1073 -354.8164,58.789 -95.7681,37.6816 -153.0391,89.1395 -160.0274,143.7852 h -1.3671 v 520.9023 c -0.863,5.1121 -1.3008,10.5696 -1.3008,16.3809 0,24.3225 9.6667,44.1787 29,59.5664 0,0 405.7936,400.5762 484,400.5762 19.9024,0 63.3519,-28.5159 116.3593,-70.3204 -13.5534,-22.0118 -13.6082,-52.6764 3.9532,-72.4824 4.4588,-3.7585 11.491,-9.2064 7.8535,-15.8867 -10.6049,-0.4199 -21.7043,-2.4649 -31.752,-6.6953 -31.0414,25.7057 -62.9128,50.3643 -96.4882,72.8184 -143.4524,-96.9548 -266.2891,-219.9014 -391.5977,-338.418 -9.9471,-12.3864 -24.6778,-19.8271 -34.4414,-32.3594 0.5268,-135.9486 0.1989,-271.8987 0.5918,-407.8476 -0.5422,-25.0493 1.609,-50.1179 -0.5977,-75.1172 -0.7088,-16.9607 -2.3349,-35.9858 8.2637,-50.3985 20.0401,-29.1329 53.7461,-44.0927 85.0527,-57.6816 101.5906,-42.7293 212.6864,-57.7145 322.2774,-59.0508 3.1083,-0.021 6.2163,-0.033 9.3242,-0.035 46.6188,-0.029 93.1901,2.1896 139.4688,7.8359 84.1648,11.5957 169.912,28.2887 244.1367,71.5742 18.6268,12.0299 40.6892,23.2286 49.8281,44.7617 2.066,41.2085 2.1064,82.7341 2.5215,124.0821 1.1065,114.5743 -0.8467,229.1543 -0.025,343.7265 7.8841,10.6347 12.67845,23.4728 12.63285,36.8985 -1.0007,3.7377 -1.3634,9.7383 3.7559,10.6035 15.38,-15.9534 37.8567,-27.0897 60.4179,-23.7285 3.1689,0.5051 6.2261,1.2597 9.1875,2.2187 V 82.5743 H 1074 C 1067.0081,27.9 1009.6818,-23.5815 913.82815,-61.2675 c -95.8537,-37.686 -222.9354,-58.7066 -355.0723,-58.7324 z m 0,186.5 c -45.8618,0 -89.9446,9.0946 -132.2481,27.2812 -41.9081,18.1865 -78.1839,42.5999 -108.8242,73.2402 -30.6404,30.6404 -55.0537,67.0134 -73.2402,109.1192 -18.1865,42.1057 -27.2793,86.0896 -27.2793,131.9512 0,45.8618 9.0928,89.8453 27.2793,131.9511 18.1865,42.1058 42.5998,78.4789 73.2402,109.1192 30.6403,30.6404 67.0133,55.0536 109.1192,73.2402 42.1058,18.1865 86.0913,27.2793 131.9531,27.2793 42.1387,0 82.6903,-7.6835 121.6582,-23.0371 -8.1158,-8.8246 -14.2663,-19.7293 -17.1738,-31.3731 -16.6286,6.5216 -32.8769,9.645 -48.7403,9.3399 -1.9768,-4.7444 -2.9648,-8.1052 -2.9648,-10.082 0,-1.9768 0.6925,-4.7446 2.0762,-8.3028 1.3838,-3.5583 2.0761,-6.7208 2.0761,-9.4883 -7.5119,-1.5814 -14.7277,-5.1406 -21.6465,-10.6757 -6.9188,-5.535 -12.355,-10.9712 -16.3086,-16.3086 -3.9536,-5.3374 -8.5009,-12.1564 -13.6406,-20.459 -1.1861,-6.7211 0.6928,-14.2327 5.6348,-22.5352 4.942,-8.3025 9.3901,-16.2107 13.3437,-23.7226 3.9536,-7.5118 4.5449,-14.2317 1.7774,-20.1621 -11.4655,1.5815 -22.8319,-0.5931 -34.0996,-6.5235 -11.2678,-5.9304 -23.1283,-13.4418 -35.5821,-22.5351 -12.4538,-9.0932 -22.8321,-15.4202 -31.1347,-18.9785 -4.349,-1.5814 -11.1681,-3.9542 -20.459,-7.1172 -9.291,-3.1628 -17.2965,-6.1271 -24.0176,-8.8946 -6.7211,-2.7675 -13.2445,-5.7335 -19.5703,-8.8965 -2.7675,-1.5814 -6.6225,-4.3471 -11.5645,-8.3007 -4.9419,-3.9536 -9.5885,-6.9197 -13.9375,-8.8965 -4.3489,-1.9768 -8.8943,-2.9649 -13.6386,-2.9649 0.3953,-9.4886 -2.7692,-21.2518 -9.4903,-35.2871 -6.7211,-14.0353 -10.0799,-22.8303 -10.08,-26.3886 2.3722,-11.07 0.7909,-28.2695 -4.7442,-51.5957 -5.5349,-23.3262 -6.525,-41.7102 -2.9668,-55.1524 1.9767,-8.698 7.8097,-24.3141 17.4961,-46.8496 9.6863,-22.5355 15.1225,-40.5246 16.3086,-53.9668 0.3954,-2.7676 -1.2851,-6.4241 -5.041,-10.9707 -3.7559,-4.5466 -5.0416,-8.9948 -3.8555,-13.3437 1.186,-5.9304 8.0071,-12.7515 20.461,-20.461 12.4538,-7.7096 22.6338,-12.9473 30.541,-15.7148 5.9303,-1.9768 14.9239,-2.3717 26.9824,-1.1856 12.0585,1.1861 21.054,1.1861 26.9844,0 3.9536,-0.7907 11.6635,-2.0762 23.1289,-3.8554 11.4654,-1.7791 19.9649,-3.3605 25.5,-4.7442 5.535,-1.3838 12.5525,-3.7566 21.0527,-7.1172 8.5003,-3.3605 15.7162,-7.4118 21.6465,-12.1562 7.5119,1.5815 14.8249,1.5815 21.9414,0 5.1397,4.349 13.2445,8.3031 24.3145,11.8613 11.0701,3.5582 20.9544,6.5224 29.6523,8.8945 8.6979,2.3721 15.9138,7.1161 21.6465,14.2325 5.7327,7.1166 7.6096,16.2111 5.6328,27.2812 l -7.1152,2.9649 c -4.349,1.5814 -11.9597,2.0754 -22.8321,1.4824 -10.7427,-0.586 -22.1641,-3.4011 -34.2578,-8.4258 0.971,0.4544 1.7142,1.2869 2.2324,2.4961 0.5931,1.3837 0.7915,3.2606 0.5938,5.6328 -0.1977,2.3722 -0.4934,4.4476 -0.8887,6.2266 -0.3954,1.7792 -0.9886,4.0528 -1.7793,6.8203 -0.7907,2.7676 -1.1875,4.3487 -1.1875,4.7441 4.3489,2.3722 12.9497,6.9195 25.7989,13.6406 12.8492,6.7211 22.5352,12.0582 29.0586,16.0118 6.5234,3.9536 13.9356,9.7846 22.2382,17.4941 8.3026,7.7095 14.4312,16.1119 18.3848,25.2051 -3.5582,4.349 -7.6116,7.4123 -12.1582,9.1914 -4.5467,1.7792 -8.4989,2.6699 -11.8594,2.6699 -3.3605,0 -8.2055,-0.2975 -14.5312,-0.8906 -6.3258,-0.593 -11.0696,-0.8887 -14.2325,-0.8887 -6.3257,7.1164 -8.3018,14.2331 -5.9296,21.3496 -8.6979,3.9536 -15.4198,8.3998 -20.1641,13.3418 -4.7443,4.942 -7.8076,9.3902 -9.1914,13.3438 -1.3837,3.9536 -2.9649,10.0822 -4.7441,18.3847 -1.779,8.3025 -3.8544,15.2208 -6.2266,20.7559 -1.5814,5.1396 -4.6468,9.9828 -9.1934,14.5293 -4.5467,4.5467 -8.104,8.9948 -10.6738,13.3437 -2.5699,4.3489 -3.2623,10.0828 -2.0762,17.1993 1.1861,6.3258 1.2853,12.6507 0.2969,18.9765 -0.9884,6.3257 -2.5696,13.1448 -4.7441,20.459 -2.1745,7.3141 -3.6586,13.3435 -4.4493,18.0879 l -2.9648,-1.7793 c -2.3721,-1.5814 -5.4355,-3.6567 -9.1914,-6.2266 -3.756,-2.5698 -7.7101,-5.5339 -11.8613,-8.8945 -4.1513,-3.3606 -8.4011,-7.4139 -12.75,-12.1582 -4.349,-4.7443 -7.9064,-9.488 -10.6739,-14.2324 -2.3721,-3.9536 -6.227,-6.6222 -11.5644,-8.0059 -5.3374,-1.3838 -11.96,-2.1753 -19.8672,-2.373 -7.9072,-0.1976 -13.0478,-0.4934 -15.4199,-0.8887 -6.3258,2.3721 -10.6747,6.7212 -13.0469,13.0469 -4.3489,11.8608 -2.7676,23.3265 4.7441,34.3965 7.512,11.4654 15.815,12.2551 24.9082,2.3711 7.1165,-7.9071 13.2451,-12.0578 18.3848,-12.4532 5.1397,-0.3953 8.7962,1.8783 10.9707,6.8203 2.1745,4.942 3.5595,10.4756 4.1524,16.6036 0.5931,6.1281 0.6902,12.1574 0.2949,18.0878 1.5814,0.7907 6.4263,2.0764 14.5312,3.8555 8.1049,1.7791 13.3427,5.2392 15.7149,10.3789 0,0.3954 -0.099,5.4348 -0.2969,15.1211 -0.1977,9.6863 0.4947,14.7278 2.0762,15.1231 5.9304,9.0933 18.9772,6.7204 39.1406,-7.1172 6.3257,-4.349 13.8373,-7.6108 22.5352,-9.7852 8.698,-2.1745 17.0011,-3.4582 24.9082,-3.8535 7.9072,-0.3954 16.4068,-0.6929 25.5,-0.8906 9.0934,-0.1976 17.1979,-0.2949 24.3144,-0.2949 6.7211,4.349 16.9011,8.1046 30.541,11.2675 13.64,3.1629 23.4251,6.1271 29.3555,8.8946 4.7443,2.7676 11.8609,4.2495 21.3496,4.4472 9.4886,0.1977 16.8038,1.8781 21.9434,5.041 -1.1861,12.6515 -5.3387,25.1053 -12.4551,37.3614 -0.9491,1.6345 -1.8916,3.2165 -2.8301,4.7597 6.0715,2.8992 11.5861,6.8924 16.1016,12.0645 2.9697,3.9318 9.285,7.6605 12.959,2.3906 3.9328,-10.4128 1.3119,-22.61 6.5195,-32.8281 9.5266,-19.4785 29.2071,-31.1873 50.0312,-35.541 15.9779,-39.687 23.9668,-81.0248 23.9668,-124.0117 0,-45.8616 -9.0928,-89.8454 -27.2793,-131.9512 -18.1865,-42.1059 -42.5998,-78.4788 -73.2402,-109.1192 -30.6403,-30.6403 -67.0133,-55.0537 -109.1191,-73.2402 C 648.60085,75.5946 604.61715,66.5 558.75545,66.5 Z m 7.709,107.9336 c -3.163,1.5815 -6.4247,4.0516 -9.7852,7.4121 -3.3605,3.3606 -6.029,6.2275 -8.0058,8.5996 -1.9768,2.3722 -4.7446,3.5586 -8.3028,3.5586 -3.5583,0 -7.314,-1.9761 -11.2676,-5.9297 -1.186,2.7676 -4.3484,7.807 -9.4882,15.1211 -5.1396,7.3142 -8.3042,13.1472 -9.4903,17.4961 6.3258,4.349 13.6408,7.6106 21.9434,9.7851 8.3024,2.1745 18.681,4.1505 31.1348,5.9297 12.4538,1.779 20.2609,2.8663 23.4238,3.2617 0,-1.1861 -1.7778,-5.7335 -5.336,-13.6406 -3.5582,-7.9072 -6.9191,-16.8015 -10.082,-26.6855 -3.1629,-9.884 -4.7441,-18.187 -4.7441,-24.9082 z M 909.83355,580 c -9.3471,0 -18.5498,0.7201 -27.6094,2.1582 -7.4777,0 -11.2168,4.4573 -11.2168,13.373 0,25.5968 -11.6474,43.2129 -34.9433,52.8477 -23.296,9.6347 -44.004,5.5346 -62.1231,-12.2969 -5.752,-7.7653 -12.0799,-8.9156 -18.9824,-3.4512 -9.4909,7.7654 -23.0069,21.2833 -40.5508,40.5528 -5.7521,7.1901 -4.6017,13.3739 3.4512,18.5507 18.4067,17.8315 22.5759,38.5396 12.5098,62.1231 -9.491,22.7207 -27.3222,34.0801 -53.4942,34.0801 -9.7785,0 -14.6679,4.1711 -14.6679,12.5117 -2.8761,19.2694 -2.8761,38.251 0,56.9453 0,8.6281 5.6076,12.9414 16.8242,12.9414 23.0083,-2.3008 39.5471,8.7724 49.6133,33.2187 9.7785,23.5836 5.6073,44.2916 -12.5118,62.1231 -6.9025,4.8893 -7.4767,11.073 -1.7246,18.5508 10.6414,12.367 23.5832,26.027 38.8262,40.9824 6.9025,4.3141 13.2284,3.8839 18.9805,-1.293 16.3934,-20.4199 37.2455,-25.4534 62.5547,-15.0996 24.1587,10.0662 35.2319,27.7534 33.2187,53.0625 0,9.7786 4.1693,14.668 12.5098,14.668 13.805,2.3008 23.4398,3.4512 28.9043,3.4512 5.1768,0 14.2375,-1.1504 27.1797,-3.4512 8.0529,0 12.0781,-4.3133 12.0781,-12.9414 0,-25.5968 11.5764,-43.2859 34.7285,-53.0645 23.15215,-9.7785 43.93125,-5.3192 62.33795,13.375 5.7521,7.4777 11.9359,8.34 18.5508,2.5879 14.6678,-12.9422 28.1857,-26.6042 40.5527,-40.9844 5.1769,-6.6148 4.6007,-12.7986 -1.7265,-18.5507 -18.9819,-17.5438 -23.8694,-38.1059 -14.6661,-61.6895 9.7786,-23.2959 26.8896,-34.9453 51.336,-34.9453 l 2.5898,1.7266 c 9.491,0 14.2364,-4.6014 14.2364,-13.8047 2.876,-19.2695 2.876,-37.8209 0,-55.6524 -10e-5,-9.2033 -5.0335,-13.8047 -15.0997,-13.8047 -26.1719,0 -43.2849,-11.0732 -51.3379,-33.2187 -9.4909,-23.5835 -5.1776,-44.2896 12.9415,-62.1211 6.9023,-4.3141 7.4786,-10.4978 1.7264,-18.5508 -10.9289,-12.367 -24.0146,-26.029 -39.2578,-40.9844 -6.3273,-4.0264 -12.511,-3.3082 -18.5508,2.1563 -16.1058,20.1323 -36.8138,25.0217 -62.12295,14.668 -24.1588,-9.7786 -35.3741,-27.7539 -33.6485,-53.9258 0,-9.7786 -4.3152,-14.666 -12.9433,-14.666 C 928.67145,580.7201 919.18065,580 909.83355,580 Z m -0.4316,167.3867 c 23.0083,0 42.8541,8.1234 59.5351,24.373 16.6811,16.2496 25.0215,35.4482 25.0215,57.5938 0,23.5835 -8.3404,43.5003 -25.0215,59.75 -16.681,16.2496 -36.5268,24.373 -59.5351,24.373 -22.1456,0 -41.3422,-8.1234 -57.5918,-24.373 -16.2497,-16.2497 -24.375,-36.1665 -24.375,-59.75 0,-22.1456 8.1253,-41.3442 24.375,-57.5938 16.2496,-16.2496 35.4462,-24.373 57.5918,-24.373 z"
       id="path4855-6"
       inkscape:connector-curvature="0" />
  </g>
</svg>
