<?xml version="1.0" encoding="UTF-8" standalone="no"?>
<svg
   xmlns:dc="http://purl.org/dc/elements/1.1/"
   xmlns:cc="http://creativecommons.org/ns#"
   xmlns:rdf="http://www.w3.org/1999/02/22-rdf-syntax-ns#"
   xmlns:svg="http://www.w3.org/2000/svg"
   xmlns="http://www.w3.org/2000/svg"
   xmlns:sodipodi="http://sodipodi.sourceforge.net/DTD/sodipodi-0.dtd"
   xmlns:inkscape="http://www.inkscape.org/namespaces/inkscape"
   version="1.1"
   viewBox="0 -240 1200 1200"
   id="svg6"
   sodipodi:docname="pie-chart.svg"
   inkscape:version="0.92.1 r15371">
  <metadata
     id="metadata12">
    <rdf:RDF>
      <cc:Work
         rdf:about="">
        <dc:format>image/svg+xml</dc:format>
        <dc:type
           rdf:resource="http://purl.org/dc/dcmitype/StillImage" />
        <dc:title></dc:title>
      </cc:Work>
    </rdf:RDF>
  </metadata>
  <defs
     id="defs10" />
  <sodipodi:namedview
     pagecolor="#ffffff"
     bordercolor="#666666"
     borderopacity="1"
     objecttolerance="10"
     gridtolerance="10"
     guidetolerance="10"
     inkscape:pageopacity="0"
     inkscape:pageshadow="2"
     inkscape:window-width="1920"
     inkscape:window-height="1017"
     id="namedview8"
     showgrid="false"
     inkscape:zoom="0.13906433"
     inkscape:cx="1101.5027"
     inkscape:cy="-40.325101"
     inkscape:window-x="1912"
     inkscape:window-y="-8"
     inkscape:window-maximized="1"
     inkscape:current-layer="layer2" />
  <g
     inkscape:groupmode="layer"
     id="layer2"
     inkscape:label="glyph"
     style="display:inline">
    <path
       style="fill:#000000;fill-opacity:1;stroke-width:0.987315"
       d="M 631.08789 168.17188 A 552.22702 552.22702 0 0 0 283.74219 304.96484 L 617.16211 638.38477 L 741.07617 175.92188 A 552.22702 552.22702 0 0 0 631.08789 168.17188 z M 822.30859 197.1582 L 669.55664 767.23828 A 48.494766 48.20129 0 0 1 622.73828 813.43164 L 622.9707 814.30273 L 143.53516 942.76758 A 552.22702 552.22702 0 0 0 257.28906 1110.3262 A 552.22702 552.22702 0 0 0 1038.2559 1110.3262 A 552.22702 552.22702 0 0 0 1038.2559 329.35938 A 552.22702 552.22702 0 0 0 822.30859 197.1582 z M 150.50391 292.83398 C 23.175463 461.19709 -26.588944 675.74394 13.617188 882.96875 C 204.74615 831.75624 395.87309 780.54464 587.00195 729.33203 L 150.50391 292.83398 z "
       transform="translate(0,-240)"
       id="path4484" />
  </g>
</svg>
