<?xml version="1.0" encoding="UTF-8" standalone="no"?>
<svg
   xmlns:dc="http://purl.org/dc/elements/1.1/"
   xmlns:cc="http://creativecommons.org/ns#"
   xmlns:rdf="http://www.w3.org/1999/02/22-rdf-syntax-ns#"
   xmlns:svg="http://www.w3.org/2000/svg"
   xmlns="http://www.w3.org/2000/svg"
   xmlns:sodipodi="http://sodipodi.sourceforge.net/DTD/sodipodi-0.dtd"
   xmlns:inkscape="http://www.inkscape.org/namespaces/inkscape"
   version="1.1"
   viewBox="0 -240 1200 1200"
   id="svg6"
   sodipodi:docname="points.svg"
   inkscape:version="0.92.1 r15371">
  <metadata
     id="metadata12">
    <rdf:RDF>
      <cc:Work
         rdf:about="">
        <dc:format>image/svg+xml</dc:format>
        <dc:type
           rdf:resource="http://purl.org/dc/dcmitype/StillImage" />
        <dc:title></dc:title>
      </cc:Work>
    </rdf:RDF>
  </metadata>
  <defs
     id="defs10" />
  <sodipodi:namedview
     pagecolor="#ffffff"
     bordercolor="#666666"
     borderopacity="1"
     objecttolerance="10"
     gridtolerance="10"
     guidetolerance="10"
     inkscape:pageopacity="0"
     inkscape:pageshadow="2"
     inkscape:window-width="1920"
     inkscape:window-height="1017"
     id="namedview8"
     showgrid="false"
     inkscape:zoom="0.27812867"
     inkscape:cx="1153.0885"
     inkscape:cy="518.15118"
     inkscape:window-x="1912"
     inkscape:window-y="-8"
     inkscape:window-maximized="1"
     inkscape:current-layer="svg6" />
  <path
     style="opacity:1;vector-effect:none;fill:#030303;fill-opacity:1;fill-rule:nonzero;stroke:none;stroke-width:0.60967803px;stroke-linecap:butt;stroke-linejoin:miter;stroke-miterlimit:4;stroke-dasharray:none;stroke-dashoffset:0;stroke-opacity:1"
     d="M 154.60547 120 A 154.60471 154.60471 0 0 0 0 274.60547 A 154.60471 154.60471 0 0 0 154.60547 429.20898 A 154.60471 154.60471 0 0 0 309.20898 274.60547 A 154.60471 154.60471 0 0 0 154.60547 120 z M 154.60547 197.30273 A 77.302353 77.302353 0 0 1 231.90625 274.60547 A 77.302353 77.302353 0 0 1 154.60547 351.90625 A 77.302353 77.302353 0 0 1 77.302734 274.60547 A 77.302353 77.302353 0 0 1 154.60547 197.30273 z M 154.60547 1010.791 A 154.60471 154.60471 0 0 0 0 1165.3965 A 154.60471 154.60471 0 0 0 154.60547 1320 A 154.60471 154.60471 0 0 0 309.20898 1165.3965 A 154.60471 154.60471 0 0 0 154.60547 1010.791 z M 1045.3965 1010.791 A 154.60471 154.60471 0 0 0 890.79102 1165.3965 A 154.60471 154.60471 0 0 0 1045.3965 1320 A 154.60471 154.60471 0 0 0 1200 1165.3965 A 154.60471 154.60471 0 0 0 1045.3965 1010.791 z M 154.60547 1088.0938 A 77.302353 77.302353 0 0 1 231.90625 1165.3965 A 77.302353 77.302353 0 0 1 154.60547 1242.6973 A 77.302353 77.302353 0 0 1 77.302734 1165.3965 A 77.302353 77.302353 0 0 1 154.60547 1088.0938 z M 1045.3965 1088.0938 A 77.302353 77.302353 0 0 1 1122.6973 1165.3965 A 77.302353 77.302353 0 0 1 1045.3965 1242.6973 A 77.302353 77.302353 0 0 1 968.09375 1165.3965 A 77.302353 77.302353 0 0 1 1045.3965 1088.0938 z "
     transform="translate(0,-240)"
     id="path4491" />
</svg>
