<?xml version="1.0" encoding="UTF-8" standalone="no"?>
<svg
   xmlns:dc="http://purl.org/dc/elements/1.1/"
   xmlns:cc="http://creativecommons.org/ns#"
   xmlns:rdf="http://www.w3.org/1999/02/22-rdf-syntax-ns#"
   xmlns:svg="http://www.w3.org/2000/svg"
   xmlns="http://www.w3.org/2000/svg"
   xmlns:sodipodi="http://sodipodi.sourceforge.net/DTD/sodipodi-0.dtd"
   xmlns:inkscape="http://www.inkscape.org/namespaces/inkscape"
   version="1.1"
   viewBox="0 -240 1200 1200"
   id="svg6"
   sodipodi:docname="projection.svg"
   inkscape:version="0.92.1 r15371">
  <metadata
     id="metadata12">
    <rdf:RDF>
      <cc:Work
         rdf:about="">
        <dc:format>image/svg+xml</dc:format>
        <dc:type
           rdf:resource="http://purl.org/dc/dcmitype/StillImage" />
        <dc:title></dc:title>
      </cc:Work>
    </rdf:RDF>
  </metadata>
  <defs
     id="defs10" />
  <sodipodi:namedview
     pagecolor="#ffffff"
     bordercolor="#666666"
     borderopacity="1"
     objecttolerance="10"
     gridtolerance="10"
     guidetolerance="10"
     inkscape:pageopacity="0"
     inkscape:pageshadow="2"
     inkscape:window-width="1920"
     inkscape:window-height="1017"
     id="namedview8"
     showgrid="false"
     inkscape:zoom="0.22627417"
     inkscape:cx="949.02947"
     inkscape:cy="867.89388"
     inkscape:window-x="-8"
     inkscape:window-y="-8"
     inkscape:window-maximized="1"
     inkscape:current-layer="layer2"
     showguides="false" />
  <g
     inkscape:groupmode="layer"
     id="layer2"
     inkscape:label="glyph">
    <path
       style="opacity:1;vector-effect:none;fill:#000000;fill-opacity:1;stroke:none;stroke-width:0.55500233px;stroke-linecap:butt;stroke-linejoin:miter;stroke-miterlimit:4;stroke-dasharray:none;stroke-dashoffset:0;stroke-opacity:1"
       d="M 600 120 A 600 600 0 0 0 0 720 A 600 600 0 0 0 600 1320 A 600 600 0 0 0 1200 720 A 600 600 0 0 0 600 120 z M 643.08984 226.01172 A 496.14368 496.14368 0 0 1 939.26367 358.82227 L 643.08984 358.82227 L 643.08984 226.01172 z M 556.91016 226.06836 L 556.91016 358.82227 L 260.32617 358.82227 A 496.14368 496.14368 0 0 1 556.91016 226.06836 z M 187.35938 445 L 556.91016 445 L 556.91016 675 L 106.10742 675 A 496.14368 496.14368 0 0 1 187.35938 445 z M 643.08984 445 L 1012.5332 445 A 496.14368 496.14368 0 0 1 1093.7012 675 L 643.08984 675 L 643.08984 445 z M 106.29883 765 L 556.91016 765 L 556.91016 995 L 187.4668 995 A 496.14368 496.14368 0 0 1 106.29883 765 z M 643.08984 765 L 1093.8926 765 A 496.14368 496.14368 0 0 1 1012.6406 995 L 643.08984 995 L 643.08984 765 z M 260.73633 1081.1777 L 556.91016 1081.1777 L 556.91016 1213.9883 A 496.14368 496.14368 0 0 1 260.73633 1081.1777 z M 643.08984 1081.1777 L 939.67383 1081.1777 A 496.14368 496.14368 0 0 1 643.08984 1213.9316 L 643.08984 1081.1777 z "
       transform="translate(0,-240)"
       id="path4483" />
  </g>
</svg>
