<?xml version="1.0" encoding="UTF-8" standalone="no"?>
<svg
   xmlns:dc="http://purl.org/dc/elements/1.1/"
   xmlns:cc="http://creativecommons.org/ns#"
   xmlns:rdf="http://www.w3.org/1999/02/22-rdf-syntax-ns#"
   xmlns:svg="http://www.w3.org/2000/svg"
   xmlns="http://www.w3.org/2000/svg"
   xmlns:sodipodi="http://sodipodi.sourceforge.net/DTD/sodipodi-0.dtd"
   xmlns:inkscape="http://www.inkscape.org/namespaces/inkscape"
   version="1.1"
   viewBox="0 -240 1200 1200"
   id="svg6"
   sodipodi:docname="proposals-geofence.svg"
   inkscape:version="0.92.1 r15371">
  <metadata
     id="metadata12">
    <rdf:RDF>
      <cc:Work
         rdf:about="">
        <dc:format>image/svg+xml</dc:format>
        <dc:type
           rdf:resource="http://purl.org/dc/dcmitype/StillImage" />
        <dc:title />
      </cc:Work>
    </rdf:RDF>
  </metadata>
  <defs
     id="defs10" />
  <sodipodi:namedview
     pagecolor="#ffffff"
     bordercolor="#666666"
     borderopacity="1"
     objecttolerance="10"
     gridtolerance="10"
     guidetolerance="10"
     inkscape:pageopacity="0"
     inkscape:pageshadow="2"
     inkscape:window-width="1920"
     inkscape:window-height="1017"
     id="namedview8"
     showgrid="false"
     inkscape:zoom="0.13906433"
     inkscape:cx="5013.0931"
     inkscape:cy="-735.91148"
     inkscape:window-x="-8"
     inkscape:window-y="-8"
     inkscape:window-maximized="1"
     inkscape:current-layer="layer2"
     showguides="true" />
  <g
     inkscape:groupmode="layer"
     id="layer1"
     inkscape:label="grid"
     style="display:inline">
    <rect
       id="rect3698"
       width="1200"
       height="1200"
       x="0"
       y="-120"
       style="fill:#f6baff;fill-opacity:1;stroke-width:0.75510824" />
    <path
       style="fill:#0e0e0e;fill-opacity:1;stroke:none;stroke-width:1.51706541;stroke-opacity:1"
       d="m 6846.1864,-31.58203 -62.5,108.25391 -62.5,108.2539 V 310 h -50 v 150 h 50 v 320 h -50 v 150 h 50 v 150 h 250 V 930 h 175 v 150 h 250 V 930 h 175 v 150 h 250 V 930 h 50 V 780 h -50 V 460 h 50 V 310 h -50 V 184.92578 l -62.5,-108.2539 -62.5,-108.25391 -62.5,108.25391 -62.5,108.2539 V 310 h -175 V 184.92578 l -62.5,-108.2539 -62.5,-108.25391 -62.5,108.25391 -62.5,108.2539 V 310 h -175 V 184.92578 l -62.5,-108.2539 z m 0,386.69141 A 29.891596,29.891596 0 0 1 6876.077,385 29.891596,29.891596 0 0 1 6846.1864,414.89062 29.891596,29.891596 0 0 1 6816.2958,385 a 29.891596,29.891596 0 0 1 29.8906,-29.89062 z m 425,0 A 29.891596,29.891596 0 0 1 7301.077,385 29.891596,29.891596 0 0 1 7271.1864,414.89062 29.891596,29.891596 0 0 1 7241.2958,385 a 29.891596,29.891596 0 0 1 29.8906,-29.89062 z m 425,0 A 29.891596,29.891596 0 0 1 7726.077,385 29.891596,29.891596 0 0 1 7696.1864,414.89062 29.891596,29.891596 0 0 1 7666.2958,385 29.891596,29.891596 0 0 1 7696.1864,355.10938 Z M 6971.1864,460 h 175 v 320 h -175 z m 425,0 h 175 v 320 h -175 z m -550,365.1094 A 29.891596,29.891596 0 0 1 6876.077,855 29.891596,29.891596 0 0 1 6846.1864,884.8906 29.891596,29.891596 0 0 1 6816.2958,855 a 29.891596,29.891596 0 0 1 29.8906,-29.8906 z m 425,0 A 29.891596,29.891596 0 0 1 7301.077,855 29.891596,29.891596 0 0 1 7271.1864,884.8906 29.891596,29.891596 0 0 1 7241.2958,855 a 29.891596,29.891596 0 0 1 29.8906,-29.8906 z m 425,0 A 29.891596,29.891596 0 0 1 7726.077,855 29.891596,29.891596 0 0 1 7696.1864,884.8906 29.891596,29.891596 0 0 1 7666.2958,855 a 29.891596,29.891596 0 0 1 29.8906,-29.8906 z"
       id="rect4853"
       inkscape:connector-curvature="0" />
    <path
       style="fill:currentColor;stroke-width:0.59303933"
       inkscape:connector-curvature="0"
       d="m 5613.5149,93.779996 q 63.4552,-27.27981 132.2478,-27.27981 68.7926,0 131.9513,27.27981 63.1587,27.279814 109.1192,73.240354 45.9606,45.96055 73.2404,109.11924 27.2797,63.15868 27.2797,131.95125 0,68.79256 -27.2797,131.95125 -27.2798,63.15869 -73.2404,109.11924 -45.9605,45.96054 -109.1192,73.24035 -63.1587,27.27981 -131.9513,27.27981 -68.7926,0 -131.9513,-27.27981 -63.1587,-27.27981 -109.1192,-73.24035 -45.9606,-45.96055 -73.2404,-109.11924 -27.2797,-63.15869 -27.2797,-131.95125 0,-68.79257 27.2797,-131.95125 27.2798,-63.15869 73.2404,-109.11924 45.9605,-45.96054 108.8227,-73.240354 z m 148.2598,17.198144 q -8.8955,7.11648 -21.6459,12.15731 -12.7503,5.04082 -21.0528,7.11647 -8.3026,2.07563 -25.5008,4.74432 -17.1981,2.66867 -23.1285,3.85475 -8.8956,1.77912 -26.9833,0 -18.0877,-1.77912 -26.9832,1.18608 -11.8608,4.15127 -30.5416,15.71554 -18.6808,11.56426 -20.4598,20.45985 -1.7792,6.52344 3.8547,13.34339 5.6339,6.81995 5.0408,10.97123 -1.7791,20.16333 -16.3085,53.96657 -14.5296,33.80325 -17.4947,46.85011 -5.3373,20.16334 2.9651,55.15265 8.3026,34.98933 4.7444,51.59443 0,5.33736 10.0817,26.39025 10.0816,21.0529 9.4886,35.28584 7.1165,0 13.6399,2.9652 6.5235,2.9652 13.9364,8.89558 7.413,5.9304 11.5643,8.30256 9.4887,4.74431 19.5703,8.89559 10.0817,4.15127 24.0181,8.89558 13.9364,4.74432 20.4598,7.11648 12.4539,5.33736 31.1346,18.97726 18.6807,13.6399 35.5823,22.53549 16.9016,8.8956 34.0998,6.52344 4.1513,8.89558 -1.7791,20.16333 -5.9304,11.26775 -13.3434,23.72158 -7.413,12.45382 -5.6339,22.53548 7.7096,12.45384 13.64,20.45987 5.9304,8.00602 16.3086,16.30858 10.3781,8.30254 21.6459,10.6747 0,4.15128 -2.0757,9.48864 -2.0756,5.33734 -2.0756,8.30254 0,2.9652 2.9652,10.08167 61.676,1.18608 131.0617,-66.4204 17.7912,-17.19814 27.5763,-27.87285 9.7852,-10.67471 20.4599,-29.05892 10.6747,-18.38422 12.4538,-37.36148 -7.7095,-4.74432 -21.9424,-5.04084 -14.233,-0.29652 -21.3495,-4.44779 -8.8955,-4.15128 -29.3555,-8.8956 -20.4598,-4.7443 -30.5414,-11.26774 -10.6747,0 -24.3147,0.29651 -13.6399,0.29653 -25.5007,0.88957 -11.8607,0.59304 -24.9076,3.85475 -13.0469,3.26172 -22.5355,9.78515 -30.245,20.75638 -39.1406,7.11648 -2.3722,-0.59304 -2.0756,-15.12251 0.2965,-14.52947 0.2965,-15.12251 -3.5582,-7.7095 -15.7155,-10.37818 -12.1573,-2.66868 -14.5295,-3.85476 0.593,-8.89559 -0.2966,-18.0877 -0.8894,-9.19211 -4.1512,-16.6051 -3.2617,-7.41299 -10.9712,-6.81995 -7.7096,0.59304 -18.3843,12.45382 -13.6398,14.82599 -24.9077,-2.37214 -11.2676,-16.60511 -4.7443,-34.39629 3.5583,-9.48863 13.0469,-13.04686 3.5582,0.59304 15.419,0.88955 11.8608,0.29653 19.8669,2.37216 8.0061,2.07564 11.5643,8.00603 4.1512,7.11647 10.6747,14.23295 6.5234,7.11646 12.7503,12.1573 6.2269,5.04084 11.8608,8.89559 5.6339,3.85475 9.1921,6.22691 l 2.9652,1.77912 q 1.186,-7.11646 4.4478,-18.08769 3.2617,-10.97123 4.7443,-20.45986 1.4826,-9.48864 -0.2965,-18.97726 -1.7792,-10.67472 2.0757,-17.19814 3.8547,-6.52344 10.6747,-13.34339 6.8199,-6.81995 9.192,-14.52946 3.5583,-8.30256 6.2269,-20.75638 2.6688,-12.45382 4.7443,-18.38422 2.0757,-5.93039 9.1922,-13.34338 7.1164,-7.41299 20.1633,-13.34339 -3.5582,-10.6747 5.9304,-21.34941 4.7443,0 14.233,0.88956 9.4886,0.88955 14.5294,0.88955 5.0408,0 11.8608,-2.66867 6.82,-2.66868 12.1573,-9.19211 -5.9304,-13.63991 -18.3842,-25.20418 -12.4539,-11.56426 -22.239,-17.49465 -9.7851,-5.9304 -29.0589,-16.01207 -19.2738,-10.08166 -25.7972,-13.6399 0,-0.59304 1.186,-4.74432 1.1861,-4.15126 1.7792,-6.81995 0.593,-2.66867 0.8895,-6.22691 0.2966,-3.55824 -0.593,-5.63387 -0.8896,-2.07564 -2.6687,-2.66868 18.3842,7.70951 34.6928,8.59907 16.3085,0.88956 22.832,-1.4826 l 7.1165,-2.9652 q 2.9652,-16.60509 -5.6339,-27.27981 -8.599,-10.6747 -21.6459,-14.23294 -13.0469,-3.55824 -29.652,-8.89558 -16.6051,-5.33735 -24.3146,-11.86079 -10.6747,2.37216 -21.9425,0 z m -8.3025,63.4552 q 0,10.08168 4.7443,24.90766 4.7443,14.82598 10.0817,26.68677 5.3373,11.86078 5.3373,13.6399 -4.7443,-0.59304 -23.425,-3.26171 -18.6808,-2.66869 -31.1345,-5.9304 -12.4539,-3.26171 -21.9426,-9.78515 1.7792,-6.52343 9.4887,-17.49466 7.7096,-10.97123 9.4886,-15.12251 5.9304,5.9304 11.2678,5.9304 5.3373,0 8.3026,-3.55824 2.9651,-3.55822 8.0059,-8.59907 5.0408,-5.04083 9.7852,-7.41299 z"
       id="path4855" />
    <path
       inkscape:connector-curvature="0"
       style="display:inline;fill:#0e0e0e;fill-opacity:1;stroke:none;stroke-width:1.51706541;stroke-opacity:1"
       d="m 8336.0169,-31.58203 -62.5,108.25391 -62.5,108.2539 V 310 h -50 v 150 h 50 v 320 h -50 v 150 h 50 v 150 h 250 V 930 h 175 v 150 h 250 V 930 h 175 v 150 h 250 V 930 h 50 V 780 h -50 V 460 h 50 V 310 h -50 V 184.92578 l -62.5,-108.2539 -62.5,-108.25391 -62.5,108.25391 -62.5,108.2539 V 310 h -175 V 184.92578 l -62.5,-108.2539 -62.5,-108.25391 -62.5,108.25391 -62.5,108.2539 V 310 h -175 V 184.92578 l -62.5,-108.2539 z m 125,491.58203 h 175 v 320 h -175 z m 425,0 h 175 v 320 h -175 z"
       id="rect4853-3" />
  </g>
  <g
     inkscape:groupmode="layer"
     id="layer2"
     inkscape:label="glyph">
    <path
       inkscape:connector-curvature="0"
       style="fill:#000000;fill-opacity:1;stroke:none;stroke-opacity:1"
       d="m -2333.8442,-552.20339 a 516.211,213.89235 0 0 0 -514.8438,202.57422 h -1.3672 v 520.90234 c -0.863,5.1121 -1.3007,10.5695 -1.3007,16.38086 0,24.32253 9.6666,44.17868 29,59.56641 0,0 405.7936,400.57617 484,400.57617 74.6057,0 480,-400.57617 480,-400.57617 32.9279,-23.37669 46.4969,-46.67181 40.7227,-69.88477 v -526.96484 h -0.9668 a 516.211,213.89235 0 0 0 -515.2442,-202.57422 z"
       id="rect4494-27" />
    <path
       inkscape:connector-curvature="0"
       style="fill:#000000;fill-opacity:1;stroke:none;stroke-opacity:1"
       d="M 5745.7667,-120 A 516.211,213.89235 0 0 0 5230.923,82.57422 h -1.3672 v 520.90234 c -0.863,5.1121 -1.3008,10.5695 -1.3008,16.38086 0,24.32253 9.6667,44.17868 29,59.56641 0,0 405.7936,400.57617 484,400.57617 74.6058,0 480,-400.57617 480,-400.57617 32.9279,-23.37669 46.4969,-46.67181 40.7227,-69.88477 V 82.57422 h -0.9668 A 516.211,213.89235 0 0 0 5745.7667,-120 Z m -5.7129,86.52539 c 46.6188,-0.0286 93.1901,2.18964 139.4688,7.83594 84.1648,11.59572 169.912,28.28872 244.1367,71.57422 18.6268,12.02982 40.6892,23.22863 49.8281,44.76172 2.066,41.2085 2.1064,82.73402 2.5215,124.08203 1.2541,129.85718 -1.4272,259.72223 0.4609,389.57422 -80.1849,75.70596 -158.9848,152.85961 -241.5273,226.01168 -62.3968,55.0311 -124.4656,110.7256 -193.7617,157.0684 -143.4524,-96.9548 -266.2891,-219.9013 -391.5977,-338.41798 -9.9471,-12.38631 -24.6778,-19.82716 -34.4414,-32.35937 0.5268,-135.94865 0.1989,-271.89873 0.5918,-407.84766 -0.5422,-25.04925 1.6091,-50.11785 -0.5976,-75.11718 -0.7088,-16.96072 -2.335,-35.98573 8.2636,-50.39844 20.0401,-29.13285 53.7462,-44.09278 85.0528,-57.68164 101.5906,-42.72932 212.6863,-57.71454 322.2773,-59.05078 3.1083,-0.0215 6.2163,-0.0333 9.3242,-0.0352 z"
       id="rect4494-3" />
    <path
       inkscape:connector-curvature="0"
       style="display:inline;fill:#0e0e0e;fill-opacity:1;stroke:none;stroke-width:0.87723857;stroke-opacity:1"
       d="M 4274.5622,-120 A 516.211,213.89235 0 0 0 3759.7184,82.57422 h -1.3671 v 520.90234 c -0.863,5.1121 -1.3008,10.5695 -1.3008,16.38086 0,24.32253 9.6667,44.17868 29,59.56641 0,0 405.7936,400.57617 484,400.57617 74.6057,0 480,-400.57617 480,-400.57617 32.9279,-23.37669 46.4968,-46.67181 40.7226,-69.88477 V 82.57422 h -0.9668 A 516.211,213.89235 0 0 0 4274.5622,-120 Z m -5.7129,86.52539 c 1.9032,-0.001 3.806,0.007 5.709,0.0137 V 984.3418 c -1.525,1.0335 -3.0501,2.0673 -4.582,3.0918 -143.4524,-96.9548 -266.2891,-219.9013 -391.5977,-338.41798 -9.9471,-12.3863 -24.6778,-19.82716 -34.4414,-32.35937 0.5268,-135.94865 0.1989,-271.89873 0.5918,-407.84766 -0.5422,-25.04925 1.609,-50.11785 -0.5977,-75.11718 -0.7088,-16.96072 -2.3349,-35.98573 8.2637,-50.39844 20.0401,-29.13285 53.7461,-44.09278 85.0527,-57.68164 101.5906,-42.72932 212.6864,-57.71454 322.2774,-59.05078 3.1083,-0.0215 6.2163,-0.0333 9.3242,-0.0352 z m 5.8027,0.0137 c 2.5258,0.009 5.0509,0.0265 7.5762,0.0488 -2.5252,-0.0223 -5.0506,-0.0402 -7.5762,-0.0488 z m 8.7637,0.0586 c 2.3152,0.0225 4.6305,0.0516 6.9453,0.0859 -2.315,-0.0343 -4.6299,-0.0635 -6.9453,-0.0859 z m 8.5527,0.10937 c 2.4684,0.0396 4.9365,0.0872 7.4043,0.14063 -2.4679,-0.0533 -4.9358,-0.10114 -7.4043,-0.14063 z m 8.0157,0.1543 c 2.3981,0.0531 4.7958,0.11121 7.1933,0.17773 -2.3975,-0.0664 -4.7952,-0.12477 -7.1933,-0.17773 z m 9.0918,0.23242 c 2.2091,0.0646 4.4183,0.1365 6.6269,0.21289 -2.2086,-0.0763 -4.4178,-0.14838 -6.6269,-0.21289 z m 8.3066,0.27148 c 2.178,0.0783 4.3558,0.16189 6.5332,0.25196 -2.1771,-0.0899 -4.3555,-0.17377 -6.5332,-0.25196 z m 8.8516,0.35157 c 1.9965,0.0865 3.9923,0.17486 5.9882,0.27148 -1.9961,-0.0965 -3.9915,-0.18513 -5.9882,-0.27148 z m 8.5429,0.40039 c 2.0543,0.10397 4.1085,0.21115 6.1621,0.32617 -2.0536,-0.11488 -4.1078,-0.22233 -6.1621,-0.32617 z m 8.3262,0.45117 c 1.9573,0.11337 3.9145,0.22987 5.8711,0.35352 -1.9567,-0.12353 -3.9137,-0.24027 -5.8711,-0.35352 z m 9.0899,0.56445 c 1.8308,0.12107 3.6619,0.24275 5.4921,0.37305 -1.8303,-0.13019 -3.6612,-0.2521 -5.4921,-0.37305 z m 8.4296,0.5918 c 1.7451,0.12902 3.49,0.25691 5.2344,0.39453 -1.7442,-0.13751 -3.4895,-0.26562 -5.2344,-0.39453 z m 9.0235,0.70508 c 1.6009,0.13212 3.2023,0.26085 4.8027,0.40039 -1.6006,-0.13948 -3.2016,-0.26835 -4.8027,-0.40039 z m 8.9277,0.77539 c 1.3998,0.12773 2.7999,0.25122 4.1992,0.38476 -1.3992,-0.13348 -2.7995,-0.2571 -4.1992,-0.38476 z m 9.0879,0.87109 c 1.2291,0.12337 2.4587,0.24118 3.6875,0.36914 -1.2288,-0.12793 -2.4584,-0.24581 -3.6875,-0.36914 z m 7.8965,0.82419 c 1.4583,0.15822 2.9172,0.31173 4.375,0.47656 -1.4579,-0.16482 -2.9166,-0.31836 -4.375,-0.47656 z m 306.7246,117.79688 c 0.5165,10.30212 0.9062,20.62495 1.207,30.95898 -0.3008,-10.33403 -0.6905,-20.65686 -1.207,-30.95898 z m 1.5957,46.46679 c 0.2211,10.34418 0.3723,20.69788 0.4902,31.05078 -0.1179,-10.3529 -0.2691,-20.7066 -0.4902,-31.05078 z M 4440.8571,850.5566 c -3.0246,2.6669 -6.0615,5.3194 -9.0898,7.9825 3.0283,-2.663 6.0652,-5.3158 9.0898,-7.9825 z m -23.4433,20.584 c -2.5886,2.2604 -5.1831,4.5141 -7.7774,6.7676 2.5944,-2.2534 5.1888,-4.5073 7.7774,-6.7676 z m -11.2559,9.791 c -2.5456,2.2052 -5.0997,4.4011 -7.6523,6.5977 2.5525,-2.1965 5.1067,-4.3926 7.6523,-6.5977 z m -11.7949,10.1641 c -2.6403,2.263 -5.2901,4.514 -7.9395,6.7656 2.6498,-2.2517 5.2989,-4.5025 7.9395,-6.7656 z m -11.5586,9.8438 c -2.614,2.2121 -5.2389,4.4102 -7.8633,6.6093 2.6242,-2.1988 5.2495,-4.3975 7.8633,-6.6093 z m -11.8965,9.9921 c -2.506,2.0884 -5.0242,4.1617 -7.541,6.2364 2.5172,-2.0748 5.0347,-4.1478 7.541,-6.2364 z m -11.8809,9.8125 c -2.5644,2.0997 -5.1416,4.1821 -7.7187,6.2657 2.5769,-2.0832 5.1546,-4.1663 7.7187,-6.2657 z m -11.8906,9.6407 c -2.4403,1.9586 -4.8947,3.8993 -7.3476,5.8418 2.453,-1.9425 4.9072,-3.8832 7.3476,-5.8418 z m -12.2695,9.7343 c -2.4389,1.9132 -4.8931,3.8076 -7.3457,5.7032 2.4527,-1.8956 4.9067,-3.79 7.3457,-5.7032 z m -12.6543,9.8008 c -1.2675,0.9687 -2.5333,1.9388 -3.8047,2.9024 1.2713,-0.9635 2.5373,-1.9339 3.8047,-2.9024 z m -4.9082,3.7363 c -1.6532,1.2499 -3.3087,2.4954 -4.9688,3.7364 1.66,-1.2409 3.3157,-2.4866 4.9688,-3.7364 z m -6.0899,4.5723 c -1.7475,1.303 -3.4984,2.6018 -5.2539,3.8945 1.7554,-1.2926 3.5065,-2.5916 5.2539,-3.8945 z m -5.8496,4.332 c -1.864,1.3707 -3.7321,2.7371 -5.6054,4.0957 1.8738,-1.3589 3.741,-2.7247 5.6054,-4.0957 z m -6.1484,4.4864 c -1.8962,1.3733 -3.7971,2.7409 -5.7031,4.1015 1.9056,-1.3603 3.8073,-2.7285 5.7031,-4.1015 z m -6.1387,4.4121 c -1.9072,1.3598 -3.8189,2.7139 -5.7363,4.0605 1.9176,-1.3467 3.8289,-2.7006 5.7363,-4.0605 z m -6.4101,4.5312 c -1.8254,1.2797 -3.6533,2.5551 -5.4883,3.8223 1.8348,-1.2671 3.663,-2.5428 5.4883,-3.8223 z m -6.4161,4.459 c -1.8682,1.2868 -3.7405,2.5684 -5.6191,3.8418 1.8786,-1.2735 3.7508,-2.5549 5.6191,-3.8418 z"
       id="rect4736-3" />
    <path
       inkscape:connector-curvature="0"
       style="fill:#000000;fill-opacity:1;stroke:none;stroke-opacity:1"
       d="M 2877.0322,-120 A 516.211,213.89235 0 0 0 2362.1885,82.57422 h -1.3672 v 520.90234 c -0.863,5.1121 -1.3008,10.5695 -1.3008,16.38086 0,24.32253 9.6667,44.17868 29,59.56641 0,0 405.7936,400.57617 484,400.57617 74.6058,0 480,-400.57617 480,-400.57617 32.9279,-23.37669 46.4969,-46.67181 40.7227,-69.88477 V 82.57422 h -0.9668 A 516.211,213.89235 0 0 0 2877.0322,-120 Z m 2.4883,86.54492 c 43.8788,0.225 87.7029,2.50124 131.2676,7.81641 84.1648,11.59572 169.912,28.28872 244.1367,71.57422 18.6268,12.02982 40.6892,23.22863 49.8281,44.76172 2.066,41.2085 2.1064,82.73402 2.5215,124.08203 0.8538,88.4054 -0.094,176.8146 -0.2051,265.2207 h -427.5488 v 502.6504 c -2.3507,1.6045 -4.707,3.2001 -7.0742,4.7832 -143.4524,-96.9548 -266.289,-219.9013 -391.5977,-338.41798 -9.9471,-12.3863 -24.6778,-19.82716 -34.4414,-32.35937 0.1765,-45.55211 0.2452,-91.10392 0.2891,-136.65625 h 432.8242 z M 2446.999,208.80859 c -0.059,20.41296 -0.098,40.82525 -0.1308,61.23829 0.032,-20.41296 0.072,-40.82537 0.1308,-61.23829 z m -0.1699,90.77539 c -0.01,5.67701 -0.012,11.35425 -0.018,17.03125 0.01,-5.6771 0.011,-11.35414 0.018,-17.03125 z m 860.5195,270.54688 c 0.014,1.57748 0.026,3.15495 0.041,4.73242 -0.015,-1.57748 -0.027,-3.15494 -0.041,-4.73242 z M 3020.0029,871.0371 c -1.8522,1.6175 -3.7093,3.2296 -5.5644,4.8438 1.8552,-1.6142 3.7121,-3.2262 5.5644,-4.8438 z m -11.1191,9.6719 c -2.0639,1.7882 -4.1347,3.5688 -6.2031,5.3515 2.0684,-1.7827 4.1392,-3.5633 6.2031,-5.3515 z m -11.7227,10.1055 c -2.1457,1.8397 -4.2994,3.6695 -6.4511,5.5019 2.1517,-1.8323 4.3053,-3.6622 6.4511,-5.5019 z m -11.4336,9.7402 c -2.2803,1.9308 -4.5692,3.8504 -6.8574,5.7715 2.288,-1.9209 4.5773,-3.8409 6.8574,-5.7715 z m -11.7988,9.916 c -2.1804,1.8184 -4.3701,3.6254 -6.5586,5.4336 2.1886,-1.8081 4.3782,-3.6152 6.5586,-5.4336 z m -11.9082,9.8418 c -2.0958,1.7175 -4.2004,3.424 -6.3047,5.1309 2.1044,-1.7069 4.2087,-3.4133 6.3047,-5.1309 z m -12.0039,9.7383 c -2.0108,1.6151 -4.0295,3.2199 -6.0488,4.8242 2.0194,-1.6043 4.0378,-3.2091 6.0488,-4.8242 z m -12.043,9.5644 c -2.0681,1.6244 -4.1448,3.2378 -6.2226,4.8496 2.0777,-1.6116 4.1547,-3.2254 6.2226,-4.8496 z m -11.9765,9.291 c -3.2346,2.4791 -6.4718,4.9528 -9.7325,7.3985 -2.0086,1.5066 -4.0219,3.0068 -6.041,4.5 -8.0743,5.9714 -16.2346,11.8332 -24.4922,17.5683 -1.9793,1.3748 -3.9662,2.7417 -5.957,4.1016 1.9914,-1.3603 3.9772,-2.7265 5.957,-4.1016 8.2577,-5.7352 16.4178,-11.5969 24.4922,-17.5683 2.0186,-1.4929 4.0328,-2.9938 6.041,-4.5 3.2607,-2.4456 6.4978,-4.9195 9.7325,-7.3985 z"
       id="rect4494-7" />
    <path
       style="display:inline;fill:currentColor;stroke-width:0.59303933"
       d="m 5682.9455,1752.0596 c -132.0676,0.068 -259.0483,21.1073 -354.8164,58.789 -95.7681,37.6816 -153.0391,89.1395 -160.0274,143.7852 h -1.3671 v 520.9023 c -0.863,5.1121 -1.3008,10.5696 -1.3008,16.3809 0,24.3225 9.6667,44.1787 29,59.5664 0,0 405.7936,400.5762 484,400.5762 19.9024,0 63.3519,-28.5159 116.3593,-70.3204 -13.5534,-22.0118 -13.6082,-52.6764 3.9532,-72.4824 4.4588,-3.7585 11.491,-9.2064 7.8535,-15.8867 -10.6049,-0.4199 -21.7043,-2.4649 -31.752,-6.6953 -31.0414,25.7057 -62.9128,50.3643 -96.4882,72.8184 -143.4524,-96.9548 -266.2891,-219.9014 -391.5977,-338.418 -9.9471,-12.3864 -24.6778,-19.8271 -34.4414,-32.3594 0.5268,-135.9486 0.1989,-271.8987 0.5918,-407.8476 -0.5422,-25.0493 1.609,-50.1179 -0.5977,-75.1172 -0.7088,-16.9607 -2.3349,-35.9858 8.2637,-50.3985 20.0401,-29.1329 53.7461,-44.0927 85.0527,-57.6816 101.5906,-42.7293 212.6864,-57.7145 322.2774,-59.0508 3.1083,-0.021 6.2163,-0.033 9.3242,-0.035 46.6188,-0.029 93.1901,2.1896 139.4688,7.8359 84.1648,11.5957 169.912,28.2887 244.1367,71.5742 18.6268,12.0299 40.6892,23.2286 49.8281,44.7617 2.066,41.2085 2.1064,82.7341 2.5215,124.0821 1.1065,114.5743 -0.8467,229.1543 -0.025,343.7265 7.8841,10.6347 12.6784,23.4728 12.6328,36.8985 -1.0007,3.7377 -1.3634,9.7383 3.7559,10.6035 15.38,-15.9534 37.8567,-27.0897 60.4179,-23.7285 3.1689,0.5051 6.2261,1.2597 9.1875,2.2187 v -501.9238 h -0.9668 c -6.9919,-54.6743 -64.3182,-106.1558 -160.1718,-143.8418 -95.8537,-37.686 -222.9354,-58.7066 -355.0723,-58.7324 z m 0,186.5 c -45.8618,0 -89.9446,9.0946 -132.2481,27.2812 -41.9081,18.1865 -78.1839,42.5999 -108.8242,73.2402 -30.6404,30.6404 -55.0537,67.0134 -73.2402,109.1192 -18.1865,42.1057 -27.2793,86.0896 -27.2793,131.9512 0,45.8618 9.0928,89.8453 27.2793,131.9511 18.1865,42.1058 42.5998,78.4789 73.2402,109.1192 30.6403,30.6404 67.0133,55.0536 109.1192,73.2402 42.1058,18.1865 86.0913,27.2793 131.9531,27.2793 42.1387,0 82.6903,-7.6835 121.6582,-23.0371 -8.1158,-8.8246 -14.2663,-19.7293 -17.1738,-31.3731 -16.6286,6.5216 -32.8769,9.645 -48.7403,9.3399 -1.9768,-4.7444 -2.9648,-8.1052 -2.9648,-10.082 0,-1.9768 0.6925,-4.7446 2.0762,-8.3028 1.3838,-3.5583 2.0761,-6.7208 2.0761,-9.4883 -7.5119,-1.5814 -14.7277,-5.1406 -21.6465,-10.6757 -6.9188,-5.535 -12.355,-10.9712 -16.3086,-16.3086 -3.9536,-5.3374 -8.5009,-12.1564 -13.6406,-20.459 -1.1861,-6.7211 0.6928,-14.2327 5.6348,-22.5352 4.942,-8.3025 9.3901,-16.2107 13.3437,-23.7226 3.9536,-7.5118 4.5449,-14.2317 1.7774,-20.1621 -11.4655,1.5815 -22.8319,-0.5931 -34.0996,-6.5235 -11.2678,-5.9304 -23.1283,-13.4418 -35.5821,-22.5351 -12.4538,-9.0932 -22.8321,-15.4202 -31.1347,-18.9785 -4.349,-1.5814 -11.1681,-3.9542 -20.459,-7.1172 -9.291,-3.1628 -17.2965,-6.1271 -24.0176,-8.8946 -6.7211,-2.7675 -13.2445,-5.7335 -19.5703,-8.8965 -2.7675,-1.5814 -6.6225,-4.3471 -11.5645,-8.3007 -4.9419,-3.9536 -9.5885,-6.9197 -13.9375,-8.8965 -4.3489,-1.9768 -8.8943,-2.9649 -13.6386,-2.9649 0.3953,-9.4886 -2.7692,-21.2518 -9.4903,-35.2871 -6.7211,-14.0353 -10.0799,-22.8303 -10.08,-26.3886 2.3722,-11.07 0.7909,-28.2695 -4.7442,-51.5957 -5.5349,-23.3262 -6.525,-41.7102 -2.9668,-55.1524 1.9767,-8.698 7.8097,-24.3141 17.4961,-46.8496 9.6863,-22.5355 15.1225,-40.5246 16.3086,-53.9668 0.3954,-2.7676 -1.2851,-6.4241 -5.041,-10.9707 -3.7559,-4.5466 -5.0416,-8.9948 -3.8555,-13.3437 1.186,-5.9304 8.0071,-12.7515 20.461,-20.461 12.4538,-7.7096 22.6338,-12.9473 30.541,-15.7148 5.9303,-1.9768 14.9239,-2.3717 26.9824,-1.1856 12.0585,1.1861 21.054,1.1861 26.9844,0 3.9536,-0.7907 11.6635,-2.0762 23.1289,-3.8554 11.4654,-1.7791 19.9649,-3.3605 25.5,-4.7442 5.535,-1.3838 12.5525,-3.7566 21.0527,-7.1172 8.5003,-3.3605 15.7162,-7.4118 21.6465,-12.1562 7.5119,1.5815 14.8249,1.5815 21.9414,0 5.1397,4.349 13.2445,8.3031 24.3145,11.8613 11.0701,3.5582 20.9544,6.5224 29.6523,8.8945 8.6979,2.3721 15.9138,7.1161 21.6465,14.2325 5.7327,7.1166 7.6096,16.2111 5.6328,27.2812 l -7.1152,2.9649 c -4.349,1.5814 -11.9597,2.0754 -22.8321,1.4824 -10.7427,-0.586 -22.1641,-3.4011 -34.2578,-8.4258 0.971,0.4544 1.7142,1.2869 2.2324,2.4961 0.5931,1.3837 0.7915,3.2606 0.5938,5.6328 -0.1977,2.3722 -0.4934,4.4476 -0.8887,6.2266 -0.3954,1.7792 -0.9886,4.0528 -1.7793,6.8203 -0.7907,2.7676 -1.1875,4.3487 -1.1875,4.7441 4.3489,2.3722 12.9497,6.9195 25.7989,13.6406 12.8492,6.7211 22.5352,12.0582 29.0586,16.0118 6.5234,3.9536 13.9356,9.7846 22.2382,17.4941 8.3026,7.7095 14.4312,16.1119 18.3848,25.2051 -3.5582,4.349 -7.6116,7.4123 -12.1582,9.1914 -4.5467,1.7792 -8.4989,2.6699 -11.8594,2.6699 -3.3605,0 -8.2055,-0.2975 -14.5312,-0.8906 -6.3258,-0.593 -11.0696,-0.8887 -14.2325,-0.8887 -6.3257,7.1164 -8.3018,14.2331 -5.9296,21.3496 -8.6979,3.9536 -15.4198,8.3998 -20.1641,13.3418 -4.7443,4.942 -7.8076,9.3902 -9.1914,13.3438 -1.3837,3.9536 -2.9649,10.0822 -4.7441,18.3847 -1.779,8.3025 -3.8544,15.2208 -6.2266,20.7559 -1.5814,5.1396 -4.6468,9.9828 -9.1934,14.5293 -4.5467,4.5467 -8.104,8.9948 -10.6738,13.3437 -2.5699,4.3489 -3.2623,10.0828 -2.0762,17.1993 1.1861,6.3258 1.2853,12.6507 0.2969,18.9765 -0.9884,6.3257 -2.5696,13.1448 -4.7441,20.459 -2.1745,7.3141 -3.6586,13.3435 -4.4493,18.0879 l -2.9648,-1.7793 c -2.3721,-1.5814 -5.4355,-3.6567 -9.1914,-6.2266 -3.756,-2.5698 -7.7101,-5.5339 -11.8613,-8.8945 -4.1513,-3.3606 -8.4011,-7.4139 -12.75,-12.1582 -4.349,-4.7443 -7.9064,-9.488 -10.6739,-14.2324 -2.3721,-3.9536 -6.227,-6.6222 -11.5644,-8.0059 -5.3374,-1.3838 -11.96,-2.1753 -19.8672,-2.373 -7.9072,-0.1976 -13.0478,-0.4934 -15.4199,-0.8887 -6.3258,2.3721 -10.6747,6.7212 -13.0469,13.0469 -4.3489,11.8608 -2.7676,23.3265 4.7441,34.3965 7.512,11.4654 15.815,12.2551 24.9082,2.3711 7.1165,-7.9071 13.2451,-12.0578 18.3848,-12.4532 5.1397,-0.3953 8.7962,1.8783 10.9707,6.8203 2.1745,4.942 3.5595,10.4756 4.1524,16.6036 0.5931,6.1281 0.6902,12.1574 0.2949,18.0878 1.5814,0.7907 6.4263,2.0764 14.5312,3.8555 8.1049,1.7791 13.3427,5.2392 15.7149,10.3789 0,0.3954 -0.099,5.4348 -0.2969,15.1211 -0.1977,9.6863 0.4947,14.7278 2.0762,15.1231 5.9304,9.0933 18.9772,6.7204 39.1406,-7.1172 6.3257,-4.349 13.8373,-7.6108 22.5352,-9.7852 8.698,-2.1745 17.0011,-3.4582 24.9082,-3.8535 7.9072,-0.3954 16.4068,-0.6929 25.5,-0.8906 9.0934,-0.1976 17.1979,-0.2949 24.3144,-0.2949 6.7211,4.349 16.9011,8.1046 30.541,11.2675 13.64,3.1629 23.4251,6.1271 29.3555,8.8946 4.7443,2.7676 11.8609,4.2495 21.3496,4.4472 9.4886,0.1977 16.8038,1.8781 21.9434,5.041 -1.1861,12.6515 -5.3387,25.1053 -12.4551,37.3614 -0.9491,1.6345 -1.8916,3.2165 -2.8301,4.7597 6.0715,2.8992 11.5861,6.8924 16.1016,12.0645 2.9697,3.9318 9.285,7.6605 12.959,2.3906 3.9328,-10.4128 1.3119,-22.61 6.5195,-32.8281 9.5266,-19.4785 29.2071,-31.1873 50.0312,-35.541 15.9779,-39.687 23.9668,-81.0248 23.9668,-124.0117 0,-45.8616 -9.0928,-89.8454 -27.2793,-131.9512 -18.1865,-42.1059 -42.5998,-78.4788 -73.2402,-109.1192 -30.6403,-30.6403 -67.0133,-55.0537 -109.1191,-73.2402 -42.1058,-18.1866 -86.0895,-27.2812 -131.9512,-27.2812 z m 7.709,107.9336 c -3.163,1.5815 -6.4247,4.0516 -9.7852,7.4121 -3.3605,3.3606 -6.029,6.2275 -8.0058,8.5996 -1.9768,2.3722 -4.7446,3.5586 -8.3028,3.5586 -3.5583,0 -7.314,-1.9761 -11.2676,-5.9297 -1.186,2.7676 -4.3484,7.807 -9.4882,15.1211 -5.1396,7.3142 -8.3042,13.1472 -9.4903,17.4961 6.3258,4.349 13.6408,7.6106 21.9434,9.7851 8.3024,2.1745 18.681,4.1505 31.1348,5.9297 12.4538,1.779 20.2609,2.8663 23.4238,3.2617 0,-1.1861 -1.7778,-5.7335 -5.336,-13.6406 -3.5582,-7.9072 -6.9191,-16.8015 -10.082,-26.6855 -3.1629,-9.884 -4.7441,-18.187 -4.7441,-24.9082 z m 343.3691,405.5664 c -9.3471,0 -18.5498,0.7201 -27.6094,2.1582 -7.4777,0 -11.2168,4.4573 -11.2168,13.373 0,25.5968 -11.6474,43.2129 -34.9433,52.8477 -23.296,9.6347 -44.004,5.5346 -62.1231,-12.2969 -5.752,-7.7653 -12.0799,-8.9156 -18.9824,-3.4512 -9.4909,7.7654 -23.0069,21.2833 -40.5508,40.5528 -5.7521,7.1901 -4.6017,13.3739 3.4512,18.5507 18.4067,17.8315 22.5759,38.5396 12.5098,62.1231 -9.491,22.7207 -27.3222,34.0801 -53.4942,34.0801 -9.7785,0 -14.6679,4.1711 -14.6679,12.5117 -2.8761,19.2694 -2.8761,38.251 0,56.9453 0,8.6281 5.6076,12.9414 16.8242,12.9414 23.0083,-2.3008 39.5471,8.7724 49.6133,33.2187 9.7785,23.5836 5.6073,44.2916 -12.5118,62.1231 -6.9025,4.8893 -7.4767,11.073 -1.7246,18.5508 10.6414,12.367 23.5832,26.027 38.8262,40.9824 6.9025,4.3141 13.2284,3.8839 18.9805,-1.293 16.3934,-20.4199 37.2455,-25.4534 62.5547,-15.0996 24.1587,10.0662 35.2319,27.7534 33.2187,53.0625 0,9.7786 4.1693,14.668 12.5098,14.668 13.805,2.3008 23.4398,3.4512 28.9043,3.4512 5.1768,0 14.2375,-1.1504 27.1797,-3.4512 8.0529,0 12.0781,-4.3133 12.0781,-12.9414 0,-25.5968 11.5764,-43.2859 34.7285,-53.0645 23.1521,-9.7785 43.9312,-5.3192 62.3379,13.375 5.7521,7.4777 11.9359,8.34 18.5508,2.5879 14.6678,-12.9422 28.1857,-26.6042 40.5527,-40.9844 5.1769,-6.6148 4.6007,-12.7986 -1.7265,-18.5507 -18.9819,-17.5438 -23.8694,-38.1059 -14.6661,-61.6895 9.7786,-23.2959 26.8896,-34.9453 51.336,-34.9453 l 2.5898,1.7266 c 9.491,0 14.2364,-4.6014 14.2364,-13.8047 2.876,-19.2695 2.876,-37.8209 0,-55.6524 -1e-4,-9.2033 -5.0335,-13.8047 -15.0997,-13.8047 -26.1719,0 -43.2849,-11.0732 -51.3379,-33.2187 -9.4909,-23.5835 -5.1776,-44.2896 12.9415,-62.1211 6.9024,-4.3141 7.4786,-10.4978 1.7265,-18.5508 -10.9289,-12.367 -24.0147,-26.029 -39.2578,-40.9844 -6.3273,-4.0264 -12.511,-3.3082 -18.5508,2.1563 -16.1058,20.1323 -36.8138,25.0217 -62.123,14.668 -24.1588,-9.7786 -35.3741,-27.7539 -33.6485,-53.9258 0,-9.7786 -4.3152,-14.666 -12.9433,-14.666 -9.6348,-1.4381 -19.1256,-2.1582 -28.4727,-2.1582 z m -0.4316,167.3867 c 23.0083,0 42.8541,8.1234 59.5351,24.373 16.6811,16.2496 25.0215,35.4482 25.0215,57.5938 0,23.5835 -8.3404,43.5003 -25.0215,59.75 -16.681,16.2496 -36.5268,24.373 -59.5351,24.373 -22.1456,0 -41.3422,-8.1234 -57.5918,-24.373 -16.2497,-16.2497 -24.375,-36.1665 -24.375,-59.75 0,-22.1456 8.1253,-41.3442 24.375,-57.5938 16.2496,-16.2496 35.4462,-24.373 57.5918,-24.373 z"
       id="path4855-6"
       inkscape:connector-curvature="0" />
    <path
       style="display:inline;fill:#0e0e0e;fill-opacity:1;stroke:none;stroke-width:0.87723857;stroke-opacity:1"
       d="m 4233.3156,1752.0596 c -132.0676,0.068 -259.0482,21.1074 -354.8164,58.7891 -95.7681,37.6816 -153.039,89.1394 -160.0273,143.7851 h -1.3672 v 520.9024 c -0.863,5.1121 -1.3008,10.5695 -1.3008,16.3808 0,24.3225 9.6667,44.1787 29,59.5664 0,0 405.7936,400.5762 484,400.5762 19.9024,0 63.352,-28.5158 116.3594,-70.3203 -13.5534,-22.0118 -13.6083,-52.6764 3.9531,-72.4824 4.4588,-3.7585 11.491,-9.2064 7.8535,-15.8867 -20.5582,-0.814 -42.9829,-7.7099 -55.9785,-24.8672 -17.5477,-25.3396 -17.5615,-57.8692 -15.2812,-87.3926 -3.554,-35.4953 26.5729,-71.0525 62.6425,-71.3848 4.6148,1.6944 11.4912,0.04 11.9356,-5.7773 -16.8247,-14.9629 -27.5653,-38.4233 -23.4844,-61.1934 8.489,-27.8459 30.2122,-49.0382 51.459,-67.8281 9.452,-10.4824 21.8108,-18.593 35.8223,-21.3047 20.0985,-4.2189 43.4364,0.5941 57.3398,16.5195 2.9697,3.9318 9.285,7.6607 12.959,2.3907 3.9328,-10.4128 1.3119,-22.6101 6.5195,-32.8282 11.9816,-24.4982 40.0226,-36.7195 66.2031,-37.455 13.8817,0.1226 27.7954,-0.1169 41.6485,0.955 34.9133,-1.7474 67.5288,29.295 67.4101,64.2598 -1.0007,3.7377 -1.3634,9.7383 3.7559,10.6035 15.38,-15.9534 37.8567,-27.0897 60.4179,-23.7285 3.1689,0.5051 6.2261,1.2598 9.1875,2.2188 v -501.9239 h -0.9668 c -6.992,-54.6743 -64.3182,-106.1559 -160.1718,-143.8418 -95.8536,-37.686 -222.9355,-58.7066 -355.0723,-58.7324 z m -5.7129,86.5254 c 1.9032,0 3.806,0.01 5.709,0.014 v 1017.8027 c -1.525,1.0335 -3.0501,2.0673 -4.582,3.0918 -143.4524,-96.9548 -266.2891,-219.9013 -391.5977,-338.418 -9.9471,-12.3863 -24.6778,-19.827 -34.4414,-32.3593 0.5268,-135.9486 0.1989,-271.8988 0.5918,-407.8477 -0.5422,-25.0493 1.6091,-50.1179 -0.5976,-75.1172 -0.7088,-16.9607 -2.335,-35.9857 8.2636,-50.3984 20.0401,-29.1329 53.7462,-44.0928 85.0528,-57.6817 101.5906,-42.7293 212.6863,-57.7144 322.2773,-59.0507 3.1083,-0.021 6.2163,-0.033 9.3242,-0.035 z m 356.7871,613.4746 c -9.3471,0 -18.5498,0.7182 -27.6093,2.1563 -7.4777,0 -11.2168,4.4573 -11.2168,13.373 0,25.5968 -11.6474,43.2129 -34.9434,52.8477 -23.2959,9.6347 -44.004,5.5365 -62.123,-12.295 -5.7521,-7.7652 -12.0799,-8.9156 -18.9825,-3.4511 -9.4909,7.7653 -23.0069,21.2832 -40.5507,40.5527 -5.7521,7.1901 -4.6018,13.3739 3.4511,18.5508 18.4067,17.8314 22.576,38.5375 12.5098,62.1211 -9.4909,22.7207 -27.3221,34.082 -53.4941,34.082 -9.7786,0 -14.668,4.1692 -14.668,12.5098 -2.876,19.2694 -2.876,38.253 0,56.9472 0,8.6282 5.6076,12.9414 16.8242,12.9414 23.0084,-2.3008 39.5472,8.7725 49.6133,33.2188 9.7785,23.5835 5.6073,44.2896 -12.5117,62.1211 -6.9025,4.8893 -7.4767,11.073 -1.7246,18.5508 10.6413,12.367 23.5831,26.0289 38.8261,40.9843 6.9025,4.3141 13.2284,3.882 18.9805,-1.2949 16.3934,-20.4199 37.2455,-25.4534 62.5547,-15.0996 24.1588,10.0661 35.232,27.7553 33.2187,53.0645 0,9.7786 4.1693,14.6679 12.5098,14.6679 13.805,2.3008 23.4398,3.4512 28.9043,3.4512 5.1769,0 14.2375,-1.1504 27.1797,-3.4512 8.0529,0 12.0781,-4.3152 12.0781,-12.9433 0,-25.5968 11.5764,-43.284 34.7285,-53.0625 23.1521,-9.7786 43.9312,-5.3212 62.3379,13.373 5.7521,7.4777 11.9359,8.3419 18.5508,2.5899 14.6678,-12.9422 28.1857,-26.6042 40.5527,-40.9844 5.1769,-6.6149 4.6007,-12.7987 -1.7265,-18.5508 -18.9819,-17.5438 -23.8694,-38.1078 -14.6661,-61.6914 9.7786,-23.2959 26.8896,-34.9434 51.336,-34.9434 l 2.5898,1.7247 c 9.491,0 14.2364,-4.6014 14.2364,-13.8047 2.876,-19.2695 2.876,-37.819 0,-55.6504 -1e-4,-9.2034 -5.0335,-13.8047 -15.0997,-13.8047 -26.1719,0 -43.2849,-11.0732 -51.3379,-33.2188 -9.4909,-23.5835 -5.1776,-44.2915 12.9415,-62.123 6.9024,-4.3141 7.4786,-10.4979 1.7265,-18.5508 -10.9289,-12.367 -24.0147,-26.027 -39.2578,-40.9824 -6.3273,-4.0265 -12.511,-3.3082 -18.5508,2.1562 -16.1058,20.1324 -36.8138,25.0217 -62.123,14.668 -24.1588,-9.7786 -35.3741,-27.7538 -33.6484,-53.9258 0,-9.7785 -4.3153,-14.6679 -12.9434,-14.6679 -9.6347,-1.4381 -19.1255,-2.1563 -28.4727,-2.1563 z m -0.4316,167.3848 c 23.0083,0 42.8541,8.1253 59.5351,24.375 16.6811,16.2496 25.0215,35.4462 25.0215,57.5918 0,23.5835 -8.3404,43.5003 -25.0215,59.75 -16.681,16.2496 -36.5268,24.375 -59.5351,24.375 -22.1455,0 -41.3421,-8.1254 -57.5918,-24.375 -16.2496,-16.2497 -24.375,-36.1665 -24.375,-59.75 0,-22.1456 8.1254,-41.3422 24.375,-57.5918 16.2497,-16.2497 35.4463,-24.375 57.5918,-24.375 z"
       id="rect4736-3-6"
       inkscape:connector-curvature="0" />
    <path
       style="fill:#000000;fill-opacity:1;stroke:none;stroke-opacity:1"
       d="m 2835.7857,1752.0596 c -132.0676,0.068 -259.0483,21.1073 -354.8165,58.789 -95.7681,37.6816 -153.039,89.1395 -160.0273,143.7852 h -1.3672 v 520.9023 c -0.863,5.1121 -1.3008,10.5696 -1.3008,16.3809 0,24.3225 9.6667,44.1787 29,59.5664 0,0 405.7936,400.5762 484,400.5762 19.9024,0 63.352,-28.5158 116.3594,-70.3203 -13.5534,-22.0118 -13.6082,-52.6765 3.9531,-72.4825 4.4589,-3.7585 11.491,-9.2064 7.8535,-15.8867 -20.5582,-0.814 -42.9829,-7.7099 -55.9785,-24.8672 -17.5476,-25.3396 -17.5614,-57.8691 -15.2812,-87.3925 -3.554,-35.4953 26.573,-71.0525 62.6426,-71.3848 4.6147,1.6944 11.4911,0.04 11.9355,-5.7774 -16.8247,-14.9628 -27.5653,-38.4232 -23.4844,-61.1933 8.4891,-27.8459 30.2122,-49.0382 51.459,-67.8281 9.452,-10.4824 21.8108,-18.593 35.8223,-21.3047 20.0985,-4.2189 43.4364,0.5941 57.3398,16.5195 2.9697,3.9318 9.2851,7.6606 12.959,2.3906 3.9329,-10.4128 1.312,-22.61 6.5195,-32.8281 11.9817,-24.4982 40.0227,-36.7196 66.2032,-37.4551 13.8816,0.1226 27.7953,-0.1169 41.6484,0.9551 34.9133,-1.7474 67.5288,29.2949 67.4101,64.2598 -1.0007,3.7377 -1.3634,9.7383 3.7559,10.6035 15.38,-15.9534 37.8567,-27.0897 60.4179,-23.7285 3.1689,0.505 6.2261,1.2597 9.1875,2.2187 v -501.9238 h -0.9668 c -6.992,-54.6743 -64.3182,-106.1559 -160.1718,-143.8418 -95.8535,-37.686 -222.9354,-58.7066 -355.0722,-58.7324 z m 2.4882,86.5449 c 43.8788,0.225 87.7029,2.5013 131.2676,7.8164 84.1648,11.5957 169.912,28.2887 244.1367,71.5742 18.6268,12.0299 40.6892,23.2286 49.8281,44.7617 2.066,41.2085 2.1064,82.7341 2.5215,124.0821 0.8538,88.4054 -0.094,176.8146 -0.2051,265.2207 H 2838.2739 V 2854.71 c -2.3507,1.6045 -4.707,3.2001 -7.0742,4.7832 -143.4524,-96.9548 -266.2889,-219.9013 -391.5976,-338.418 -9.9471,-12.3863 -24.6778,-19.8271 -34.4414,-32.3594 0.1765,-45.5521 0.2451,-91.1039 0.289,-136.6562 h 432.8242 z m 348.586,613.4551 c -9.3472,0 -18.5499,0.7182 -27.6094,2.1562 -7.4777,0 -11.2168,4.4574 -11.2168,13.3731 0,25.5968 -11.6474,43.2129 -34.9434,52.8476 -23.2959,9.6348 -44.0039,5.5366 -62.123,-12.2949 -5.7521,-7.7653 -12.0799,-8.9156 -18.9824,-3.4512 -9.491,7.7654 -23.007,21.2833 -40.5508,40.5528 -5.7521,7.1901 -4.6018,13.3739 3.4512,18.5507 18.4066,17.8315 22.5759,38.5376 12.5097,62.1211 -9.4909,22.7208 -27.3221,34.0821 -53.4941,34.0821 -9.7786,0 -14.668,4.1712 -14.668,12.5117 -2.876,19.2695 -2.876,38.251 0,56.9453 0,8.6281 5.6077,12.9414 16.8242,12.9414 23.0084,-2.3008 39.5472,8.7724 49.6133,33.2188 9.7786,23.5835 5.6074,44.2915 -12.5117,62.123 -6.9025,4.8893 -7.4767,11.0711 -1.7246,18.5488 10.6413,12.367 23.5831,26.029 38.8262,40.9844 6.9025,4.3141 13.2283,3.882 18.9804,-1.2949 16.3935,-20.4199 37.2455,-25.4515 62.5547,-15.0977 24.1588,10.0662 35.232,27.7534 33.2188,53.0625 0,9.7786 4.1692,14.668 12.5097,14.668 13.805,2.3008 23.4398,3.4512 28.9043,3.4512 5.1769,0 14.2375,-1.1504 27.1797,-3.4512 8.0529,0 12.0781,-4.3152 12.0781,-12.9434 0,-25.5968 11.5764,-43.2839 34.7285,-53.0625 23.1521,-9.7785 43.9312,-5.3212 62.3379,13.3731 5.7521,7.4777 11.9359,8.3419 18.5508,2.5898 14.6678,-12.9422 28.1857,-26.6041 40.5527,-40.9843 5.1769,-6.6149 4.6007,-12.7987 -1.7265,-18.5508 -18.9819,-17.5438 -23.8694,-38.1078 -14.6661,-61.6914 9.7786,-23.296 26.8896,-34.9434 51.336,-34.9434 l 2.5898,1.7266 c 9.491,0 14.2364,-4.6033 14.2364,-13.8067 2.876,-19.2694 2.876,-37.8189 0,-55.6504 -1e-4,-9.2033 -5.0335,-13.8046 -15.0997,-13.8046 -26.1719,0 -43.2849,-11.0733 -51.3379,-33.2188 -9.4909,-23.5835 -5.1776,-44.2916 12.9415,-62.123 6.9024,-4.3141 7.4786,-10.4979 1.7265,-18.5508 -10.9289,-12.367 -24.0147,-26.027 -39.2578,-40.9824 -6.3273,-4.0265 -12.511,-3.3083 -18.5508,2.1562 -16.1058,20.1323 -36.8138,25.0217 -62.123,14.668 -24.1588,-9.7786 -35.374,-27.7539 -33.6484,-53.9258 0,-9.7785 -4.3152,-14.668 -12.9434,-14.668 -9.6347,-1.438 -19.1255,-2.1562 -28.4726,-2.1562 z m -0.4317,167.3847 c 23.0084,0 42.8541,8.1254 59.5351,24.375 16.6811,16.2496 25.0215,35.4463 25.0215,57.5918 0,23.5836 -8.3404,43.5004 -25.0215,59.75 -16.681,16.2496 -36.5267,24.375 -59.5351,24.375 -22.1455,0 -41.3421,-8.1254 -57.5918,-24.375 -16.2496,-16.2496 -24.375,-36.1664 -24.375,-59.75 0,-22.1455 8.1254,-41.3422 24.375,-57.5918 16.2497,-16.2496 35.4463,-24.375 57.5918,-24.375 z"
       id="rect4494-7-3"
       inkscape:connector-curvature="0" />
    <g
       id="g4517"
       transform="matrix(0.60553633,0,0,-0.60553633,236.6782,704.62685)">
      <path
         id="path4515"
         d="m 1173,594 q 10,-62 0,-129 0,-32 -33,-32 l -6,4 q -85,0 -119,-81 -32,-82 34,-143 22,-20 4,-43 -43,-50 -94,-95 -23,-20 -43,6 -64,65 -144.5,31 Q 691,78 691,-11 q 0,-30 -28,-30 -45,-8 -63,-8 -19,0 -67,8 -29,0 -29,34 7,88 -77,123 -88,36 -145,-35 -20,-18 -44,-3 -53,52 -90,95 -20,26 4,43 63,62 29,144 -35,85 -115,77 -39,0 -39,30 -10,65 0,132 0,29 34,29 91,0 124,79 35,82 -29,144 -28,18 -8,43 61,67 94,94 24,19 44,-8 63,-62 144,-28.5 81,33.5 81,122.5 0,31 26,31 63,10 130,0 30,0 30,-34 -6,-91 78,-125 88,-36 144,34 21,19 43,5 53,-52 91,-95 20,-28 -4,-43 -63,-62 -30,-144 28,-77 119,-77 35,0 35,-32 z M 600,337 q 80,0 138,56.5 58,56.5 58,138.5 0,77 -58,133.5 Q 680,722 600,722 523,722 466.5,665.5 410,609 410,532 410,450 466.5,393.5 523,337 600,337 Z"
         inkscape:connector-curvature="0"
         style="fill:currentColor" />
    </g>
    <path
       inkscape:connector-curvature="0"
       style="fill:#000000;fill-opacity:1;stroke:none;stroke-opacity:1"
       d="M 600.004,-120 A 516.211,213.89235 0 0 0 85.160298,82.57422 h -1.3672 v 520.90234 c -0.863,5.1121 -1.3008,10.5695 -1.3008,16.38086 0,24.32253 9.6667,44.17868 29.000002,59.56641 0,0 405.7936,400.57617 484,400.57617 74.6058,0 480,-400.57617 480,-400.57617 32.9279,-23.37669 46.4969,-46.67181 40.7227,-69.88477 V 82.57422 h -0.9668 A 516.211,213.89235 0 0 0 600.004,-120 Z m -5.7129,86.52539 c 46.6188,-0.0286 93.1901,2.18964 139.4688,7.83594 84.1648,11.59572 169.912,28.28872 244.1367,71.57422 18.6268,12.02982 40.6892,23.22863 49.8281,44.76172 2.066,41.2085 2.1064,82.73402 2.5215,124.08203 1.2541,129.85718 -1.4272,259.72223 0.4609,389.57422 C 950.5222,680.05948 871.7223,757.21313 789.1798,830.3652 726.783,885.3963 664.7142,941.0908 595.4181,987.4336 451.9657,890.4788 329.129,767.5323 203.8204,649.01562 c -9.9471,-12.38631 -24.6778,-19.82716 -34.4414,-32.35937 0.5268,-135.94865 0.1989,-271.89873 0.5918,-407.84766 -0.5422,-25.04925 1.6091,-50.11785 -0.5976,-75.11718 -0.7088,-16.96072 -2.335,-35.98573 8.2636,-50.39844 20.0401,-29.13285 53.7462,-44.09278 85.0528,-57.68164 101.5906,-42.72932 212.6863,-57.71454 322.2773,-59.05078 3.1083,-0.0215 6.2163,-0.0333 9.3242,-0.0352 z"
       id="rect4494-3-3" />
    <path
       style="fill:currentColor;stroke-width:0.60553634"
       d="m 7089.7798,1752.0596 a 516.211,213.89235 0 0 0 -514.8438,202.5743 h -1.3672 v 520.9023 c -0.863,5.1121 -1.3008,10.5695 -1.3008,16.3809 0,24.3225 9.6667,44.1786 29,59.5664 0,0 405.7936,400.5761 484,400.5761 74.6058,0 480,-400.5761 480,-400.5761 32.9279,-23.3767 46.4969,-46.6718 40.7227,-69.8848 v -526.9648 h -0.9668 a 516.211,213.89235 0 0 0 -515.2441,-202.5743 z m -5.7129,86.5254 c 46.6188,-0.029 93.19,2.1897 139.4687,7.836 84.1648,11.5957 169.912,28.2887 244.1367,71.5742 18.6268,12.0298 40.6893,23.2286 49.8282,44.7617 2.066,41.2085 2.1063,82.734 2.5214,124.082 1.2541,129.8572 -1.4271,259.7223 0.461,389.5743 -80.1849,75.7059 -158.9849,152.8597 -241.5274,226.0117 -62.3968,55.0311 -124.4656,110.7255 -193.7617,157.0683 -143.4524,-96.9548 -266.289,-219.9013 -391.5976,-338.4179 -9.9471,-12.3863 -24.6778,-19.8272 -34.4414,-32.3594 0.5268,-135.9487 0.1989,-271.8987 0.5917,-407.8477 -0.5421,-25.0492 1.6091,-50.1178 -0.5976,-75.1171 -0.7088,-16.9608 -2.3349,-35.9858 8.2637,-50.3985 20.0401,-29.1328 53.7461,-44.0928 85.0527,-57.6816 101.5906,-42.7293 212.6863,-57.7146 322.2773,-59.0508 3.1083,-0.022 6.2164,-0.033 9.3243,-0.035 z m 6.3144,65.9551 c -13.1199,0 -26.0376,1.0108 -38.7539,3.0293 -10.4959,0 -15.7441,6.2571 -15.7441,18.7715 0,35.9285 -16.3499,60.6541 -49.0489,74.1777 -32.6989,13.5236 -61.7647,7.771 -87.1972,-17.2578 -8.0738,-10.8997 -16.954,-12.5139 -26.6426,-4.8437 -13.3218,10.8996 -32.2948,29.8726 -56.9199,56.9199 -8.0738,10.0923 -6.4596,18.7706 4.8437,26.0371 25.8362,25.0288 31.6898,54.0946 17.5606,87.1973 -13.3218,31.8916 -38.3501,47.8379 -75.086,47.8379 -13.7254,0 -20.5898,5.8535 -20.5898,17.5605 -4.0369,27.0473 -4.0369,53.6918 0,79.9316 0,12.1108 7.8732,18.1661 23.6172,18.1661 32.2952,-3.2296 55.5075,12.3112 69.6367,46.625 13.7255,33.1026 7.872,62.1684 -17.5606,87.1972 -9.6885,6.8628 -10.4956,15.5432 -2.4218,26.0391 14.9365,17.3587 33.1024,36.5334 54.498,57.5254 9.6886,6.0553 18.5688,5.45 26.6426,-1.8164 23.0104,-28.6621 52.2779,-35.7263 87.8027,-21.1934 33.9101,14.1292 49.4529,38.9557 46.627,74.4805 0,13.7254 5.8535,20.5879 17.5605,20.5879 19.3772,3.2295 32.9002,4.8437 40.5703,4.8437 7.2665,0 19.9824,-1.6142 38.1485,-4.8437 11.3033,0 16.9551,-6.0553 16.9551,-18.166 0,-35.9285 16.2489,-60.755 48.7461,-74.4805 32.4971,-13.7255 61.6638,-7.4685 87.5,18.7715 8.0738,10.4959 16.7542,11.7066 26.039,3.6328 20.5883,-18.1662 39.5612,-37.3409 56.9199,-57.5254 7.2664,-9.2849 6.4594,-17.9653 -2.4218,-26.0391 -26.6436,-24.6252 -33.5061,-53.4892 -20.5879,-86.5918 13.7254,-32.699 37.7448,-49.0468 72.0586,-49.0468 l 3.6328,2.4218 c 13.3218,0 19.9824,-6.4588 19.9824,-19.3769 4.0369,-27.0473 4.0369,-53.0864 0,-78.1153 0,-12.918 -7.0642,-19.3769 -21.1934,-19.3769 -36.7358,0 -60.7552,-15.5428 -72.0586,-46.627 -13.3217,-33.1026 -7.2665,-62.1684 18.1661,-87.1972 9.6886,-6.0554 10.4956,-14.7338 2.4218,-26.0371 -15.3402,-17.3588 -33.7078,-36.5335 -55.1035,-57.5254 -8.8811,-5.6517 -17.5615,-4.6428 -26.039,3.0273 -22.6067,28.2583 -51.6725,35.1208 -87.1973,20.5879 -33.9101,-13.7255 -49.6526,-38.9555 -47.2305,-75.6914 0,-13.7255 -6.0553,-20.5879 -18.166,-20.5879 -13.5236,-2.0185 -26.8468,-3.0293 -39.9668,-3.0293 z m -0.6055,234.9492 c 32.2953,0 60.1504,11.4044 83.5645,34.2129 23.4141,22.8086 35.1211,49.7537 35.1211,80.8379 0,33.1027 -11.707,61.0587 -35.1211,83.8672 -23.4141,22.8085 -51.2692,34.2129 -83.5645,34.2129 -31.0842,0 -58.0293,-11.4044 -80.8378,-34.2129 -22.8086,-22.8085 -34.2129,-50.7645 -34.2129,-83.8672 0,-31.0842 11.4043,-58.0293 34.2129,-80.8379 22.8085,-22.8085 49.7536,-34.2129 80.8378,-34.2129 z"
       id="path4515-8"
       inkscape:connector-curvature="0" />
  </g>
</svg>
