<?xml version="1.0" encoding="UTF-8" standalone="no"?>
<svg
   xmlns:dc="http://purl.org/dc/elements/1.1/"
   xmlns:cc="http://creativecommons.org/ns#"
   xmlns:rdf="http://www.w3.org/1999/02/22-rdf-syntax-ns#"
   xmlns:svg="http://www.w3.org/2000/svg"
   xmlns="http://www.w3.org/2000/svg"
   xmlns:sodipodi="http://sodipodi.sourceforge.net/DTD/sodipodi-0.dtd"
   xmlns:inkscape="http://www.inkscape.org/namespaces/inkscape"
   version="1.1"
   viewBox="0 -240 1200 1200"
   id="svg6"
   sodipodi:docname="search-coords-full.svg"
   inkscape:version="0.92.1 r15371">
  <metadata
     id="metadata12">
    <rdf:RDF>
      <cc:Work
         rdf:about="">
        <dc:format>image/svg+xml</dc:format>
        <dc:type
           rdf:resource="http://purl.org/dc/dcmitype/StillImage" />
        <dc:title></dc:title>
      </cc:Work>
    </rdf:RDF>
  </metadata>
  <defs
     id="defs10" />
  <sodipodi:namedview
     pagecolor="#ffffff"
     bordercolor="#666666"
     borderopacity="1"
     objecttolerance="10"
     gridtolerance="10"
     guidetolerance="10"
     inkscape:pageopacity="0"
     inkscape:pageshadow="2"
     inkscape:window-width="1920"
     inkscape:window-height="1017"
     id="namedview8"
     showgrid="false"
     inkscape:zoom="0.13906433"
     inkscape:cx="7.0465125"
     inkscape:cy="-401.98425"
     inkscape:window-x="-8"
     inkscape:window-y="-8"
     inkscape:window-maximized="1"
     inkscape:current-layer="layer2"
     showguides="false" />
  <g
     inkscape:groupmode="layer"
     id="layer1"
     inkscape:label="grid"
     style="display:inline">
    <rect
       id="rect3698"
       width="1200"
       height="1200"
       x="0"
       y="-120"
       style="fill:#f6baff;fill-opacity:1;stroke-width:0.75510824" />
  </g>
  <g
     inkscape:groupmode="layer"
     id="layer2"
     inkscape:label="glyph">
    <path
       style="fill:currentColor"
       inkscape:connector-curvature="0"
       d="M -2143.7966,667.93219 Q -2231.7966,667.93219 -2309.2966,636.4322 -2386.7966,604.9322 -2445.7966,542.9322 -2508.7966,479.9322 -2540.7966,400.9322 -2572.7966,321.93221 -2572.7966,239.43221 -2572.7966,156.93223 -2540.7966,78.932234 -2508.7966,0.93223408 -2445.7966,-61.067766 -2386.7966,-123.06776 -2309.2966,-156.56776 -2231.7966,-190.06776 -2143.7966,-190.06776 -2058.7966,-190.06776 -1981.2966,-156.56776 -1903.7966,-123.06776 -1841.7966,-61.067766 -1778.7966,0.93223408 -1747.2966,78.932234 -1715.7966,156.93223 -1715.7966,239.43221 -1715.7966,321.93221 -1747.2966,400.9322 -1778.7966,479.9322 -1841.7966,542.9322 -1903.7966,604.9322 -1981.2966,636.4322 -2058.7966,667.93219 -2143.7966,667.93219 Z M -2143.7966,-74.067766 Q -2209.7966,-74.067766 -2265.7966,-49.567766 -2321.7966,-25.067766 -2363.7966,20.932234 -2410.7966,65.932234 -2434.2966,123.43223 -2457.7966,180.93223 -2457.7966,240.93221 -2457.7966,300.93221 -2434.2966,358.43221 -2410.7966,415.9322 -2363.7966,460.9322 -2321.7966,505.9322 -2265.7966,528.4322 -2209.7966,550.9322 -2143.7966,550.9322 -2081.7966,550.9322 -2025.2966,528.4322 -1968.7966,505.9322 -1923.7966,460.9322 -1878.7966,415.9322 -1856.2966,358.43221 -1833.7966,300.93221 -1833.7966,240.93221 -1833.7966,180.93223 -1856.2966,123.43223 -1878.7966,65.932234 -1923.7966,20.932234 -1968.7966,-25.067766 -2025.2966,-49.567766 -2081.7966,-74.067766 -2143.7966,-74.067766 Z M -1362.7966,882.9322 -1655.7966,590.9322 -1750.7966,550.9322 -1833.7966,632.9322 -1793.7966,727.93219 -1501.7966,1021.9322 Z"
       id="path4484" />
    <path
       style="fill:currentColor;stroke-width:1.00166667"
       d="M 600,-121 C 491.1523,-121 390.6514,-94.12136 298.4981,-40.365231 206.3447,13.390829 133.3909,86.344709 79.6348,178.49805 25.8787,270.65138 -1,371.1522 -1,480 -1,588.84775 25.8787,689.34858 79.6348,781.50198 133.3909,873.65528 206.3447,946.60908 298.4981,1000.3652 390.6514,1054.1214 491.1523,1081 600,1081 708.8478,1081 809.3487,1054.1214 901.502,1000.3652 914.1932,992.96198 926.5078,985.18218 938.4707,977.05078 913.9432,956.76608 896.2881,929.14858 885.2676,899.46288 866.5352,908.78908 846.8335,916.15608 826.5957,921.47458 821.035,923.05448 815.4307,924.44778 809.795,925.67188 806.9651,926.98078 804.1281,928.28748 801.2403,929.58008 743.211,955.55488 690.5189,970.61418 643.1621,974.75588 V 913.15618 C 611.9184,901.63268 582.5577,885.04598 556.8379,863.87888 V 974.81248 C 509.5426,970.62588 456.9198,955.53998 398.9707,929.55468 341.0217,903.56938 294.7548,874.30998 260.17,841.77928 H 532.3438 C 507.6015,816.86168 487.6965,787.41758 473.1914,755.45898 H 186.7793 C 167.4979,726.51188 149.9164,689.53708 134.0352,644.53516 118.1539,599.53368 108.6348,559.71259 105.4766,525.07422 H 463.3203 C 475.1114,492.1268 493.033,461.66031 515.502,434.92578 H 105.2832 C 108.4514,400.28451 117.9854,360.4622 133.8828,315.46094 149.781,270.4592 167.3774,233.48568 186.6719,204.54102 H 556.8379 V 394.07227 C 582.7348,372.77182 611.9797,355.53076 643.1621,343.44141 V 204.54102 H 1013.2207 C 1032.5021,233.48814 1050.0836,270.46291 1065.9648,315.46484 1081.8461,360.46632 1091.3652,400.28738 1094.5234,434.92578 H 981.7715 C 986.1197,440.10679 990.3012,445.42425 994.293,450.87891 1011.4356,473.47637 1024.7646,498.58159 1034.2852,525.07422 H 1094.7168 C 1091.5487,559.71546 1082.0147,599.53778 1066.1172,644.53906 1058.9338,664.87238 1051.4002,683.55028 1043.5234,700.60548 1038.0924,723.11148 1030.0812,744.97588 1019.4629,765.57618 1030.4199,770.54428 1041.7775,774.57058 1052.7285,779.55268 1067.8541,792.16428 1082.5456,805.23908 1096.9434,818.62698 1105.1136,806.61488 1112.9297,794.24858 1120.3652,781.50198 1174.1214,689.34858 1201,588.84775 1201,480 1201,371.1522 1174.1214,270.65138 1120.3652,178.49805 1066.6092,86.344709 993.6553,13.390829 901.502,-40.365231 809.3487,-94.12136 708.8478,-121 600,-121 Z M 643.1621,-14.810551 C 690.4573,-10.622951 743.08,4.461929 801.0293,30.447269 858.9784,56.433199 905.2452,85.692649 939.8301,118.22266 H 643.1621 Z M 556.8379,-14.755861 V 118.2207 H 259.7598 C 294.3972,85.661369 340.731,56.394189 398.7598,30.419919 456.789,4.445059 509.4811,-10.614261 556.8379,-14.755861 Z M 748.9278,380 C 715.0443,380 683.1824,386.44887 653.3418,399.34766 623.5014,412.24646 597.2232,430.63349 574.5059,454.50586 550.2484,478.37825 531.9579,505.33029 519.6368,535.36328 507.3155,565.39629 501.1543,596.29489 501.1543,628.06055 501.1543,659.82623 507.3155,690.91788 519.6368,721.33598 531.9579,751.75398 550.2484,779.09218 574.5059,803.34958 597.2232,827.22198 623.5014,845.22278 653.3418,857.35158 683.1824,869.48028 715.0443,875.54488 748.9278,875.54488 781.656,875.54488 812.9408,869.48028 842.7813,857.35158 872.6218,845.22278 899.4773,827.22198 923.3496,803.34958 947.607,779.09218 965.8009,751.75398 977.9297,721.33598 990.0584,690.91788 996.1231,659.82623 996.1231,628.06055 996.1231,596.29489 990.0584,565.39629 977.9297,535.36328 965.8009,505.33029 947.607,478.37825 923.3496,454.50586 899.4773,430.63349 872.6218,412.24646 842.7813,399.34766 812.9408,386.44887 781.656,380 748.9278,380 Z M 748.9278,446.99609 C 772.8002,446.99609 795.6126,451.71304 817.3672,461.14648 839.1219,470.57993 858.6635,484.15347 875.9903,501.86523 893.317,519.19197 906.3113,538.92474 914.9746,561.06445 923.638,583.20417 927.9707,605.82543 927.9707,628.92773 927.9707,652.03004 923.638,674.65128 914.9746,696.79098 906.3113,718.93068 893.317,738.66348 875.9903,755.99028 858.6635,773.31698 839.1219,786.31118 817.3672,794.97458 795.6126,803.63798 772.8002,807.97068 748.9278,807.97068 723.5152,807.97068 700.027,803.63798 678.4649,794.97458 656.9027,786.31118 638.0368,773.31698 621.8653,755.99028 603.7684,738.66348 590.1949,718.93068 581.1465,696.79098 572.0981,674.65128 567.5743,652.03004 567.5743,628.92773 567.5743,605.82543 572.0981,583.20417 581.1465,561.06445 590.1949,538.92474 603.7684,519.19197 621.8653,501.86523 638.0368,484.15347 656.9027,470.57993 678.4649,461.14648 700.027,451.71304 723.5152,446.99609 748.9278,446.99609 Z M 975.9082,807.97068 927.9707,855.33008 951.0723,910.19728 1119.7188,1080 1200,999.71878 1030.7754,831.07228 Z"
       id="path4498"
       inkscape:connector-curvature="0" />
    <path
       style="fill:currentColor"
       d="M -3334.8289,-156.50847 C -3393.4956,-156.50847 -3448.6623,-145.3418 -3500.3289,-123.00847 -3551.9956,-100.67514 -3597.4956,-68.841805 -3636.8289,-27.508475 -3678.8289,13.824855 -3710.4956,60.491525 -3731.8289,112.49153 -3753.1623,164.49153 -3763.8289,217.99155 -3763.8289,272.99153 -3763.8289,327.99153 -3753.1623,381.82487 -3731.8289,434.49153 -3710.4956,487.1582 -3678.8289,534.49154 -3636.8289,576.49153 -3597.4956,617.82487 -3551.9956,648.99153 -3500.3289,669.99153 -3448.6623,690.99153 -3393.4956,701.49153 -3334.8289,701.49153 -3278.1623,701.49153 -3223.9956,690.99153 -3172.3289,669.99153 -3120.6623,648.99153 -3074.1623,617.82487 -3032.8289,576.49153 -2990.8289,534.49154 -2959.3289,487.1582 -2938.3289,434.49153 -2917.3289,381.82487 -2906.8289,327.99153 -2906.8289,272.99153 -2906.8289,217.99155 -2917.3289,164.49153 -2938.3289,112.49153 -2959.3289,60.491525 -2990.8289,13.824855 -3032.8289,-27.508475 -3074.1623,-68.841805 -3120.6623,-100.67514 -3172.3289,-123.00847 -3223.9956,-145.3418 -3278.1623,-156.50847 -3334.8289,-156.50847 Z M -3334.8289,-40.508475 C -3293.4956,-40.508475 -3253.9956,-32.341805 -3216.3289,-16.008475 -3178.6623,0.32485544 -3144.8289,23.824855 -3114.8289,54.491525 -3084.8289,84.491525 -3062.3289,118.6582 -3047.3289,156.99153 -3032.3289,195.32486 -3024.8289,234.49155 -3024.8289,274.49153 -3024.8289,314.49153 -3032.3289,353.6582 -3047.3289,391.99153 -3062.3289,430.32486 -3084.8289,464.49153 -3114.8289,494.49153 -3144.8289,524.49153 -3178.6623,546.99154 -3216.3289,561.99153 -3253.9956,576.99154 -3293.4956,584.49153 -3334.8289,584.49153 -3378.8289,584.49153 -3419.4956,576.99154 -3456.8289,561.99153 -3494.1623,546.99154 -3526.8289,524.49153 -3554.8289,494.49153 -3586.1623,464.49153 -3609.6623,430.32486 -3625.3289,391.99153 -3640.9956,353.6582 -3648.8289,314.49153 -3648.8289,274.49153 -3648.8289,234.49155 -3640.9956,195.32486 -3625.3289,156.99153 -3609.6623,118.6582 -3586.1623,84.491525 -3554.8289,54.491525 -3526.8289,23.824855 -3494.1623,0.32485544 -3456.8289,-16.008475 -3419.4956,-32.341805 -3378.8289,-40.508475 -3334.8289,-40.508475 Z M -3335.3289,-3.1198046 C -3385.2451,-3.1198046 -3431.3342,9.2068254 -3473.5945,33.858715 -3515.8549,58.510575 -3549.3099,91.965535 -3573.9617,134.22591 -3598.6136,176.48626 -3610.9403,222.5753 -3610.9403,272.49153 -3610.9403,322.40774 -3598.6136,368.4968 -3573.9617,410.75715 -3549.3099,453.01752 -3515.8549,486.47245 -3473.5945,511.12434 -3431.3342,535.77623 -3385.2451,548.10286 -3335.3289,548.10286 -3285.4127,548.10286 -3239.3237,535.77623 -3197.0633,511.12434 -3154.8029,486.47245 -3121.348,453.01752 -3096.6961,410.75715 -3072.0442,368.49679 -3059.7176,322.40774 -3059.7176,272.49153 -3059.7176,222.5753 -3072.0442,176.48626 -3096.6961,134.22591 -3121.348,91.965535 -3154.8029,58.510575 -3197.0633,33.858715 -3239.3237,9.2068254 -3285.4127,-3.1198046 -3335.3289,-3.1198046 Z M -3315.536,45.577465 C -3293.847,47.497845 -3269.7143,54.416765 -3243.1395,66.333325 -3216.5647,78.250135 -3195.3473,91.667425 -3179.4871,106.58528 H -3315.536 Z M -3355.1219,45.602855 V 106.58333 H -3491.3582 C -3475.474,91.652035 -3454.2273,78.231125 -3427.616,66.319645 -3401.0046,54.407895 -3376.8391,47.502145 -3355.1219,45.602855 Z M -3524.8758,146.16926 H -3355.1219 V 251.82161 H -3562.2 C -3560.7471,235.93556 -3556.3751,217.67347 -3549.0848,197.03645 -3541.794,176.39922 -3533.724,159.44292 -3524.8758,146.16926 Z M -3315.536,146.16926 H -3145.8309 C -3136.9887,159.44406 -3128.9263,176.40108 -3121.6434,197.03841 -3114.3604,217.6755 -3109.994,235.93687 -3108.5457,251.82161 H -3315.536 Z M -3562.1121,293.16145 H -3355.1219 V 398.8138 H -3524.827 C -3533.6692,385.53904 -3541.7316,368.58201 -3549.0145,347.94465 -3556.2974,327.30755 -3560.6639,309.04616 -3562.1121,293.16145 Z M -3315.536,293.16145 H -3108.4578 C -3109.9107,309.04747 -3114.2827,327.30959 -3121.5731,347.94661 -3128.8638,368.58387 -3136.9338,385.54017 -3145.782,398.8138 H -3315.536 Z M -3491.1707,438.39973 H -3355.1219 V 499.40559 C -3376.811,497.48563 -3400.9436,490.56821 -3427.5184,478.65169 -3454.0931,466.73514 -3475.3106,453.31789 -3491.1707,438.39973 Z M -3315.536,438.39973 H -3179.2996 C -3195.1836,453.33107 -3216.4302,466.75196 -3243.0418,478.66341 -3269.6533,490.57516 -3293.8187,497.48089 -3315.536,499.3802 Z M -2941.8289,584.49153 -3024.8289,666.49153 -2984.8289,761.49153 -2692.8289,1055.4915 -2553.8289,916.49153 -2846.8289,624.49153 Z"
       id="path4484-4"
       inkscape:connector-curvature="0" />
    <path
       style="fill:currentColor;stroke-width:1.00166667"
       inkscape:connector-curvature="0"
       d="M -4421.969,-192.55365 Q -4258.6973,-192.55365 -4120.4673,-111.91945 -3982.2372,-31.285349 -3901.6031,106.94465 -3820.9689,245.17465 -3820.9689,408.44635 -3820.9689,571.71795 -3901.6031,709.94795 -3982.2372,848.17795 -4120.4673,928.81215 -4258.6973,1009.4464 -4421.969,1009.4464 -4585.2406,1009.4464 -4723.4706,928.81215 -4861.7007,848.17795 -4942.3348,709.94795 -5022.969,571.71795 -5022.969,408.44635 -5022.969,245.17465 -4942.3348,106.94465 -4861.7007,-31.285349 -4723.4706,-111.91945 -4585.2406,-192.55365 -4421.969,-192.55365 Z M -4378.8072,-86.364949 V 46.668351 H -4082.1395 Q -4134.0168,-2.1266486 -4220.9404,-41.105549 -4307.8644,-80.083549 -4378.8072,-86.364949 Z M -4465.1308,-86.308849 Q -4536.166,-80.096449 -4623.2098,-41.134149 -4710.253,-2.1727486 -4762.2091,46.666251 H -4465.1308 Z M -4835.2977,132.98795 Q -4864.2395,176.40495 -4888.0868,243.90755 -4911.933,311.40945 -4916.6852,363.37135 H -4465.1308 V 132.98795 Z M -4378.8072,132.98795 V 363.37135 H -3927.4451 Q -3932.1824,311.41375 -3956.0043,243.91155 -3979.8261,176.40865 -4008.7482,132.98795 H -4378.8071 Z M -4916.4928,453.52135 Q -4911.7555,505.47885 -4887.9336,572.98105 -4864.1118,640.48405 -4835.1897,683.90465 H -4465.1309 V 453.52135 H -4916.4929 Z M -4378.8072,453.52135 V 683.90465 H -4008.6402 Q -3979.6984,640.48775 -3955.8511,572.98505 -3932.0048,505.48315 -3927.2527,453.52135 Z M -4761.7984,770.22625 Q -4709.9211,819.02225 -4622.9975,858.00025 -4536.0738,896.97815 -4465.1308,903.25815 V 770.22575 H -4761.7984 V 770.22575 Z M -4378.8072,770.22625 V 903.20155 Q -4307.7719,896.98905 -4220.7281,858.02675 -4133.6839,819.06545 -4081.7288,770.22635 Z"
       id="path4498-5-6" />
  </g>
</svg>
