<?xml version="1.0" encoding="UTF-8" standalone="no"?>
<svg
   xmlns:dc="http://purl.org/dc/elements/1.1/"
   xmlns:cc="http://creativecommons.org/ns#"
   xmlns:rdf="http://www.w3.org/1999/02/22-rdf-syntax-ns#"
   xmlns:svg="http://www.w3.org/2000/svg"
   xmlns="http://www.w3.org/2000/svg"
   xmlns:sodipodi="http://sodipodi.sourceforge.net/DTD/sodipodi-0.dtd"
   xmlns:inkscape="http://www.inkscape.org/namespaces/inkscape"
   version="1.1"
   viewBox="0 -240 1200 1200"
   id="svg6"
   sodipodi:docname="story.svg"
   inkscape:version="0.92.1 r15371">
  <metadata
     id="metadata12">
    <rdf:RDF>
      <cc:Work
         rdf:about="">
        <dc:format>image/svg+xml</dc:format>
        <dc:type
           rdf:resource="http://purl.org/dc/dcmitype/StillImage" />
        <dc:title></dc:title>
      </cc:Work>
    </rdf:RDF>
  </metadata>
  <defs
     id="defs10" />
  <sodipodi:namedview
     pagecolor="#ffffff"
     bordercolor="#666666"
     borderopacity="1"
     objecttolerance="10"
     gridtolerance="10"
     guidetolerance="10"
     inkscape:pageopacity="0"
     inkscape:pageshadow="2"
     inkscape:window-width="1920"
     inkscape:window-height="1017"
     id="namedview8"
     showgrid="false"
     inkscape:zoom="0.19666667"
     inkscape:cx="1298.2627"
     inkscape:cy="190.68735"
     inkscape:window-x="-8"
     inkscape:window-y="-8"
     inkscape:window-maximized="1"
     inkscape:current-layer="layer2"
     showguides="false" />
  <g
     inkscape:groupmode="layer"
     id="layer2"
     inkscape:label="glyph">
    <path
       style="display:inline;fill:currentColor;stroke-width:1.02301776"
       d="M 10.2305,-46.342795 V 729.1045 H 415.3438 C 461.0387,729.1045 495.9936,738.6527 520.2051,757.749 544.4164,776.8453 558.2267,792.3607 561.6367,804.2959 565.0469,816.2311 566.752,826.9723 566.752,836.5205 V 62.096655 L 561.6367,33.452125 C 558.2267,18.447845 543.563,1.398055 517.6465,-17.698265 491.73,-36.794605 456.2647,-46.342795 411.252,-46.342795 Z M 789.7695,-46.342795 C 745.4389,-46.342795 710.4856,-36.794605 684.9102,-17.698265 659.3346,1.398055 645.5245,18.447845 643.4785,33.452125 L 637.3399,62.096655 V 836.5205 C 637.3399,826.9723 638.8742,816.2311 641.9434,804.2959 645.0123,792.3607 659.3346,776.8453 684.9102,757.749 710.4856,738.6527 745.4389,729.1045 789.7695,729.1045 H 1200 V -46.342795 Z M 802.4492,63.532205 H 1152.1133 V 95.532205 H 802.4492 Z M 249.1445,141.19822 C 275.9964,141.19822 301.7496,146.52078 326.4024,157.16892 351.0552,167.81707 372.3512,182.11192 390.291,200.05174 408.2309,217.99154 422.5238,239.28762 433.1719,263.94041 443.82,288.59318 449.1445,314.34638 449.1445,341.19822 449.1445,368.05008 443.82,393.80131 433.1719,418.45408 422.5238,443.10687 408.2309,464.40295 390.291,482.34275 372.3512,500.28257 351.0552,514.57742 326.4024,525.22557 301.7496,535.87371 275.9964,541.19822 249.1445,541.19822 222.2927,541.19822 196.5414,535.87371 171.8887,525.22557 147.2359,514.57742 125.9398,500.28257 108,482.34275 90.0602,464.40295 75.7654,443.10687 65.1172,418.45408 54.469,393.80131 49.1445,368.05008 49.1445,341.19822 49.1445,314.34638 54.469,288.59318 65.1172,263.94041 75.7654,239.28762 90.0602,217.99154 108,200.05174 125.9398,182.11192 147.1779,167.81708 171.7149,157.16892 196.4834,146.52078 222.2927,141.19822 249.1445,141.19822 Z M 802.4492,159.53221 H 1152.1133 V 191.53221 H 802.4492 Z M 258.5195,167.23924 C 255.0473,170.01702 250.8225,172.38885 245.8457,174.35642 240.8689,176.32402 236.7603,177.71421 233.5195,178.52439 230.2787,179.33458 225.3027,180.26007 218.5899,181.30174 211.8769,182.3434 207.3617,183.09658 205.0469,183.55955 201.5747,184.25399 196.3083,184.25399 189.2481,183.55955 182.1879,182.8651 176.9234,183.0955 173.4512,184.25291 168.8216,185.87328 162.86,188.94019 155.5684,193.45408 148.2767,197.96797 144.2843,201.96232 143.5899,205.43455 142.8955,207.98084 143.6467,210.58501 145.8457,213.24705 148.0447,215.90908 149.0283,218.04855 148.7969,219.66892 148.1024,227.53929 144.9194,238.07213 139.2481,251.26658 133.5769,264.46102 130.1633,273.60562 129.0059,278.69822 126.9225,286.56859 127.5014,297.33184 130.7422,310.98924 133.9829,324.64665 134.9083,334.71674 133.5195,341.19822 133.5195,343.28156 135.4868,348.4318 139.4219,356.64939 143.357,364.86699 145.2099,371.754 144.9785,377.30955 147.7562,377.30955 150.4185,377.88653 152.9649,379.04392 155.5111,380.20135 158.2295,381.9381 161.1231,384.25291 164.0166,386.56773 166.2741,388.18831 167.8945,389.11424 171.5982,390.96608 175.4183,392.70285 179.3535,394.32322 183.2887,395.9436 187.9762,397.6784 193.416,399.53025 198.8558,401.38211 202.8482,402.7723 205.3945,403.69822 210.2556,405.78156 216.3314,409.48548 223.6231,414.80955 230.9147,420.13362 237.8598,424.53069 244.457,428.00291 251.0542,431.47514 257.7089,432.74914 264.4219,431.82322 266.0423,435.29544 265.6957,439.22976 263.3809,443.62791 261.0661,448.02606 258.462,452.65547 255.5684,457.51658 252.6749,462.37769 251.5751,466.77671 252.2695,470.71189 255.2787,475.57301 257.9409,479.56541 260.2559,482.69041 262.5706,485.81541 265.7538,488.9985 269.8047,492.23924 273.8556,495.47998 278.0803,497.56331 282.4785,498.48924 282.4785,500.10961 282.0739,501.9606 281.2637,504.04392 280.4536,506.12727 280.0469,507.74785 280.0469,508.90525 280.0469,510.06267 280.6259,512.03178 281.7832,514.80955 305.8574,515.27252 331.4363,502.30782 358.5195,475.91892 365.464,469.20596 370.8466,463.76723 374.666,459.60057 378.4855,455.43389 382.4779,449.76282 386.6445,442.58689 390.8112,435.41097 393.2412,428.11931 393.9356,420.71189 390.9264,418.86005 386.6455,417.87647 381.0899,417.76072 375.5343,417.64498 371.3677,416.77563 368.5899,415.15525 365.1177,413.53489 359.3885,411.80008 351.4024,409.94822 343.4162,408.09637 337.4547,405.89686 333.5195,403.35057 329.3529,403.35057 324.6074,403.40865 319.2832,403.52439 313.9592,403.64013 308.9832,403.81245 304.3535,404.04392 299.7239,404.27542 294.8621,405.02858 289.7695,406.30174 284.677,407.57488 280.2799,409.48396 276.5762,412.03025 264.7706,420.13211 257.1304,421.5223 253.6582,416.19822 252.7323,415.96674 252.3276,413.01405 252.4434,407.34275 252.5592,401.67145 252.6172,398.72072 252.6172,398.48924 251.2282,395.47998 248.1614,393.45473 243.416,392.41307 238.6706,391.3714 235.8342,390.61821 234.9082,390.15525 235.1398,386.68303 235.0816,383.15338 234.7344,379.56541 234.3871,375.97745 233.5778,372.73627 232.3047,369.84275 231.0316,366.94923 228.8902,365.61909 225.8809,365.85057 222.8717,366.08205 219.2839,368.51195 215.1172,373.14158 209.7931,378.92861 204.9314,378.46587 200.5332,371.75291 196.1351,365.27143 195.2096,358.55868 197.7559,351.61424 199.1448,347.91053 201.6909,345.36445 205.3945,343.97557 206.7834,344.20705 209.7923,344.3813 214.4219,344.49705 219.0516,344.61279 222.9298,345.07554 226.0547,345.88572 229.1797,346.6959 231.4373,348.2584 232.8262,350.57322 234.4465,353.351 236.5299,356.12748 239.0762,358.90525 241.6225,361.68303 244.1104,364.0568 246.541,366.02439 248.9716,367.99199 251.2853,369.72679 253.4844,371.23142 255.6834,372.73606 257.4783,373.95199 258.8672,374.87791 L 260.6035,375.91892 C 261.0665,373.14115 261.934,369.61149 263.207,365.32908 264.4802,361.04667 265.4057,357.05427 265.9844,353.35057 266.5631,349.64687 266.5069,345.94294 265.8125,342.23924 265.118,338.07257 265.5227,334.71524 267.0274,332.16892 268.532,329.62264 270.6154,327.01846 273.2774,324.35642 275.9394,321.69438 277.7324,318.85983 278.6582,315.85057 280.0472,312.60982 281.263,308.55933 282.3047,303.69822 283.3464,298.83711 284.2718,295.24936 285.082,292.93455 285.8922,290.61974 287.687,288.01557 290.4649,285.12205 293.2426,282.22854 297.1769,279.62437 302.2695,277.30955 300.8806,273.14288 302.0385,268.97621 305.7422,264.80955 307.5941,264.80955 310.3725,264.98186 314.0762,265.32908 317.7799,265.6763 320.6144,265.85057 322.582,265.85057 324.5496,265.85057 326.8654,265.32973 329.5274,264.28807 332.1894,263.2464 334.5611,261.45155 336.6445,258.90525 334.3297,253.58118 330.7421,248.66328 325.8809,244.14939 321.0198,239.63551 316.6788,236.22007 312.8594,233.90525 309.0399,231.59043 303.3689,228.46543 295.8457,224.53025 288.3225,220.59507 283.2885,217.93282 280.7422,216.54392 280.7422,216.31244 280.9726,215.38695 281.4356,213.76658 281.8986,212.14621 282.2471,210.81607 282.4785,209.77439 282.7101,208.73273 282.8824,207.5168 282.9981,206.12791 283.1139,204.73902 282.9996,203.63927 282.6524,202.82908 282.3052,202.01889 281.7844,201.49806 281.0899,201.26658 288.2658,204.27583 295.0366,205.95451 301.4024,206.30174 307.7681,206.64896 312.2233,206.36047 314.7695,205.43455 L 318.9375,203.69822 C 320.0949,197.21674 318.9952,191.89223 315.6387,187.72557 312.2822,183.5589 308.0575,180.78047 302.9649,179.39158 297.8723,178.00269 292.085,176.26788 285.6035,174.18455 279.122,172.10121 274.3764,169.78553 271.3672,167.23924 267.2005,168.16516 262.9177,168.16516 258.5195,167.23924 Z M 253.6582,204.39158 C 253.6582,208.32677 254.5856,213.18853 256.4375,218.97557 258.2893,224.76261 260.2565,229.97094 262.3399,234.60057 264.4233,239.2302 265.4649,241.89245 265.4649,242.58689 263.613,242.35541 259.0398,241.7184 251.7481,240.67674 244.4565,239.63507 238.3807,238.47722 233.5195,237.20408 228.6584,235.93093 224.3756,234.02187 220.6719,231.47557 221.3664,228.92927 223.2193,225.51384 226.2285,221.23142 229.2378,216.94902 231.0888,213.99828 231.7832,212.37791 234.098,214.69272 236.2975,215.85057 238.3809,215.85057 240.4641,215.85057 242.0848,215.15547 243.2422,213.76658 244.3996,212.37769 245.9621,210.69904 247.9297,208.73142 249.8973,206.76384 251.8064,205.3175 253.6582,204.39158 Z M 802.4492,255.53221 H 1152.1133 V 287.53221 H 802.4492 Z M 802.4492,351.53221 H 1152.1133 V 383.53221 H 802.4492 Z M 802.4492,447.53221 H 1152.1133 V 479.53221 H 802.4492 Z M 802.4492,543.53221 H 1152.1133 V 575.53221 H 802.4492 Z M 0,822.1982 V 897.9013 H 406.1367 C 438.8733,897.9013 464.7903,903.35839 483.8867,914.27049 502.9829,925.1828 514.2364,935.41169 517.6465,944.95989 521.0566,954.5081 522.7617,962.0118 522.7617,967.4678 V 1006.3428 H 674.168 V 967.4678 L 679.2832,948.0303 C 682.6934,936.4361 693.9467,925.1828 713.043,914.27049 732.1393,903.35839 757.715,897.9013 789.7695,897.9013 H 1200 V 822.1982 H 789.7695 C 692.2419,822.1982 631.5422,858.005 607.6719,929.6162 H 589.2578 C 567.4335,858.005 506.3925,822.1982 406.1367,822.1982 Z"
       id="path2"
       inkscape:connector-curvature="0" />
  </g>
</svg>
