<?xml version="1.0" encoding="UTF-8" standalone="no"?>
<svg
   xmlns:dc="http://purl.org/dc/elements/1.1/"
   xmlns:cc="http://creativecommons.org/ns#"
   xmlns:rdf="http://www.w3.org/1999/02/22-rdf-syntax-ns#"
   xmlns:svg="http://www.w3.org/2000/svg"
   xmlns="http://www.w3.org/2000/svg"
   xmlns:sodipodi="http://sodipodi.sourceforge.net/DTD/sodipodi-0.dtd"
   xmlns:inkscape="http://www.inkscape.org/namespaces/inkscape"
   version="1.1"
   viewBox="0 -240 1200 1200"
   id="svg6"
   sodipodi:docname="tmplate-ext.svg"
   inkscape:version="0.92.1 r15371">
  <metadata
     id="metadata12">
    <rdf:RDF>
      <cc:Work
         rdf:about="">
        <dc:format>image/svg+xml</dc:format>
        <dc:type
           rdf:resource="http://purl.org/dc/dcmitype/StillImage" />
        <dc:title></dc:title>
      </cc:Work>
    </rdf:RDF>
  </metadata>
  <defs
     id="defs10" />
  <sodipodi:namedview
     pagecolor="#ffffff"
     bordercolor="#666666"
     borderopacity="1"
     objecttolerance="10"
     gridtolerance="10"
     guidetolerance="10"
     inkscape:pageopacity="0"
     inkscape:pageshadow="2"
     inkscape:window-width="1920"
     inkscape:window-height="1017"
     id="namedview8"
     showgrid="false"
     inkscape:zoom="0.024583333"
     inkscape:cx="5583.935"
     inkscape:cy="-1803.1334"
     inkscape:window-x="-8"
     inkscape:window-y="-8"
     inkscape:window-maximized="1"
     inkscape:current-layer="layer2" />
  <g
     inkscape:groupmode="layer"
     id="layer1"
     inkscape:label="grid"
     style="display:inline">
    <rect
       id="rect3698"
       width="1200"
       height="1200"
       x="0"
       y="-120"
       style="fill:#f6baff;fill-opacity:1;stroke-width:0.75510824" />
  </g>
  <g
     inkscape:groupmode="layer"
     id="layer2"
     inkscape:label="glyph"
     style="display:inline">
    <flowRoot
       xml:space="preserve"
       id="flowRoot4687"
       style="fill:black;fill-opacity:1;stroke:none;font-family:sans-serif;font-style:normal;font-weight:normal;font-size:40px;line-height:1.25;letter-spacing:0px;word-spacing:0px"><flowRegion
         id="flowRegion4689"><rect
           id="rect4691"
           width="920.33899"
           height="132.20338"
           x="1306.7797"
           y="1515.2543" /></flowRegion><flowPara
         id="flowPara4693"></flowPara></flowRoot>    <flowRoot
       xml:space="preserve"
       id="flowRoot4695"
       style="fill:black;fill-opacity:1;stroke:none;font-family:sans-serif;font-style:normal;font-weight:normal;font-size:40px;line-height:1.25;letter-spacing:0px;word-spacing:0px"><flowRegion
         id="flowRegion4697"><rect
           id="rect4699"
           width="177.96609"
           height="45.762711"
           x="1347.4576"
           y="1718.644" /></flowRegion><flowPara
         id="flowPara4701"></flowPara></flowRoot>    <path
       inkscape:connector-curvature="0"
       style="display:inline;fill:currentColor"
       d="m 4017.3351,-1289.3851 c -51.3334,0 -96,18.6666 -134,56 -38,37.3333 -57,82.6666 -57,136 v 205.99996 h -231.9999 v 515 h 231.9999 c 0,50 19,93.6667 57,131 38,37.3333 82.6666,56 134,56 h 538 c 54.6667,0 100.6667,-18.6667 138,-56 37.3333,-37.3333 56,-82.3333 56,-135 v -591 l -262,-317.99996 z m 0,94 h 407 v 168 c 0,24 8.1667,44.33326 24.5,60.99996 16.3333,16.6666 36.8333,25 61.5,25 h 143 v 4 557 c 0,26 -9.6667,48.6667 -29,68 -19.3333,19.3333 -42.3333,29 -69,29 h -538 c -26,0 -48.1667,-9.6667 -66.5,-29 -18.3334,-19.3333 -27.5,-40.6667 -27.5,-64 h 654 v -515 h -654 v -205.99996 c 0,-26 9.1666,-48.8334 27.5,-68.5 18.3333,-19.6667 40.5,-29.5 66.5,-29.5 z"
       id="path4632-95-9" />
    <path
       inkscape:connector-curvature="0"
       style="display:inline;fill:currentColor"
       d="m 3826.3351,-891.38514 h -231.9999 v 515 h 231.9999 c 631.7651,0 0,-248.0304 0,-515 z m 97,515 h 654 v -515 h -654 c 494.4638,0 -178.8513,515 0,515 z"
       id="path4632-9-7-5"
       sodipodi:nodetypes="cccccccccc" />
    <flowRoot
       xml:space="preserve"
       id="flowRoot4679-1-4-7"
       style="font-style:normal;font-weight:normal;font-size:40px;line-height:1.25;font-family:sans-serif;letter-spacing:0px;word-spacing:0px;display:inline;fill:#000000;fill-opacity:1;stroke:none"
       transform="matrix(7.82254,0,0,7.82254,-10092.106,-13137.811)"><flowRegion
         id="flowRegion4681-4-6-4"><rect
           id="rect4683-5-0-9"
           width="2064.4067"
           height="991.52545"
           x="1774.5763"
           y="1576.2712" /></flowRegion><flowPara
         id="flowPara4685-5-5-0"
         style="font-style:normal;font-variant:normal;font-weight:normal;font-stretch:normal;font-family:Arial;-inkscape-font-specification:Arial;fill:#ffffff;fill-opacity:1">ZIP</flowPara></flowRoot>    <path
       inkscape:connector-curvature="0"
       style="display:inline;fill:currentColor"
       d="m 4017.3351,449.59786 c -51.3334,0 -96,18.6666 -134,56 -38,37.3333 -57,82.6666 -57,136 v 206 h -231.9999 v 515.00004 h 231.9999 c 0,50 19,93.6667 57,131 38,37.3333 82.6666,56 134,56 h 538 c 54.6667,0 100.6667,-18.6667 138,-56 37.3333,-37.3333 56,-82.3333 56,-135 V 767.59786 l -262,-318 z m 0,94 h 407 v 168 c 0,24 8.1667,44.3333 24.5,61 16.3333,16.6666 36.8333,25 61.5,25 h 143 v 4 557.00004 c 0,26 -9.6667,48.6667 -29,68 -19.3333,19.3333 -42.3333,29 -69,29 h -538 c -26,0 -48.1667,-9.6667 -66.5,-29 -18.3334,-19.3333 -27.5,-40.6667 -27.5,-64 h 654 V 847.59786 h -654 v -206 c 0,-26 9.1666,-48.8334 27.5,-68.5 18.3333,-19.6667 40.5,-29.5 66.5,-29.5 z"
       id="path4632-95-9-6" />
    <path
       inkscape:connector-curvature="0"
       style="display:inline;fill:currentColor"
       d="m 3826.3351,847.59786 h -231.9999 v 515.00004 h 231.9999 c 631.7651,0 0,-248.0304 0,-515.00004 z m 97,515.00004 h 654 V 847.59786 h -654 c 494.4638,0 -178.8513,515.00004 0,515.00004 z"
       id="path4632-9-7-5-3"
       sodipodi:nodetypes="cccccccccc" />
    <flowRoot
       xml:space="preserve"
       id="flowRoot4679-1-4-7-1"
       style="font-style:normal;font-weight:normal;font-size:40px;line-height:1.25;font-family:sans-serif;letter-spacing:0px;word-spacing:0px;display:inline;fill:#000000;fill-opacity:1;stroke:none"
       transform="matrix(7.82254,0,0,7.82254,-10092.106,-11398.828)"><flowRegion
         id="flowRegion4681-4-6-4-6"><rect
           id="rect4683-5-0-9-3"
           width="2064.4067"
           height="991.52545"
           x="1774.5763"
           y="1576.2712" /></flowRegion><flowPara
         id="flowPara4685-5-5-0-4"
         style="font-style:normal;font-variant:normal;font-weight:normal;font-stretch:normal;font-family:Arial;-inkscape-font-specification:Arial;fill:#ffffff;fill-opacity:1">KML</flowPara></flowRoot>    <path
       inkscape:connector-curvature="0"
       style="display:inline;fill:currentColor"
       d="m 4017.3351,2320.7843 c -51.3334,0 -96,18.6666 -134,56 -38,37.3333 -57,82.6666 -57,136 v 206 h -231.9999 v 515 h 231.9999 c 0,50 19,93.6667 57,131 38,37.3333 82.6666,56 134,56 h 538 c 54.6667,0 100.6667,-18.6667 138,-56 37.3333,-37.3333 56,-82.3333 56,-135 v -591 l -262,-318 z m 0,94 h 407 v 168 c 0,24 8.1667,44.3333 24.5,61 16.3333,16.6666 36.8333,25 61.5,25 h 143 v 4 557 c 0,26 -9.6667,48.6667 -29,68 -19.3333,19.3333 -42.3333,29 -69,29 h -538 c -26,0 -48.1667,-9.6667 -66.5,-29 -18.3334,-19.3333 -27.5,-40.6667 -27.5,-64 h 654 v -515 h -654 v -206 c 0,-26 9.1666,-48.8334 27.5,-68.5 18.3333,-19.6667 40.5,-29.5 66.5,-29.5 z"
       id="path4632-95-9-6-5" />
    <path
       inkscape:connector-curvature="0"
       style="display:inline;fill:currentColor"
       d="m 3826.3351,2718.7843 h -231.9999 v 515 h 231.9999 c 631.7651,0 0,-248.0304 0,-515 z m 97,515 h 654 v -515 h -654 c 494.4638,0 -178.8513,515 0,515 z"
       id="path4632-9-7-5-3-3"
       sodipodi:nodetypes="cccccccccc" />
    <flowRoot
       xml:space="preserve"
       id="flowRoot4679-1-4-7-1-0"
       style="font-style:normal;font-weight:normal;font-size:40px;line-height:1.25;font-family:sans-serif;letter-spacing:0px;word-spacing:0px;display:inline;fill:#000000;fill-opacity:1;stroke:none"
       transform="matrix(7.82254,0,0,7.82254,-10092.106,-9527.6417)"><flowRegion
         id="flowRegion4681-4-6-4-6-6"><rect
           id="rect4683-5-0-9-3-1"
           width="2064.4067"
           height="991.52545"
           x="1774.5763"
           y="1576.2712" /></flowRegion><flowPara
         id="flowPara4685-5-5-0-4-7"
         style="font-style:normal;font-variant:normal;font-weight:normal;font-stretch:normal;font-family:Arial;-inkscape-font-specification:Arial;fill:#ffffff;fill-opacity:1">KMZ</flowPara></flowRoot>    <path
       inkscape:connector-curvature="0"
       style="display:inline;fill:currentColor"
       d="m 4017.3351,4537.7336 c -51.3334,0 -96,18.666 -134,56 -38,37.333 -57,82.666 -57,136 v 206 h -231.9999 v 514.999 h 231.9999 c 0,50 19,93.667 57,131 38,37.334 82.6666,56 134,56 h 538 c 54.6667,0 100.6667,-18.666 138,-56 37.3333,-37.333 56,-82.333 56,-135 v -590.999 l -262,-318 z m 0,94 h 407 v 168 c 0,24 8.1667,44.333 24.5,61 16.3333,16.666 36.8333,25 61.5,25 h 143 v 4 556.999 c 0,26 -9.6667,48.667 -29,68 -19.3333,19.334 -42.3333,29 -69,29 h -538 c -26,0 -48.1667,-9.666 -66.5,-29 -18.3334,-19.333 -27.5,-40.666 -27.5,-64 h 654 v -514.999 h -654 v -206 c 0,-26 9.1666,-48.834 27.5,-68.5 18.3333,-19.667 40.5,-29.5 66.5,-29.5 z"
       id="path4632-95-9-6-5-4" />
    <path
       inkscape:connector-curvature="0"
       style="display:inline;fill:currentColor"
       d="m 3826.3351,4935.7336 h -231.9999 v 514.999 h 231.9999 c 631.7651,0 0,-248.03 0,-514.999 z m 97,514.999 h 654 v -514.999 h -654 c 494.4638,0 -178.8513,514.999 0,514.999 z"
       id="path4632-9-7-5-3-3-5"
       sodipodi:nodetypes="cccccccccc" />
    <flowRoot
       xml:space="preserve"
       id="flowRoot4679-1-4-7-1-0-8"
       style="font-style:normal;font-weight:normal;font-size:40px;line-height:1.25;font-family:sans-serif;letter-spacing:0px;word-spacing:0px;display:inline;fill:#000000;fill-opacity:1;stroke:none"
       transform="matrix(7.82254,0,0,7.82254,-10092.106,-7310.6925)"><flowRegion
         id="flowRegion4681-4-6-4-6-6-6"><rect
           id="rect4683-5-0-9-3-1-6"
           width="2064.4067"
           height="991.52545"
           x="1774.5763"
           y="1576.2712" /></flowRegion><flowPara
         id="flowPara4685-5-5-0-4-7-1"
         style="font-style:normal;font-variant:normal;font-weight:normal;font-stretch:normal;font-family:Arial;-inkscape-font-specification:Arial;fill:#ffffff;fill-opacity:1">SHP</flowPara></flowRoot>    <path
       inkscape:connector-curvature="0"
       style="display:inline;fill:currentColor"
       d="m 4017.3351,6317.3946 c -51.3334,0 -96,18.666 -134,56 -38,37.333 -57,82.666 -57,136 v 206 h -231.9999 v 514.999 h 231.9999 c 0,50 19,93.667 57,131 38,37.334 82.6666,56 134,56 h 538 c 54.6667,0 100.6667,-18.666 138,-56 37.3333,-37.333 56,-82.333 56,-135 v -590.999 l -262,-318 z m 0,94 h 407 v 168 c 0,24 8.1667,44.333 24.5,61 16.3333,16.666 36.8333,25 61.5,25 h 143 v 4 556.999 c 0,26 -9.6667,48.667 -29,68 -19.3333,19.334 -42.3333,29 -69,29 h -538 c -26,0 -48.1667,-9.666 -66.5,-29 -18.3334,-19.333 -27.5,-40.666 -27.5,-64 h 654 v -514.999 h -654 v -206 c 0,-26 9.1666,-48.834 27.5,-68.5 18.3333,-19.667 40.5,-29.5 66.5,-29.5 z"
       id="path4632-95-9-6-5-4-6" />
    <path
       inkscape:connector-curvature="0"
       style="display:inline;fill:currentColor"
       d="m 3826.3351,6715.3946 h -231.9999 v 514.999 h 231.9999 c 631.7651,0 0,-248.03 0,-514.999 z m 97,514.999 h 654 v -514.999 h -654 c 494.4638,0 -178.8513,514.999 0,514.999 z"
       id="path4632-9-7-5-3-3-5-7"
       sodipodi:nodetypes="cccccccccc" />
    <flowRoot
       xml:space="preserve"
       id="flowRoot4679-1-4-7-1-0-8-0"
       style="font-style:normal;font-weight:normal;font-size:40px;line-height:1.25;font-family:sans-serif;letter-spacing:0px;word-spacing:0px;display:inline;fill:#000000;fill-opacity:1;stroke:none"
       transform="matrix(7.82254,0,0,7.82254,-10092.106,-5531.0315)"><flowRegion
         id="flowRegion4681-4-6-4-6-6-6-9"><rect
           id="rect4683-5-0-9-3-1-6-6"
           width="2064.4067"
           height="991.52545"
           x="1774.5763"
           y="1576.2712" /></flowRegion><flowPara
         id="flowPara4685-5-5-0-4-7-1-0"
         style="font-style:normal;font-variant:normal;font-weight:normal;font-stretch:normal;font-family:Arial;-inkscape-font-specification:Arial;fill:#ffffff;fill-opacity:1">CSV</flowPara><flowPara
         style="font-style:normal;font-variant:normal;font-weight:normal;font-stretch:normal;font-family:Arial;-inkscape-font-specification:Arial;fill:#ffffff;fill-opacity:1"
         id="flowPara5050" /></flowRoot>    <path
       inkscape:connector-curvature="0"
       style="display:inline;fill:currentColor"
       d="m 4017.3351,8605.5308 c -51.3334,0 -96,18.666 -134,56 -38,37.333 -57,82.666 -57,136 v 206 h -231.9999 v 514.999 h 231.9999 c 0,50 19,93.667 57,131 38,37.334 82.6666,56 134,56 h 538 c 54.6667,0 100.6667,-18.666 138,-56 37.3333,-37.333 56,-82.333 56,-135 v -590.999 l -262,-318 z m 0,94 h 407 v 168 c 0,24 8.1667,44.333 24.5,61 16.3333,16.666 36.8333,25 61.5,25 h 143 v 4 556.999 c 0,26 -9.6667,48.667 -29,68 -19.3333,19.334 -42.3333,29 -69,29 h -538 c -26,0 -48.1667,-9.666 -66.5,-29 -18.3334,-19.333 -27.5,-40.666 -27.5,-64 h 654 v -514.999 h -654 v -206 c 0,-26 9.1666,-48.834 27.5,-68.5 18.3333,-19.667 40.5,-29.5 66.5,-29.5 z"
       id="path4632-95-9-6-5-4-6-9" />
    <path
       inkscape:connector-curvature="0"
       style="display:inline;fill:currentColor"
       d="m 3826.3351,9003.5308 h -231.9999 v 514.999 h 231.9999 c 631.7651,0 0,-248.03 0,-514.999 z m 97,514.999 h 654 v -514.999 h -654 c 494.4638,0 -178.8513,514.999 0,514.999 z"
       id="path4632-9-7-5-3-3-5-7-9"
       sodipodi:nodetypes="cccccccccc" />
    <flowRoot
       xml:space="preserve"
       id="flowRoot4679-1-4-7-1-0-8-0-8"
       style="font-style:normal;font-weight:normal;font-size:40px;line-height:1.25;font-family:sans-serif;letter-spacing:0px;word-spacing:0px;display:inline;fill:#000000;fill-opacity:1;stroke:none"
       transform="matrix(7.82254,0,0,7.82254,-10092.106,-3242.8954)"><flowRegion
         id="flowRegion4681-4-6-4-6-6-6-9-0"><rect
           id="rect4683-5-0-9-3-1-6-6-9"
           width="2064.4067"
           height="991.52545"
           x="1774.5763"
           y="1576.2712" /></flowRegion><flowPara
         id="flowPara4685-5-5-0-4-7-1-0-1"
         style="font-style:normal;font-variant:normal;font-weight:normal;font-stretch:normal;font-family:Arial;-inkscape-font-specification:Arial;fill:#ffffff;fill-opacity:1">DXF</flowPara><flowPara
         style="font-style:normal;font-variant:normal;font-weight:normal;font-stretch:normal;font-family:Arial;-inkscape-font-specification:Arial;fill:#ffffff;fill-opacity:1"
         id="flowPara5050-7" /></flowRoot>    <path
       inkscape:connector-curvature="0"
       style="display:inline;fill:currentColor"
       d="m 6647.4445,394.20866 c -51.3334,0 -96,18.6666 -134,56 -38,37.3333 -57,82.6666 -57,136 v 206 h -232 v 515.00004 h 232 c 0,50 19,93.6667 57,131 38,37.3333 82.6666,56 134,56 h 537.9999 c 54.6667,0 100.6667,-18.6667 138,-56 37.3333,-37.3333 56,-82.3333 56,-135 V 712.20866 l -262,-318 z m 0,94 h 406.9999 v 168 c 0,24 8.1667,44.3333 24.5,61 16.3334,16.6666 36.8334,25 61.5,25 h 143 v 4 557.00004 c 0,26 -9.6667,48.6667 -29,68 -19.3333,19.3333 -42.3333,29 -69,29 h -537.9999 c -26,0 -48.1667,-9.6667 -66.5,-29 -18.3334,-19.3333 -27.5,-40.6667 -27.5,-64 h 653.9999 V 792.20866 h -653.9999 v -206 c 0,-26 9.1666,-48.8334 27.5,-68.5 18.3333,-19.6667 40.5,-29.5 66.5,-29.5 z"
       id="path4632-95-9-2" />
    <path
       inkscape:connector-curvature="0"
       style="display:inline;fill:currentColor"
       d="m 6456.4445,792.20866 h -232 v 515.00004 h 232 c 631.765,0 0,-248.0304 0,-515.00004 z m 97,515.00004 h 653.9999 V 792.20866 h -653.9999 c 494.4638,0 -178.8513,515.00004 0,515.00004 z"
       id="path4632-9-7-5-35"
       sodipodi:nodetypes="cccccccccc" />
    <flowRoot
       xml:space="preserve"
       id="flowRoot4679-1-4-7-3"
       style="font-style:normal;font-weight:normal;font-size:40px;line-height:1.25;font-family:sans-serif;letter-spacing:0px;word-spacing:0px;display:inline;fill:#000000;fill-opacity:1;stroke:none"
       transform="matrix(7.82254,0,0,7.82254,-7604.3702,-11454.217)"><flowRegion
         id="flowRegion4681-4-6-4-3"><rect
           id="rect4683-5-0-9-2"
           width="2064.4067"
           height="991.52545"
           x="1774.5763"
           y="1576.2712" /></flowRegion><flowPara
         id="flowPara4685-5-5-0-0"
         style="font-style:normal;font-variant:normal;font-weight:bold;font-stretch:normal;font-family:Arial;-inkscape-font-specification:'Arial Bold';fill:#ffffff;fill-opacity:1">TEMP</flowPara></flowRoot>  </g>
</svg>
