<?xml version="1.0" encoding="UTF-8" standalone="no"?>
<!-- Created with Inkscape (http://www.inkscape.org/) -->

<svg
   xmlns:dc="http://purl.org/dc/elements/1.1/"
   xmlns:cc="http://creativecommons.org/ns#"
   xmlns:rdf="http://www.w3.org/1999/02/22-rdf-syntax-ns#"
   xmlns:svg="http://www.w3.org/2000/svg"
   xmlns="http://www.w3.org/2000/svg"
   xmlns:sodipodi="http://sodipodi.sourceforge.net/DTD/sodipodi-0.dtd"
   xmlns:inkscape="http://www.inkscape.org/namespaces/inkscape"
   width="210mm"
   height="297mm"
   viewBox="0 0 744.09448819 1052.3622047"
   id="svg2"
   version="1.1"
   inkscape:version="0.91 r13725"
   sodipodi:docname="new-icons.svg">
  <defs
     id="defs4" />
  <sodipodi:namedview
     id="base"
     pagecolor="#ffffff"
     bordercolor="#666666"
     borderopacity="1.0"
     inkscape:pageopacity="0.0"
     inkscape:pageshadow="2"
     inkscape:zoom="0.24748737"
     inkscape:cx="2854.7537"
     inkscape:cy="72.016765"
     inkscape:document-units="px"
     inkscape:current-layer="layer1"
     showgrid="false"
     inkscape:window-width="1855"
     inkscape:window-height="1056"
     inkscape:window-x="65"
     inkscape:window-y="24"
     inkscape:window-maximized="1" />
  <metadata
     id="metadata7">
    <rdf:RDF>
      <cc:Work
         rdf:about="">
        <dc:format>image/svg+xml</dc:format>
        <dc:type
           rdf:resource="http://purl.org/dc/dcmitype/StillImage" />
        <dc:title></dc:title>
      </cc:Work>
    </rdf:RDF>
  </metadata>
  <g
     inkscape:label="Layer 1"
     inkscape:groupmode="layer"
     id="layer1">
    <path
       style="fill:#000000;fill-opacity:1;stroke:none;stroke-width:1;stroke-miterlimit:4;stroke-dasharray:none;stroke-dashoffset:0;stroke-opacity:1"
       d="m 2184.5218,312.74297 c -17.4423,-16.37543 -48.3435,-13.80893 -62.5388,5.70247 l -40.9886,40.98875 -15.5662,-15.56609 c -8.7593,-6.69891 -21.9818,-1.1717 -27.8271,7.37632 -6.0251,7.15009 -6.8308,19.78609 2.12,24.91585 l 14.0068,14.00686 c -52.9147,52.92884 -105.9101,105.85353 -158.7373,158.78122 -10.8192,10.51482 -13.3085,26.67191 -8.8168,40.43489 l -11.8716,11.87171 25.0001,25.00011 11.739,-11.73912 c 15.6436,5.40351 33.8435,-0.43309 44.4788,-13.00685 l 154.7749,-154.77491 15.1378,15.13783 c 6.7323,10.38924 22.1694,5.27642 28.5095,-2.97613 6.1947,-6.42663 8.4081,-18.22154 1.8271,-24.68662 l -14.6449,-14.64488 41.1987,-41.19858 c 20.0476,-14.91698 21.927,-46.73452 3.8435,-63.97798 -0.5331,-0.56724 -1.0814,-1.1156 -1.6434,-1.64346 l 2e-4,-9.7e-4 z m -116.6932,91.61319 28.2816,28.28156 -57.8378,57.83776 a 20.460207,20.460207 0 0 0 -2.6323,-3.24004 20.460207,20.460207 0 0 0 -28.613,-0.29002 l -0.016,-0.0154 -0.3066,0.3066 -82.7315,82.73149 a 7.8286824,7.8286824 0 0 1 -8.1608,-1.82992 7.8286824,7.8286824 0 0 1 -1.6848,-8.54603 c 39.6477,-43.79954 83.6445,-83.72234 124.7242,-126.25996 9.658,-9.65943 19.3175,-19.31746 28.9761,-28.97624 z"
       id="rect4136"
       inkscape:connector-curvature="0" />
    <path
       style="fill:#000000;fill-opacity:1;stroke:none;stroke-width:1;stroke-miterlimit:4;stroke-dasharray:none;stroke-dashoffset:0;stroke-opacity:1"
       d="M 1741.9531 294.18164 A 24.115403 24.155834 45 0 0 1725.6758 300.84961 L 1725.6113 300.78516 L 1562.9805 450.86914 L 1609.6719 497.56055 L 1757.6191 336.91211 A 24.115403 24.155834 45 0 0 1759.3418 335.35156 A 24.115403 24.155834 45 0 0 1759.3711 301.21875 A 24.115403 24.155834 45 0 0 1741.9531 294.18164 z M 1556.5645 456.78906 L 1546.9492 465.66211 L 1594.8926 513.60742 L 1603.7578 503.98242 L 1556.5645 456.78906 z M 1540.5312 471.58594 L 1512.8223 497.1543 L 1563.4355 547.76562 L 1588.9785 520.03125 L 1540.5312 471.58594 z M 1495.9727 518.33984 C 1480.4068 518.40917 1464.523 532.23041 1459.7637 540.5625 C 1449.3507 560.69323 1452.5556 585.97693 1467.7363 603.35352 C 1482.2512 620.72128 1507.5284 629.68382 1530.9473 625.63477 C 1533.237 625.2063 1542.032 623.69024 1535.4375 623.88281 C 1522.221 623.07654 1510.0129 614.7812 1505.2461 603.41797 C 1504.8371 600.67784 1507.6773 597.48794 1510.6016 597.06641 C 1535.0816 591.50283 1549.7528 564.1633 1539.1191 542.93359 C 1532.6216 528.35737 1516.2024 518.34521 1499.0781 518.51562 C 1498.0466 518.3923 1497.0104 518.33522 1495.9727 518.33984 z "
       id="rect4267" />
    <path
       style="font-style:normal;font-variant:normal;font-weight:normal;font-stretch:normal;font-size:40px;line-height:125%;font-family:monospace;-inkscape-font-specification:monospace;letter-spacing:0px;word-spacing:0px;fill:#000000;fill-opacity:1;stroke:none;stroke-width:1px;stroke-linecap:butt;stroke-linejoin:miter;stroke-opacity:1"
       d="m 2555.8442,357.95149 a 19.269959,19.269959 0 0 0 -19.1998,17.85931 19.269959,19.269959 0 0 0 -0.07,1.41004 19.269959,19.269959 0 0 0 0.045,1.27874 c -0.028,-0.42312 -0.046,-0.8486 -0.046,-1.27874 0.01,-0.46762 0.03,-0.93483 0.07,-1.40077 -16.5332,77.6224 -33.0654,155.24503 -49.598,232.86752 a 19.269959,19.269959 0 0 0 -1.075,6.28103 19.269959,19.269959 0 0 0 19.2709,19.26934 19.269959,19.269959 0 0 0 19.2632,-19.13961 l 48.8768,-229.93318 a 19.269959,19.269959 0 0 0 1.7343,-7.94433 19.269959,19.269959 0 0 0 -19.2708,-19.26935 z m -19.2014,17.86858 c 6e-4,-0.003 9e-4,-0.006 0,-0.009 l -0,0 c -3e-4,0.003 3e-4,0.006 0,0.009 z m -0.011,2.84013 a 19.269959,19.269959 0 0 0 0.2177,1.80385 c -0.1004,-0.59255 -0.1728,-1.19421 -0.2177,-1.80385 z m 0.2301,1.87335 a 19.269959,19.269959 0 0 0 0.4155,1.84245 19.269959,19.269959 0 0 0 0.6069,1.82856 c -0.2313,-0.59585 -0.4344,-1.20588 -0.6069,-1.82856 -0.1672,-0.60318 -0.3071,-1.21706 -0.4155,-1.84245 z m 1.0239,3.67564 a 19.269959,19.269959 0 0 0 0.7815,1.7467 c -0.2886,-0.56645 -0.5494,-1.14941 -0.7815,-1.7467 z m 0.7877,1.75906 a 19.269959,19.269959 0 0 0 0.9343,1.62624 c -0.3366,-0.5258 -0.649,-1.06724 -0.9343,-1.62624 z m 0.9822,1.70037 a 19.269959,19.269959 0 0 0 1.0564,1.47952 c -0.3752,-0.47523 -0.7266,-0.96963 -1.0564,-1.47952 z m 1.1289,1.57064 a 19.269959,19.269959 0 0 0 1.2001,1.36524 c -0.4211,-0.43589 -0.8213,-0.89126 -1.2001,-1.36524 z m 1.2649,1.43319 a 19.269959,19.269959 0 0 0 1.3235,1.23397 c -0.4602,-0.39115 -0.902,-0.80184 -1.3235,-1.23397 z m 1.4178,1.31583 a 19.269959,19.269959 0 0 0 1.4965,1.13667 19.269959,19.269959 0 0 0 1.4872,0.91272 c -0.5088,-0.28497 -1.0082,-0.58435 -1.4872,-0.91272 -0.5175,-0.35466 -1.0172,-0.73453 -1.4965,-1.13667 z m 3.376,2.25944 a 19.269959,19.269959 0 0 0 1.2849,0.62083 c -0.4369,-0.19156 -0.8656,-0.39852 -1.2849,-0.62083 z m 1.5999,0.76138 a 19.269959,19.269959 0 0 0 3.4225,1.05945 c -1.1848,-0.24932 -2.3288,-0.60332 -3.4225,-1.05945 z m 3.7885,1.13049 a 19.269959,19.269959 0 0 0 1.4008,0.21313 c -0.4726,-0.0542 -0.9394,-0.12536 -1.4008,-0.21313 z m 6.6562,0.0988 c -0.5405,0.0871 -1.0854,0.1599 -1.637,0.20077 a 19.269959,19.269959 0 0 0 1.637,-0.20077 z m -4.8107,0.16525 a 19.269959,19.269959 0 0 0 1.7653,0.088 c -0.596,-2e-5 -1.1832,-0.035 -1.7653,-0.088 z m -100.6663,20.13419 c -6.4776,-0.13397 -15.4483,7.38753 -14.8355,7.20457 -24.8712,19.65858 -49.742,39.31781 -74.614,58.97556 -15.4384,6.62034 -18.1566,31.52501 -3.4609,40.37495 16.9486,11.52043 32.3658,25.10303 48.6374,37.53945 11.278,9.04198 22.8677,17.75551 33.8515,27.11174 10.7544,7.69081 27.4994,2.14016 31.6105,-10.39527 3.955,-10.12155 -1.3743,-22.66802 -11.4794,-26.74572 3.497,1.62356 -5.5259,-4.31532 -7.251,-5.85478 -18.2406,-13.59926 -36.4829,-27.19617 -54.7238,-40.79503 20.65,-15.53904 41.3002,-31.0781 61.95,-46.61736 13.5653,-5.21557 17.2067,-24.97779 6.3568,-34.66688 -3.9037,-3.81996 -9.3218,-6.01702 -14.7829,-5.99687 -0.4061,-0.0815 -0.8269,-0.12542 -1.2587,-0.13436 z m 145.9493,0 c -0.4318,0.009 -0.8526,0.0528 -1.2587,0.13436 -5.4611,-0.0202 -10.8792,2.17691 -14.7829,5.99687 -10.8499,9.68909 -7.2085,29.45131 6.3568,34.66688 20.6498,15.53926 41.3,31.07832 61.95,46.61736 -18.2409,13.59886 -36.4832,27.19577 -54.7238,40.79503 -1.7251,1.53946 -10.748,7.47834 -7.251,5.85478 -10.1051,4.0777 -15.4344,16.62417 -11.4794,26.74572 4.1111,12.53543 20.8561,18.08608 31.6105,10.39527 10.9838,-9.35623 22.5735,-18.06976 33.8515,-27.11174 16.2716,-12.43642 31.6888,-26.01902 48.6374,-37.53945 14.6957,-8.84994 11.9775,-33.75461 -3.4609,-40.37495 -24.872,-19.65775 -49.7428,-39.31698 -74.6141,-58.97556 0.6129,0.18296 -8.3578,-7.33854 -14.8354,-7.20457 z m -162.2643,9.47637 c -1.9869,3.36311 -0.4633,0.63141 0,0 z m 178.5792,0 c 0.4633,0.63141 1.9869,3.36311 0,0 z m -179.671,1.79921 c -1.6885,3.6506 -0.4117,0.69395 0,0 z m 180.7629,0 c 0.4117,0.69395 1.6885,3.6506 0,0 z m -181.6726,1.90269 c -1.3735,3.99299 -0.36,0.76744 0,0 z m 182.5823,0 c 0.36,0.76744 1.3735,3.99299 0,0 z m -183.2912,1.96138 c -1.0167,4.32722 -0.301,0.84083 0,0 z m 184.0001,0 c 0.301,0.84083 1.0167,4.32722 0,0 z m -184.5143,2.02468 c -0.2038,1.20975 -0.2989,2.38914 -0.3568,3.33434 0.015,-0.4124 0.028,-0.56115 0.045,-1.26485 l 0.1297,-1.04093 0.1823,-1.02856 z m 185.0285,0 0.1822,1.02856 0.1298,1.04093 c 0.017,0.7037 0.029,0.85245 0.045,1.26485 -0.058,-0.9452 -0.1529,-2.12459 -0.3567,-3.33434 z m -185.3776,5.82853 c 0.2201,1.56704 0.2796,2.0885 0.2688,2.09418 0.3602,1.4748 0.4861,2.0367 0.4834,2.07721 0.4958,1.40397 0.6822,1.9685 0.6857,2.01543 0.6417,1.36574 0.8836,1.9118 0.8756,1.92431 2.1564,3.60584 0.3102,0.71146 -0.055,-0.0958 0.013,0.0215 0.01,0.0176 0.023,0.0386 -0.1199,-0.21264 -0.6206,-1.26668 -0.834,-1.83319 0,10e-4 -0.01,-0.0309 -0.01,-0.034 -0.032,-0.0676 -0.026,-0.0578 -0.06,-0.12973 -0.1498,-0.38204 -0.4867,-1.34079 -0.6208,-1.85481 0,9.9e-4 -0,-0.0285 -0,-0.0309 -0.021,-0.0602 -0.018,-0.0508 -0.04,-0.11428 -0.1105,-0.38643 -0.4027,-1.5653 -0.4618,-2.04323 0.01,0.0241 0.01,0.0196 0.011,0.0432 -0.043,-0.17924 -0.246,-1.54714 -0.261,-2.05712 z m 2.2811,8.05398 c 0.014,0.0246 0.031,0.0594 0.032,0.0572 -0.018,-0.0298 -0.014,-0.0264 -0.032,-0.0572 z m 183.4456,-8.05398 c -0.015,0.50998 -0.218,1.87788 -0.261,2.05712 0.01,-0.0236 0,-0.0192 0.011,-0.0432 -0.059,0.47793 -0.3513,1.6568 -0.4618,2.04323 -0.023,0.0634 -0.019,0.0541 -0.04,0.11428 2e-4,0.002 -0.01,0.0319 -0,0.0309 -0.1341,0.51402 -0.471,1.47277 -0.6208,1.85481 -0.034,0.0719 -0.029,0.0622 -0.06,0.12973 -2e-4,0.003 -0.01,0.035 -0.01,0.034 -0.2134,0.56651 -0.7142,1.62055 -0.834,1.83319 0.013,-0.021 0.01,-0.0171 0.023,-0.0386 -0.3658,0.80721 -2.2119,3.70159 -0.056,0.0958 -0.01,-0.0125 0.2339,-0.55857 0.8756,-1.92431 0,-0.0469 0.1899,-0.61146 0.6857,-2.01543 -0,-0.0405 0.1232,-0.60241 0.4834,-2.07721 -0.011,-0.006 0.049,-0.52714 0.2688,-2.09418 z m -2.3135,8.11113 c 0,0.002 0.019,-0.0325 0.032,-0.0572 -0.018,0.0307 -0.015,0.0273 -0.032,0.0572 z m -180.0803,1.76677 c 2.5981,3.49534 0.4408,0.75444 0,0 z m 179.0609,0 c -0.4408,0.75444 -2.5981,3.49534 0,0 z m -177.8131,1.73127 c 2.829,3.10828 0.4984,0.6803 0,0 z m 176.5653,0 c -0.4984,0.6803 -2.829,3.10828 0,0 z m -175.1413,1.60461 c 3.1539,2.83408 0.5686,0.63331 0,0 z m 173.7173,0 c -0.5686,0.63331 -3.1539,2.83408 0,0 z m -172.1946,1.41003 c 3.6272,2.65341 0.6635,0.61218 0,0 z m 170.6719,0 c -0.6636,0.61218 -3.6273,2.65341 0,0 z m -165.1754,3.32507 c 1.1975,0.4297 2.3966,0.77637 3.3513,1.02547 -0.4117,-0.0902 -0.6989,-0.15698 -1.3081,-0.28416 -0.6948,-0.20733 -1.3737,-0.46317 -2.0432,-0.74131 z m 159.6789,0 c -0.6695,0.27814 -1.3484,0.53398 -2.0432,0.74131 -0.6142,0.12822 -0.9053,0.1951 -1.3189,0.28571 0.9561,-0.24923 2.1601,-0.59568 3.3621,-1.02702 z m -153.6481,1.52431 c 4.2375,0.0969 3.0751,0.16773 0,0 z m -4.61,90.91969 c 0.7049,-0.002 -3.3127,0.94182 0,0 z m 156.8373,0 c 3.3127,0.94182 -0.7049,-0.002 0,0 z m -99.5637,45.77413 c 0.6494,2e-5 1.2914,0.033 1.9243,0.0958 0.5849,0.058 1.1585,0.15186 1.7267,0.261 a 19.269959,19.269959 0 0 0 -1.7267,-0.261 19.269959,19.269959 0 0 0 -1.9243,-0.0958 z m 3.9645,0.41853 c 0.5813,0.12175 1.1536,0.26573 1.7143,0.43861 a 19.269959,19.269959 0 0 0 -1.7143,-0.43861 z m 1.7637,0.45405 c 0.5787,0.18016 1.1449,0.38898 1.6988,0.62085 a 19.269959,19.269959 0 0 0 -1.6988,-0.62085 z m 1.8116,0.66718 c 0.5416,0.23079 1.0696,0.48684 1.5845,0.76447 a 19.269959,19.269959 0 0 0 -1.5845,-0.76447 z m 1.8486,0.91118 c 0.51,0.28543 1.0102,0.5852 1.4903,0.91428 a 19.269959,19.269959 0 0 0 -1.4903,-0.91428 z m 1.495,0.91892 c 0.5112,0.35065 1.0054,0.72572 1.4795,1.12276 a 19.269959,19.269959 0 0 0 -1.4795,-1.12276 z m 6.3042,7.18913 c 0.2834,0.55815 0.54,1.13262 0.769,1.72044 a 19.269959,19.269959 0 0 0 -0.769,-1.72044 z m 0.7737,1.73434 c 0.2252,0.5794 0.4223,1.17258 0.5915,1.7776 a 19.269959,19.269959 0 0 0 -0.5915,-1.7776 z m 0.6146,1.85945 c 0.1596,0.58029 0.2932,1.17059 0.3985,1.77141 a 19.269959,19.269959 0 0 0 -0.3985,-1.77141 z m 0.4217,1.90268 c 0.096,0.57254 0.1655,1.15359 0.21,1.74208 a 19.269959,19.269959 0 0 0 -0.21,-1.74208 z"
       id="path4419-2"
       inkscape:connector-curvature="0" />
    <rect
       style="fill:#c7b6b6;fill-opacity:1;stroke:none;stroke-width:1;stroke-miterlimit:4;stroke-dasharray:none;stroke-dashoffset:0;stroke-opacity:1"
       id="rect4634"
       width="10.101525"
       height="415.54904"
       x="3105.209"
       y="302.82901" />
    <rect
       style="fill:#c7b6b6;fill-opacity:1;stroke:none;stroke-width:1;stroke-miterlimit:4;stroke-dasharray:none;stroke-dashoffset:0;stroke-opacity:1"
       id="rect4634-0"
       width="10.101525"
       height="415.54904"
       x="3177.9399"
       y="302.82901" />
    <rect
       style="fill:#c7b6b6;fill-opacity:1;stroke:none;stroke-width:1;stroke-miterlimit:4;stroke-dasharray:none;stroke-dashoffset:0;stroke-opacity:1"
       id="rect4634-0-6"
       width="10.101525"
       height="415.54904"
       x="3258.7522"
       y="302.82901" />
    <rect
       style="fill:#c7b6b6;fill-opacity:1;stroke:none;stroke-width:1;stroke-miterlimit:4;stroke-dasharray:none;stroke-dashoffset:0;stroke-opacity:1"
       id="rect4634-0-6-2"
       width="10.101525"
       height="415.54904"
       x="3339.5645"
       y="302.82901" />
    <rect
       style="fill:#c7b6b6;fill-opacity:1;stroke:none;stroke-width:1;stroke-miterlimit:4;stroke-dasharray:none;stroke-dashoffset:0;stroke-opacity:1"
       id="rect4634-0-6-2-6"
       width="10.101525"
       height="415.54904"
       x="3438.5593"
       y="302.82901" />
    <rect
       style="fill:#c7b6b6;fill-opacity:1;stroke:none;stroke-width:1;stroke-miterlimit:4;stroke-dasharray:none;stroke-dashoffset:0;stroke-opacity:1"
       id="rect4634-1"
       width="10.101525"
       height="415.54904"
       x="338.87759"
       y="-3486.7297"
       transform="matrix(0,1,-1,0,0,0)" />
    <rect
       style="fill:#c7b6b6;fill-opacity:1;stroke:none;stroke-width:1;stroke-miterlimit:4;stroke-dasharray:none;stroke-dashoffset:0;stroke-opacity:1"
       id="rect4634-0-8"
       width="10.101525"
       height="415.54904"
       x="411.60855"
       y="-3486.7297"
       transform="matrix(0,1,-1,0,0,0)" />
    <rect
       style="fill:#c7b6b6;fill-opacity:1;stroke:none;stroke-width:1;stroke-miterlimit:4;stroke-dasharray:none;stroke-dashoffset:0;stroke-opacity:1"
       id="rect4634-0-6-7"
       width="10.101525"
       height="415.54904"
       x="492.42081"
       y="-3486.7297"
       transform="matrix(0,1,-1,0,0,0)" />
    <rect
       style="fill:#c7b6b6;fill-opacity:1;stroke:none;stroke-width:1;stroke-miterlimit:4;stroke-dasharray:none;stroke-dashoffset:0;stroke-opacity:1"
       id="rect4634-0-6-2-9"
       width="10.101525"
       height="415.54904"
       x="573.23309"
       y="-3486.7297"
       transform="matrix(0,1,-1,0,0,0)" />
    <rect
       style="fill:#c7b6b6;fill-opacity:1;stroke:none;stroke-width:1;stroke-miterlimit:4;stroke-dasharray:none;stroke-dashoffset:0;stroke-opacity:1"
       id="rect4634-0-6-2-6-2"
       width="10.101525"
       height="415.54904"
       x="672.22797"
       y="-3486.7297"
       transform="matrix(0,1,-1,0,0,0)" />
  </g>
</svg>
